<svg xmlns="http://www.w3.org/2000/svg" width="86.411" height="77.289" viewBox="0 0 86.411 77.289">
  <g id="Calidad_Icon" data-name="Calidad Icon" transform="translate(3.602 3.5)">
    <g id="Grupo_261" data-name="Grupo 261">
      <path id="Trazado_627" data-name="Trazado 627" d="M2042.341,734.5h-33.285a6.319,6.319,0,0,0-5.472,3.159l-16.642,28.826a6.319,6.319,0,0,0,0,6.319l16.642,28.826a6.319,6.319,0,0,0,5.472,3.16h33.285a6.319,6.319,0,0,0,5.472-3.16l16.643-28.826a6.319,6.319,0,0,0,0-6.319l-16.643-28.826A6.319,6.319,0,0,0,2042.341,734.5Z" transform="translate(-1986.094 -734.5)" fill="none" stroke="#26c0a6" stroke-linecap="round" stroke-linejoin="round" stroke-width="7"/>
      <path id="Trazado_628" data-name="Trazado 628" d="M2087,849.529l9.671,9.671,21.7-21.7" transform="translate(-2063.199 -813.206)" fill="none" stroke="#26c0a6" stroke-linecap="round" stroke-linejoin="round" stroke-width="7"/>
    </g>
  </g>
</svg>
