<svg id="Innovación_Icon" data-name="Innovación Icon" xmlns="http://www.w3.org/2000/svg" width="68.231" height="101.636" viewBox="0 0 68.231 101.636">
  <path id="Trazado_618" data-name="Trazado 618" d="M71.052,91.746H50.24c-8.544,0-8.676-6.165-8.742-9.127-.039-1.875-.109-3.072-.749-3.86-6.222-7.686-9.995-13.013-9.995-22.166,0-17.556,14.814-27.029,28.752-27.029,14,0,28.135,8.36,28.135,27.029,0,9.162-3.776,14.486-10,22.161a3.365,3.365,0,1,1-5.231-4.232c6.042-7.457,8.5-11.164,8.5-17.929,0-14.986-11.532-20.3-21.4-20.3-10.945,0-22.022,6.971-22.022,20.3,0,6.761,2.459,10.472,8.492,17.929,2.134,2.634,2.2,5.7,2.252,7.952a9.129,9.129,0,0,0,.215,2.344,4.865,4.865,0,0,0,1.8.2H71.052a3.366,3.366,0,0,1,0,6.732Z" transform="translate(-25.422 -9.31)" fill="#26c0a6"/>
  <path id="Trazado_619" data-name="Trazado 619" d="M47.411,67.23a3.366,3.366,0,0,1-2.525-1.14c-8.728-9.893-3.9-21.627-.127-26.452a3.365,3.365,0,0,1,5.306,4.14c-.345.452-7.291,9.745-.132,17.859a3.365,3.365,0,0,1-.3,4.75A3.331,3.331,0,0,1,47.411,67.23Z" transform="translate(-20.85 -4.959)" fill="#26c0a6"/>
  <path id="Trazado_620" data-name="Trazado 620" d="M65.905,79.962H43.337a3.365,3.365,0,0,1,0-6.73h22.57a3.365,3.365,0,1,1,0,6.73Z" transform="translate(-20.854 12.331)" fill="#26c0a6"/>
  <path id="Trazado_621" data-name="Trazado 621" d="M63.367,86.209H44.623a3.365,3.365,0,1,1,0-6.73H63.367a3.365,3.365,0,1,1,0,6.73Z" transform="translate(-20.217 15.427)" fill="#26c0a6"/>
  <path id="Trazado_622" data-name="Trazado 622" d="M50.889,30.989a3.366,3.366,0,0,1-3.365-3.365V19.386a3.365,3.365,0,1,1,6.73,0v8.238A3.365,3.365,0,0,1,50.889,30.989Z" transform="translate(-17.111 -16.021)" fill="#26c0a6"/>
  <path id="Trazado_623" data-name="Trazado 623" d="M36.373,36.659a3.355,3.355,0,0,1-2.379-.986l-5.819-5.827a3.365,3.365,0,1,1,4.759-4.759l5.819,5.827a3.365,3.365,0,0,1-2.379,5.744Z" transform="translate(-27.189 -12.016)" fill="#26c0a6"/>
  <path id="Trazado_624" data-name="Trazado 624" d="M67.785,36.659a3.365,3.365,0,0,1-2.379-5.744l5.819-5.827a3.365,3.365,0,0,1,4.759,4.759l-5.819,5.827A3.355,3.355,0,0,1,67.785,36.659Z" transform="translate(-8.738 -12.016)" fill="#26c0a6"/>
</svg>
