<svg xmlns="http://www.w3.org/2000/svg" width="669" height="664.097" viewBox="0 0 669 664.097">
  <g id="Grupo_1277" data-name="Grupo 1277" transform="translate(-4048.585 -52.753)">
    <path id="Floor" d="M4146.558,558.332c130.631,68.243,342.426,68.244,473.054,0s130.631-178.886,0-247.127-342.424-68.244-473.055,0S4015.927,490.09,4146.558,558.332Z" transform="translate(0 107.335)" fill="#f5f5f5"/>
    <ellipse id="Shadow" cx="62.069" cy="35.835" rx="62.069" ry="35.835" transform="translate(4438.69 540.71)" fill="#e0e0e0"/>
    <ellipse id="Shadow-2" data-name="Shadow" cx="54.897" cy="31.695" rx="54.897" ry="31.695" transform="translate(4559.271 487.139)" fill="#e0e0e0"/>
    <g id="Clouds" transform="translate(4520.593 106.776)">
      <path id="Trazado_3795" data-name="Trazado 3795" d="M4390.567,93.646l9.705,5.6a11.544,11.544,0,0,1-.082-1.286V95.153c0-5,3.512-7.032,7.846-4.529a15.171,15.171,0,0,1,4.676,4.5c.71-6.291,5.647-8.635,11.641-5.174,6.482,3.743,11.738,12.846,11.738,20.332v4.206a11.079,11.079,0,0,1-.993,4.872l8.062,4.654a9.625,9.625,0,0,1,4.352,7.538c0,2.776-1.949,3.9-4.352,2.514L4390.567,103.7a9.623,9.623,0,0,1-4.353-7.539C4386.215,93.383,4388.164,92.258,4390.567,93.646Z" transform="translate(-4345.751 -88.344)" fill="#ebebeb"/>
      <path id="Trazado_3796" data-name="Trazado 3796" d="M4362.84,111.832l7.324,4.229a8.878,8.878,0,0,1-.062-.97v-2.122c0-3.776,2.651-5.306,5.922-3.418a11.462,11.462,0,0,1,3.529,3.394c.534-4.748,4.261-6.518,8.785-3.905,4.893,2.825,8.858,9.695,8.858,15.344v3.174a8.358,8.358,0,0,1-.75,3.678l6.084,3.512a7.262,7.262,0,0,1,3.285,5.689c0,2.095-1.472,2.945-3.285,1.9l-39.691-22.915a7.257,7.257,0,0,1-3.283-5.689C4359.557,111.633,4361.025,110.785,4362.84,111.832Z" transform="translate(-4359.557 -78.253)" fill="#ebebeb"/>
    </g>
    <g id="Plants" transform="translate(4049.75 501.518)">
      <path id="Trazado_3797" data-name="Trazado 3797" d="M4119.372,440.039c-.967.524-18.839,5.6-25.459-3.148s4.364-22.376-1.847-27.4-23.615.029-27.8-10.554,8.229-15.118,1.251-25.77c-4.4-6.709-16.706-10.419-16.141-16.668.826-9.134,17.634-11.595,32.324-1.809s21.528,1.77,26.189,1.113,14.711.791,14.388,17.153S4119.372,440.039,4119.372,440.039Z" transform="translate(-4049.353 -348.411)" fill="#455a64"/>
      <g id="Grupo_1205" data-name="Grupo 1205" transform="translate(9.558 3.886)">
        <path id="Trazado_3798" data-name="Trazado 3798" d="M4117.292,415.442a.975.975,0,0,1-.96-.815c-5.114-31.052-41.211-56.324-59.979-61.748a.973.973,0,1,1,.541-1.87c19.193,5.545,56.11,31.441,61.36,63.3a.973.973,0,0,1-.8,1.12A1.118,1.118,0,0,1,4117.292,415.442Z" transform="translate(-4055.649 -350.971)" fill="#fff"/>
      </g>
      <g id="Grupo_1206" data-name="Grupo 1206" transform="translate(27.669 34.879)">
        <path id="Trazado_3799" data-name="Trazado 3799" d="M4068.557,378.878a.973.973,0,0,1-.5-1.811c.584-.348,14.471-8.465,28.156-4.667a.973.973,0,0,1-.521,1.876c-12.873-3.573-26.505,4.387-26.64,4.466A.975.975,0,0,1,4068.557,378.878Z" transform="translate(-4067.581 -371.39)" fill="#fff"/>
      </g>
    </g>
    <g id="Plants-2" data-name="Plants" transform="translate(4637.448 438.419)">
      <g id="Grupo_1217" data-name="Grupo 1217">
        <g id="Grupo_1213" data-name="Grupo 1213">
          <g id="Grupo_1208" data-name="Grupo 1208">
            <g id="Grupo_1207" data-name="Grupo 1207">
              <path id="Trazado_3800" data-name="Trazado 3800" d="M4441.938,379.119l-4.729-2.19s-1.546-16.976.069-28.312c3.008-21.113,17.783-39.314,30.9-41.453,16.918-2.756,13.913,12.814,4.239,19.523C4457.022,337.37,4444.973,353.722,4441.938,379.119Z" transform="translate(-4436.543 -306.84)" fill="#27debf"/>
            </g>
          </g>
          <g id="Grupo_1210" data-name="Grupo 1210" opacity="0.1">
            <g id="Grupo_1209" data-name="Grupo 1209">
              <path id="Trazado_3801" data-name="Trazado 3801" d="M4441.938,379.119l-4.729-2.19s-1.546-16.976.069-28.312c3.008-21.113,17.783-39.314,30.9-41.453,16.918-2.756,13.913,12.814,4.239,19.523C4457.022,337.37,4444.973,353.722,4441.938,379.119Z" transform="translate(-4436.543 -306.84)"/>
            </g>
          </g>
          <g id="Grupo_1212" data-name="Grupo 1212" transform="translate(2.246 4.294)">
            <g id="Grupo_1211" data-name="Grupo 1211">
              <path id="Trazado_3802" data-name="Trazado 3802" d="M4439.388,370.854a.831.831,0,0,0,.741-.976c-3.276-17.346,11.01-49.511,30.111-58.638a.825.825,0,1,0-.712-1.489c-19.679,9.4-34.4,42.553-31.021,60.433A.825.825,0,0,0,4439.388,370.854Z" transform="translate(-4438.023 -309.669)" fill="#fff"/>
            </g>
          </g>
        </g>
        <g id="Grupo_1216" data-name="Grupo 1216" transform="translate(0.082 17.063)">
          <g id="Grupo_1215" data-name="Grupo 1215">
            <g id="Grupo_1214" data-name="Grupo 1214">
              <path id="Trazado_3803" data-name="Trazado 3803" d="M4437.182,371.107c-.346-2.509-.5-6.188-.548-7.093a23.212,23.212,0,0,1,1.376-9.408,18.571,18.571,0,0,1,7.848-9.52c1.969-1.143,4.277-1.967,5.56-3.848,1.1-1.618,1.21-3.685,1.448-5.628.389-3.172,1.379-6.53,3.921-8.464s5.993-1.993,9.154-1.659c4.554.483,8.814,1.1,13.067-.99a92.3,92.3,0,0,1,10.5-4.733c4.542-1.56,14.741-3.793,16.887,2.6a6.185,6.185,0,0,1-.934,5.212,18.29,18.29,0,0,1-3.827,3.89l-7.119,5.92a9.1,9.1,0,0,0-2.16,2.263c-1.384,2.363-.4,5.361-.708,8.083a9.644,9.644,0,0,1-4.359,6.8,12.957,12.957,0,0,1-7.964,1.925c-3.716-.253-9.782-3.109-12.056,1.281a14.013,14.013,0,0,0-1.1,4.705,9.016,9.016,0,0,1-1.539,4.544c-1.481,1.858-4.051,2.389-6.416,2.632-3.3.337-6.7.366-9.787,1.572-1.277.5-2.08,2.131-2.822,3.207C4443.283,373.533,4440.733,372.6,4437.182,371.107Z" transform="translate(-4436.598 -318.081)" fill="#27debf"/>
            </g>
          </g>
        </g>
      </g>
      <g id="Grupo_1219" data-name="Grupo 1219" transform="translate(1.943 21.297)">
        <g id="Grupo_1218" data-name="Grupo 1218">
          <path id="Trazado_3804" data-name="Trazado 3804" d="M4438.658,368.363a.766.766,0,0,1-.779-1.05c9.567-23.751,40.079-40.766,58.252-46.407a.766.766,0,1,1,.456,1.463c-17.895,5.555-47.917,22.261-57.284,45.517A.767.767,0,0,1,4438.658,368.363Z" transform="translate(-4437.823 -320.871)" fill="#fff"/>
        </g>
      </g>
    </g>
    <g id="Pen" transform="translate(4225.694 458.699)">
      <g id="Grupo_1220" data-name="Grupo 1220" transform="translate(19.006)">
        <path id="Trazado_3805" data-name="Trazado 3805" d="M4295.841,326.274c0,5.425,3.812,12.021,8.515,14.732a6.764,6.764,0,0,0,4.889,1.037,3.765,3.765,0,0,1-.922.722l2.042-1.163a.81.81,0,0,1,.115-.073c.105-.062.2-.137.3-.209a2.688,2.688,0,0,0,.377-.325c.073-.073.146-.146.22-.231a.074.074,0,0,0,.042-.041,2.6,2.6,0,0,0,.2-.252,5.052,5.052,0,0,0,.7-1.266c.053-.137.1-.273.147-.408a.828.828,0,0,0,.062-.209,2.434,2.434,0,0,0,.095-.378,8.83,8.83,0,0,0,.23-2.114c0-5.423-3.812-12.02-8.5-14.732a7.686,7.686,0,0,0-3.812-1.163h-.032a4.2,4.2,0,0,0-.523.032l-.492.084a2.623,2.623,0,0,0-.292.083l-.18.053a2.514,2.514,0,0,0-.345.146l-.074.032c-.105.053-.219.1-.323.167l-1.78,1.017a3.383,3.383,0,0,1,.921-.325A6.755,6.755,0,0,0,4295.841,326.274Zm14.017,15.573c.05-.021.1-.049.146-.071C4309.955,341.8,4309.907,341.826,4309.857,341.847Z" transform="translate(-4116.659 -320.201)" fill="#27debf"/>
        <path id="Trazado_3806" data-name="Trazado 3806" d="M4179.433,423.8l12,20.857,2.032-1.172L4368.6,342.369a3.766,3.766,0,0,0,.922-.722,6.8,6.8,0,0,0,1.571-4.784c0-5.425-3.812-12.021-8.513-14.732a7.646,7.646,0,0,0-3.8-1.163,4.56,4.56,0,0,0-1.077.126,3.382,3.382,0,0,0-.921.325c-.053.021-.105.052-.147.073l-.052.032c-.011.011-.011.011-.021.011Z" transform="translate(-4176.942 -319.804)" fill="#ebebeb"/>
        <path id="Trazado_3807" data-name="Trazado 3807" d="M4186.3,389.5c-4.7-2.712-8.506-.513-8.508,4.91s3.81,12.021,8.508,14.734,8.506.515,8.506-4.91S4191,392.217,4186.3,389.5Z" transform="translate(-4177.791 -284.914)" fill="#27debf"/>
      </g>
      <path id="Trazado_3808" data-name="Trazado 3808" d="M4171.6,402.142a2.355,2.355,0,0,1,.209-.24l10.859-11.936c0-.011.01-.021.019-.032l.086-.09c.063-.076.13-.146.2-.216l.115-.124,0,.009c1.551-1.489,4.015-1.617,6.8-.011,4.7,2.712,8.506,9.309,8.506,14.734,0,3.148-1.287,5.2-3.281,5.845l0,.008-.13.029a4.3,4.3,0,0,1-.616.131l-.134.029a.06.06,0,0,0-.041.011l-15.736,3.435a3.865,3.865,0,0,1-2.745-.6,10.736,10.736,0,0,1-4.867-8.418A4.01,4.01,0,0,1,4171.6,402.142Z" transform="translate(-4162.379 -284.912)" fill="#e0e0e0"/>
      <g id="Grupo_1221" data-name="Grupo 1221" transform="translate(14.753 39.441)">
        <path id="Trazado_3809" data-name="Trazado 3809" d="M4308.512,346.513a.058.058,0,0,1,.053-.032l.282-.167a2.2,2.2,0,0,1,1.979.282,6.717,6.717,0,0,1,3.027,5.246,2.228,2.228,0,0,1-.7,1.821c0,.011-.011.011-.011.011l-.365.209-129.282,74.636-8.5-4.91Z" transform="translate(-4174.989 -346.186)" fill="#455a64"/>
        <path id="Trazado_3810" data-name="Trazado 3810" d="M4195.5,398.376l-12,6.93-8.5-4.91,16.253-9.385A20.45,20.45,0,0,1,4195.5,398.376Z" transform="translate(-4174.989 -322.973)" fill="#37474f"/>
      </g>
      <g id="Grupo_1224" data-name="Grupo 1224" transform="translate(4.4 110.914)">
        <g id="Grupo_1222" data-name="Grupo 1222" transform="translate(0.001)">
          <path id="Trazado_3811" data-name="Trazado 3811" d="M4168.715,405.265v0l-.009-.009,9.848-10.828a2.75,2.75,0,0,1,.264-.291c1.093-1.093,2.855-1.188,4.853-.038a13.289,13.289,0,0,1,6.012,10.412c0,2.215-.9,3.666-2.291,4.138-.038.009-.065.018-.094.027l-.395.085-14.438,3.148-.006-.006a2.194,2.194,0,0,1-1.553-.335,6.047,6.047,0,0,1-2.737-4.739A2.122,2.122,0,0,1,4168.715,405.265Z" transform="translate(-4168.169 -393.274)" fill="#27debf"/>
          <path id="Trazado_3812" data-name="Trazado 3812" d="M4168.715,405.265v0l-.009-.009,9.848-10.828a2.75,2.75,0,0,1,.264-.291c1.093-1.093,2.855-1.188,4.853-.038a13.289,13.289,0,0,1,6.012,10.412c0,2.215-.9,3.666-2.291,4.138-.038.009-.065.018-.094.027l-.395.085-14.438,3.148-.006-.006a2.194,2.194,0,0,1-1.553-.335,6.047,6.047,0,0,1-2.737-4.739A2.122,2.122,0,0,1,4168.715,405.265Z" transform="translate(-4168.169 -393.274)" opacity="0.1"/>
        </g>
        <g id="Grupo_1223" data-name="Grupo 1223" transform="translate(0 5.796)">
          <path id="Trazado_3813" data-name="Trazado 3813" d="M4168.168,404.85a6.045,6.045,0,0,0,2.743,4.74,2.158,2.158,0,0,0,1.545.331l.009.009,7.295-1.592c1.149-.246,1.9-1.33,1.9-3.063a9.7,9.7,0,0,0-4.373-7.586c-1.434-.829-2.705-.763-3.506.009l-.2.217-4.881,5.363.009.009A2.123,2.123,0,0,0,4168.168,404.85Z" transform="translate(-4168.168 -397.092)" fill="#27debf"/>
          <path id="Trazado_3814" data-name="Trazado 3814" d="M4170.906,401.29c-1.512-.873-2.737-.165-2.737,1.58a6.047,6.047,0,0,0,2.737,4.739c1.511.873,2.736.165,2.736-1.58A6.049,6.049,0,0,0,4170.906,401.29Z" transform="translate(-4168.167 -395.112)" opacity="0.1"/>
        </g>
      </g>
      <g id="Grupo_1225" data-name="Grupo 1225" transform="translate(148.612 20.966)">
        <path id="Trazado_3815" data-name="Trazado 3815" d="M4295.041,334.219a2.1,2.1,0,0,1,2.136.211,6.622,6.622,0,0,1,3,5.214,2.088,2.088,0,0,1-.89,1.958h0l-31.81,18.365a2.228,2.228,0,0,0,.7-1.821,6.717,6.717,0,0,0-3.027-5.246,2.2,2.2,0,0,0-1.979-.282Z" transform="translate(-4263.178 -334.014)" fill="#fafafa"/>
        <path id="Trazado_3816" data-name="Trazado 3816" d="M4283.59,336.168a6.666,6.666,0,0,0,3.017,5.214,1.837,1.837,0,0,0,3-1.738,6.619,6.619,0,0,0-3-5.214,1.838,1.838,0,0,0-3.017,1.738Z" transform="translate(-4252.608 -334.014)" fill="#f5f5f5"/>
      </g>
      <path id="Trazado_3817" data-name="Trazado 3817" d="M4288.739,329.67l-.006-.009.1-.055c.044-.027.088-.053.133-.077l12.55-7.237c.1-.061.192-.117.292-.17l.07-.039,0,.006c1.365-.668,3.183-.515,5.187.644a16.918,16.918,0,0,1,7.656,13.26c0,2.454-.869,4.173-2.267,4.968h0l-12.7,7.333-.069.039-.074.042,0-.006c-1.376.732-3.241.6-5.3-.59a16.92,16.92,0,0,1-7.656-13.26C4286.65,332.173,4287.447,330.506,4288.739,329.67Z" transform="translate(-4102.412 -319.429)" fill="#27debf"/>
      <path id="Trazado_3818" data-name="Trazado 3818" d="M4288.739,329.67l-.006-.009.1-.055c.044-.027.088-.053.133-.077l12.55-7.237c.1-.061.192-.117.292-.17l.07-.039,0,.006c1.365-.668,3.183-.515,5.187.644a16.918,16.918,0,0,1,7.656,13.26c0,2.454-.869,4.173-2.267,4.968h0l-12.7,7.333-.069.039-.074.042,0-.006c-1.376.732-3.241.6-5.3-.59a16.92,16.92,0,0,1-7.656-13.26C4286.65,332.173,4287.447,330.506,4288.739,329.67Z" transform="translate(-4102.412 -319.429)" opacity="0.05"/>
      <path id="Trazado_3819" data-name="Trazado 3819" d="M4294.306,327.587c-4.227-2.441-7.656-.461-7.656,4.42a16.92,16.92,0,0,0,7.656,13.26c4.229,2.441,7.656.463,7.656-4.42A16.92,16.92,0,0,0,4294.306,327.587Z" transform="translate(-4102.412 -316.918)" opacity="0.1"/>
      <g id="Grupo_1226" data-name="Grupo 1226" transform="translate(0 124.238)">
        <path id="Trazado_3820" data-name="Trazado 3820" d="M4166.2,405.276h0l5.193-3.116,0,0a.963.963,0,0,1,1.018.076,3.1,3.1,0,0,1,1.4,2.43.982.982,0,0,1-.412.908h0l-5.173,3.13h0a1.995,1.995,0,0,1-2.03-3.432Z" transform="translate(-4165.27 -402.052)" fill="#455a64"/>
        <path id="Trazado_3821" data-name="Trazado 3821" d="M4165.893,404.43l.011-.011a3.139,3.139,0,0,1,.276-.219c.011,0,.011-.011.021-.011a1.065,1.065,0,0,1,.9.158,3.1,3.1,0,0,1,1.4,2.429.957.957,0,0,1-.4.889.448.448,0,0,1-.105.053.653.653,0,0,1-.1.049,1.624,1.624,0,0,1-.641.108,2,2,0,0,1-1.989-2A1.945,1.945,0,0,1,4165.893,404.43Z" transform="translate(-4165.269 -400.968)" fill="#263238"/>
      </g>
    </g>
    <g id="Contract" transform="translate(4117.799 52.753)">
      <g id="Grupo_1227" data-name="Grupo 1227">
        <path id="Trazado_3822" data-name="Trazado 3822" d="M4102.506,600.031l-5.295-3.057a6.685,6.685,0,0,1-3.024-5.237V199.28a6.679,6.679,0,0,1,3.022-5.235l243.475-140.57a6.678,6.678,0,0,1,6.044,0l5.3,3.058a6.683,6.683,0,0,1,3.021,5.237V454.228a6.68,6.68,0,0,1-3.021,5.235L4108.552,600.031A6.682,6.682,0,0,1,4102.506,600.031Z" transform="translate(-4094.185 -52.753)" fill="#27debf"/>
        <path id="Trazado_3823" data-name="Trazado 3823" d="M4354.712,61.279c-.208-1.563-1.48-2.136-2.987-1.257L4108.25,200.593a6.134,6.134,0,0,0-2.135,2.246l-11.351-6.547a6.253,6.253,0,0,1,2.137-2.248l243.473-140.57a6.682,6.682,0,0,1,6.046,0l5.3,3.057A6.77,6.77,0,0,1,4354.712,61.279Z" transform="translate(-4093.886 -52.753)" fill="#fff" opacity="0.4"/>
        <path id="Trazado_3824" data-name="Trazado 3824" d="M4108.021,551.3a.473.473,0,0,1-.182.07,1.913,1.913,0,0,1-.307.111l-.126.042c-.183.056-.363.1-.56.14h-.069a6.814,6.814,0,0,1-3.6-.293,5,5,0,0,1-.67-.307L4097.2,548a6.717,6.717,0,0,1-3.016-5.235V150.308a6.24,6.24,0,0,1,.879-2.987l11.351,6.547a6.112,6.112,0,0,0-.895,2.989V549.318a2.509,2.509,0,0,0,.462,1.591,1.576,1.576,0,0,0,1.619.518A2.441,2.441,0,0,0,4108.021,551.3Z" transform="translate(-4094.185 -3.78)" opacity="0.15"/>
      </g>
      <g id="Grupo_1228" data-name="Grupo 1228" transform="translate(79.394 41.53)">
        <path id="Trazado_3825" data-name="Trazado 3825" d="M4251.908,111.567c-.14-.083-.293-.167-.446-.266l-5.025-2.89a18.884,18.884,0,0,0-5.863-2.079c-.865-.2-1.646-.419-2.332-.642a18.255,18.255,0,0,1-2.22-.908l.378-.461v-.014l-5.684-3.28v.014a5.732,5.732,0,0,0-1.493-.6c-2.136-.516-5.332.727-8.53.363a8.015,8.015,0,0,1-5.794-3.447c-1.939-2.611-3.113-7.19-4.83-10.974l1.494-2.205a5.429,5.429,0,0,0-.476-.266l-5.206-3.014a5.669,5.669,0,0,0-2.9-.782,11.122,11.122,0,0,0-5.46,1.773c-12.466,7.2-12.885,24.305-17.381,35.544-4.494,11.266-10.846,14.77-14.309,19.615-3.491,4.83-3.7,8.418-11.364,18.985s-7.972,13.151-7.972,15.148v15.748l5.668,3.266L4254.2,131.266Zm-93.563,60.687c-1.327.754-2.416-.266-2.416-2.318s1.089-4.341,2.416-5.109,2.4.279,2.4,2.331S4159.67,171.486,4158.345,172.254Zm44.827-44.185c-3.351,1.94-6.283.836-7.86-2.4-3.95.767-6.9-3.058-6.9-9.62,0-7.733,4.077-16.347,9.1-19.251,3.352-1.941,6.282-.838,7.846,2.4,3.965-.782,6.9,3.03,6.9,9.619C4212.261,116.55,4208.2,125.164,4203.172,128.069Zm33.883-1.27c-1.326.767-2.4-.266-2.4-2.3s1.075-4.327,2.4-5.1,2.415.266,2.415,2.316S4238.4,126.031,4237.055,126.8Z" transform="translate(-4146.492 -80.114)" fill="#455a64"/>
        <path id="Trazado_3826" data-name="Trazado 3826" d="M4157.826,144.836l-10.973-6.336a7.7,7.7,0,0,0-.361,2.444v15.748l5.668,3.266,5.666-3.272Z" transform="translate(-4146.492 -49.879)" fill="#37474f" opacity="0.5"/>
        <path id="Trazado_3827" data-name="Trazado 3827" d="M4164.949,136l5.67-13.1-9.012-5.287v0c-2.647,3.661-3.414,6.615-6.965,12.431Z" transform="translate(-4142.272 -60.691)" fill="#37474f" opacity="0.5"/>
        <path id="Trazado_3828" data-name="Trazado 3828" d="M4181,124.511l.734-3.816c-2.506-1.05-4.173-4.435-4.173-9.37,0-6.568,2.945-13.755,6.908-17.557l-7.86-4.535c-3.351,7.63-4.59,16.634-7.326,23.475a43.817,43.817,0,0,1-1.823,3.987Z" transform="translate(-4135.636 -75.392)" fill="#37474f" opacity="0.5"/>
        <path id="Trazado_3829" data-name="Trazado 3829" d="M4249.975,110.452c-.14-.083-.293-.167-.446-.266a22.467,22.467,0,0,0-5.234-1.7,16.38,16.38,0,0,1-7.986-3.908,11.607,11.607,0,0,0-1.842-1.369,5.393,5.393,0,0,0-1.522-.613c-3.436-.824-9.689,2.917-14.185-2.905-.041-.055-.1-.124-.14-.181-3.141-4.23-4.285-13.668-8.99-16.446a5.427,5.427,0,0,0-.476-.266c-1.939-.908-4.467-.739-7.915,1.243-12.466,7.2-12.885,24.305-17.381,35.544-4.5,11.267-10.847,14.77-14.309,19.615-3.492,4.83-3.687,8.418-11.364,18.987s-7.958,13.151-7.958,15.147v15.748l102.039-58.928V114.417A3.974,3.974,0,0,0,4249.975,110.452Zm-87.909,63.953c-1.327.768-2.4-.264-2.4-2.316s1.074-4.343,2.4-5.111,2.4.279,2.4,2.331S4163.406,173.637,4162.065,174.405Zm39.173-47.451c-3.351,1.94-6.283.836-7.86-2.4a14.54,14.54,0,0,1-1.242-6.352c0-7.735,4.077-16.349,9.1-19.252a7.37,7.37,0,0,1,2.191-.865c3.965-.782,6.9,3.03,6.9,9.619C4210.327,115.435,4206.264,124.049,4201.238,126.954Zm39.551,2c-1.341.768-2.415-.266-2.415-2.3s1.074-4.327,2.415-5.1,2.4.266,2.4,2.318S4242.115,128.182,4240.789,128.95Z" transform="translate(-4144.559 -78.999)" fill="#37474f"/>
        <path id="Trazado_3830" data-name="Trazado 3830" d="M4195.6,102.34c0,7.733-4.063,16.347-9.089,19.252-3.35,1.94-6.283.836-7.86-2.4a7.09,7.09,0,0,0,2.206-.867c5.026-2.9,9.089-11.517,9.089-19.251a14.488,14.488,0,0,0-1.244-6.352C4192.672,91.94,4195.6,95.751,4195.6,102.34Z" transform="translate(-4129.836 -73.637)" fill="#263238"/>
        <path id="Trazado_3831" data-name="Trazado 3831" d="M4158.853,145.582c-1.33.768-2.413-.264-2.413-2.309s1.083-4.34,2.413-5.108,2.4.282,2.4,2.327-1.074,4.323-2.4,5.089" transform="translate(-4141.342 -50.182)" fill="#263238"/>
        <path id="Trazado_3832" data-name="Trazado 3832" d="M4210.71,115.645c-1.328.768-2.412-.263-2.412-2.309s1.084-4.34,2.412-5.108,2.4.282,2.4,2.327-1.075,4.323-2.4,5.089" transform="translate(-4114.486 -65.685)" fill="#263238"/>
      </g>
      <g id="Grupo_1229" data-name="Grupo 1229" transform="translate(28.349 61.793)">
        <path id="Trazado_3833" data-name="Trazado 3833" d="M4114.677,216.221,4326.544,93.9a4.006,4.006,0,0,1,3.626,0l2.045,1.179a4.009,4.009,0,0,1,1.812,3.14V421.442a4,4,0,0,1-1.812,3.14L4120.352,546.9a4.01,4.01,0,0,1-3.628,0l-2.047-1.182a4.012,4.012,0,0,1-1.814-3.142V219.363A4.01,4.01,0,0,1,4114.677,216.221Z" transform="translate(-4112.862 -93.462)" fill="#f5f5f5"/>
        <path id="Trazado_3834" data-name="Trazado 3834" d="M4333.778,97.673c-.223-.739-.921-.977-1.744-.5L4120.167,219.494a3.647,3.647,0,0,0-1.284,1.354l-5.668-3.266a3.531,3.531,0,0,1,1.285-1.355L4326.366,93.9a3.932,3.932,0,0,1,3.617,0l2.052,1.172A4.016,4.016,0,0,1,4333.778,97.673Z" transform="translate(-4112.679 -93.464)" fill="#fafafa"/>
        <path id="Trazado_3835" data-name="Trazado 3835" d="M4119.915,504.748a3.228,3.228,0,0,1-.669.182l-.349.042a4.89,4.89,0,0,1-1.1-.042,3.232,3.232,0,0,1-.669-.182,3.382,3.382,0,0,1-.405-.194l-2.038-1.173a4.009,4.009,0,0,1-1.815-3.14V177.023a3.579,3.579,0,0,1,.53-1.787l5.668,3.266a3.8,3.8,0,0,0-.53,1.786V503.506C4118.535,504.5,4119.12,504.986,4119.915,504.748Z" transform="translate(-4112.86 -51.118)" fill="#e0e0e0"/>
      </g>
      <g id="Grupo_1230" data-name="Grupo 1230" transform="translate(73.004 51.721)">
        <path id="Trazado_3836" data-name="Trazado 3836" d="M4271.066,143.118l-5.64-3.266c-1.453-.838-3.365-.853-5.669.167-6.589,2.9-9.437,4.215-12.843,5.64-.781.32-1.579.642-2.457.991-1.327.53-3.994.083-3.17-4.566l8.753-23.58c-.042-.027-.083-.041-.126-.07l-5.542-3.21a2.492,2.492,0,0,0-.921-.322,4.12,4.12,0,0,0-.615-.055c-3.588-.085-4.606-23.2-4.635-23.915v-.014l-.25-.14-5.487-3.156a6.136,6.136,0,0,0-3.126-.8,11.457,11.457,0,0,0-5.194,1.466c-8.614,4.523-17.311,17.924-19.433,29.959-1.341,7.594-8.977,19.28-13.388,23.58-4.426,4.327-4.719,7.9-4.719,7.9l-3.435,19.462-1.1,6.226c-.811,4.649-5.57,9.145-5.57,9.145l-17.773,13.318c-11.125,9.242-14.268,18.568-16.4,30.113,0,.015-.014.07-.014.085-.07.4.014.683.194.8a.205.205,0,0,0,.2.014v-.014c.015.014.015.014.029,0l2.275-1.3,122.267-70.515a2.682,2.682,0,0,0,1.117-1.7c.014-.014.014-.042.027-.056s-.013-.027,0-.041c.7-4.217,2.737-12.1,2.737-12.1Zm-35.349-35.726c-1.312,7.4-6.646,15.649-11.95,18.428-3.658,1.913-6.325.726-7.217-2.638a4.184,4.184,0,0,1-4.007-.518c-1.7-1.34,13.878-28.074,15.146-27.488a4.521,4.521,0,0,1,2.347,3.2C4234.405,97.046,4236.89,100.747,4235.717,107.392Z" transform="translate(-4142.282 -86.828)" fill="#455a64"/>
        <path id="Trazado_3837" data-name="Trazado 3837" d="M4160.008,170.312l-8.906-5.141c-5.172,6.8-7.246,13.954-8.782,22.256,0,.015-.014.07-.014.085-.07.4.014.683.194.8a.205.205,0,0,0,.2.014v-.014c.015.014.015.014.029,0l.023-.014,7.028-5.567Z" transform="translate(-4142.282 -46.258)" fill="#37474f" opacity="0.5"/>
        <path id="Trazado_3838" data-name="Trazado 3838" d="M4168.1,157.454l12.557,7.249,5.669-32.742-11.323-6.537a10.715,10.715,0,0,0-1.776,4.323l-3.435,19.462-1.1,6.226A10.52,10.52,0,0,1,4168.1,157.454Z" transform="translate(-4128.91 -66.841)" fill="#37474f" opacity="0.5"/>
        <path id="Trazado_3839" data-name="Trazado 3839" d="M4190.881,97.231a48.715,48.715,0,0,0-5.954,15.635,38.854,38.854,0,0,1-4.442,11.1l10.777,6.222,5.355-12.366a4.132,4.132,0,0,1-3.858-.548c-.875-.689,2.821-8.092,6.788-15.043Z" transform="translate(-4122.498 -81.441)" fill="#37474f" opacity="0.5"/>
        <path id="Trazado_3840" data-name="Trazado 3840" d="M4271.011,142.047l-.083-.041c-1.453-.824-3.352-.824-5.64.181-8.084,3.561-10.526,4.733-15.315,6.632-1.284.518-3.867.1-3.2-4.271a2.053,2.053,0,0,1,.042-.293l1.1-6.228,3.057-16.962s.7-2.665-1.075-3.672c-.042-.027-.083-.041-.126-.07a3.3,3.3,0,0,0-1.41-.307,6.9,6.9,0,0,1-5.053-3.225,12.743,12.743,0,0,1-1.9-9.7c1.284-7.274-.126-12.369-3.352-14.268a2.268,2.268,0,0,0-.25-.153c-2.081-1.1-4.872-.921-8.139.8-8.614,4.523-17.312,17.926-19.435,29.959-1.339,7.6-8.977,19.28-13.387,23.58-4.426,4.327-4.72,7.9-4.72,7.9l-3.435,19.46-1.1,6.228c-.811,4.648-5.584,9.144-5.584,9.144l-17.758,13.319a42.844,42.844,0,0,0-14.618,22.127s-6.658,5.165-7.077,5.584v.014c-.014.014-.014.014.015,0l.014-.014,2.275-1.3,122.616-70.486s1.411-.768,1.717-.964,5.249-4.859,5.249-4.859C4274.235,146.137,4273.063,143.276,4271.011,142.047Zm-35.433-35.767c-1.312,7.4-6.646,15.649-11.95,18.428-3.658,1.913-6.325.726-7.217-2.638a14,14,0,0,1-.015-5.739c1.313-7.4,6.66-15.649,11.965-18.413a9.321,9.321,0,0,1,1.536-.657C4234.267,95.934,4236.751,99.635,4235.578,106.28Z" transform="translate(-4142.143 -85.716)" fill="#37474f"/>
        <path id="Trazado_3841" data-name="Trazado 3841" d="M4210.379,103.544c-1.312,7.4-6.646,15.649-11.95,18.428-3.658,1.913-6.325.726-7.218-2.638a10.027,10.027,0,0,0,1.55-.644c5.3-2.778,10.652-11.029,11.95-18.427a13.772,13.772,0,0,0-.014-5.739C4209.067,93.2,4211.552,96.9,4210.379,103.544Z" transform="translate(-4116.944 -82.981)" fill="#263238"/>
        <path id="Trazado_3842" data-name="Trazado 3842" d="M4205.364,94.764h0A2.9,2.9,0,0,1,4207.922,96c2.2,3.122.093,11.085-.818,13.629-1.269,3.544-9.488,11.851-11.758,11.85-2.008-.094-3.476-2.043-3.708-2.372a13.861,13.861,0,0,1,.006-5.531c1.3-7.305,6.582-15.455,11.783-18.166a9.131,9.131,0,0,1,1.444-.621c.171-.017.336-.024.494-.024m0-.349a5.619,5.619,0,0,0-.564.029,9.321,9.321,0,0,0-1.536.657c-5.305,2.764-10.652,11.014-11.965,18.413a14,14,0,0,0,.015,5.739s1.622,2.46,4.016,2.574l.047,0c2.456,0,10.729-8.38,12.055-12.084,1.3-3.623,4.185-15.332-2.068-15.33Z" transform="translate(-4117.046 -82.899)" fill="#263238"/>
        <path id="Trazado_3843" data-name="Trazado 3843" d="M4142.573,206.908l124.9-71.8s1.417-.774,1.721-.959,5.249-4.869,5.249-4.869l-124.8,72.031S4142.077,207.17,4142.573,206.908Z" transform="translate(-4142.144 -64.844)" fill="#263238"/>
      </g>
      <g id="Grupo_1237" data-name="Grupo 1237" transform="translate(56.702 144.178)">
        <g id="Grupo_1232" data-name="Grupo 1232">
          <g id="Grupo_1231" data-name="Grupo 1231">
            <path id="Trazado_3844" data-name="Trazado 3844" d="M4131.542,247.692v2.841c0,1.542,1.082,2.168,2.418,1.4l165.292-95.423a5.343,5.343,0,0,0,2.417-4.188v-2.852c0-1.542-1.082-2.168-2.417-1.395L4133.96,243.5A5.345,5.345,0,0,0,4131.542,247.692Z" transform="translate(-4131.542 -147.741)" fill="#e0e0e0"/>
            <path id="Trazado_3845" data-name="Trazado 3845" d="M4131.542,259v2.841c0,1.542,1.082,2.168,2.418,1.4l165.292-95.423a5.343,5.343,0,0,0,2.417-4.188v-2.852c0-1.542-1.082-2.166-2.417-1.395L4133.96,254.81A5.342,5.342,0,0,0,4131.542,259Z" transform="translate(-4131.542 -141.886)" fill="#e0e0e0"/>
            <path id="Trazado_3846" data-name="Trazado 3846" d="M4131.542,270.242v2.841c0,1.542,1.082,2.168,2.418,1.4l165.292-95.423a5.343,5.343,0,0,0,2.417-4.188v-2.852c0-1.542-1.082-2.167-2.417-1.4L4133.96,266.053A5.345,5.345,0,0,0,4131.542,270.242Z" transform="translate(-4131.542 -136.063)" fill="#e0e0e0"/>
          </g>
        </g>
        <g id="Grupo_1234" data-name="Grupo 1234" transform="translate(0 72.032)">
          <g id="Grupo_1233" data-name="Grupo 1233">
            <path id="Trazado_3847" data-name="Trazado 3847" d="M4131.542,295.147v2.841c0,1.542,1.082,2.167,2.418,1.4l165.292-95.423a5.341,5.341,0,0,0,2.417-4.188v-2.851c0-1.542-1.082-2.168-2.417-1.4L4133.96,290.96A5.342,5.342,0,0,0,4131.542,295.147Z" transform="translate(-4131.542 -195.197)" fill="#e0e0e0"/>
            <path id="Trazado_3848" data-name="Trazado 3848" d="M4131.542,306.453v2.841c0,1.542,1.082,2.168,2.418,1.4l165.292-95.421a5.346,5.346,0,0,0,2.417-4.189V208.23c0-1.542-1.082-2.168-2.417-1.4L4133.96,302.266A5.342,5.342,0,0,0,4131.542,306.453Z" transform="translate(-4131.542 -189.343)" fill="#e0e0e0"/>
            <path id="Trazado_3849" data-name="Trazado 3849" d="M4131.542,317.7v2.841c0,1.542,1.082,2.168,2.418,1.4l165.292-95.423a5.343,5.343,0,0,0,2.417-4.188v-2.851c0-1.542-1.082-2.167-2.417-1.4L4133.96,313.51A5.342,5.342,0,0,0,4131.542,317.7Z" transform="translate(-4131.542 -183.52)" fill="#e0e0e0"/>
          </g>
        </g>
        <g id="Grupo_1236" data-name="Grupo 1236" transform="translate(0 144.063)">
          <g id="Grupo_1235" data-name="Grupo 1235">
            <path id="Trazado_3850" data-name="Trazado 3850" d="M4131.542,342.6v2.841c0,1.542,1.082,2.167,2.418,1.4l165.292-95.423a5.343,5.343,0,0,0,2.417-4.188V244.38c0-1.542-1.082-2.168-2.417-1.4L4133.96,338.415A5.345,5.345,0,0,0,4131.542,342.6Z" transform="translate(-4131.542 -242.653)" fill="#e0e0e0"/>
            <path id="Trazado_3851" data-name="Trazado 3851" d="M4131.542,353.911v2.841c0,1.542,1.082,2.167,2.418,1.4l165.292-95.423a5.343,5.343,0,0,0,2.417-4.188v-2.852c0-1.542-1.082-2.168-2.417-1.4L4133.96,349.721A5.345,5.345,0,0,0,4131.542,353.911Z" transform="translate(-4131.542 -236.799)" fill="#e0e0e0"/>
            <path id="Trazado_3852" data-name="Trazado 3852" d="M4131.542,365.155V368c0,1.542,1.082,2.166,2.418,1.4l165.292-95.423a5.346,5.346,0,0,0,2.417-4.188V266.93c0-1.542-1.082-2.168-2.417-1.4L4133.96,360.966A5.345,5.345,0,0,0,4131.542,365.155Z" transform="translate(-4131.542 -230.976)" fill="#e0e0e0"/>
          </g>
        </g>
      </g>
      <path id="Trazado_3853" data-name="Trazado 3853" d="M4187.584,349.319l85.062-49.11,0,1.638-85.064,49.109Z" transform="translate(-4045.818 75.393)" fill="#e0e0e0"/>
      <path id="Trazado_3854" data-name="Trazado 3854" d="M4204.164,325.967c3.538-2.375,7.486-6.363,6.847-11.091-.387-2.869-2.716-3.966-5.354-2.955-5.179,1.982-8.451,9.781-10.26,14.485-1.58,4.113-3.584,11.868,2.584,13.181,7.25,1.541,12.851-9.089,14.479-14.628.228-.774-1.03-1.195-1.388-.5-.645,1.258-4.915,9.57-.222,8.535,1.668-.369,2.636-2.961,3.229-4.282,1.07-2.372,1.6-5.668,3.273-7.7l-1.231-.562c.068,2.184.063,3.678,1.462,5.369a.744.744,0,0,0,1.029.179c2.392-2.234,2.565-5.86,5.2-7.885l-1.077-.511c-.03.691-.311,2.68-.362,3.617-.025.434.6.716.946.586a2.058,2.058,0,0,0,1.509-1.305q-.576-.212-1.152-.42c1,5.347,5.571.03,7.136-2.034,4.619-6.093,7.8-12.581,7.931-20.365.011-.624-1.173-.934-1.187-.187-.109,5.973-2.717,11.458-4.4,17.094a189.422,189.422,0,0,0-4.514,18.542l1.083.389c.106-4.458,1.7-8.681,3.34-12.777,1.384-3.464,2.944-7.031,5.74-9.591q-.5-.189-1-.376c.739,3.092-.541,6.4-2.429,8.832-.321.414.4,1.176.717.773,1.669-2.1,4.419-2.762,6.2-4.792,1.859-2.114,2.994-4.854,4.485-7.225q-.412-.2-.82-.411c-.109,5.094,4.7-2.855,5.351-3.71-.263-.1-.527-.2-.789-.3.318,1.052.753,1.749,1.937,1.758,2.345.018,3.231-3.427,5-3.827.016,0,.782.663,1.05.686a4.37,4.37,0,0,0,2.839-.534,13.217,13.217,0,0,0,4.651-5.188c.266-.48-.657-1.088-.969-.559-1.157,1.972-4.8,7.2-7.454,4.637-.158-.152-.516-.293-.691-.077-.708.876-4.789,5.557-5.549,3.087-.094-.307-.537-.638-.789-.3-.618.823-1.118,1.735-1.691,2.591-.313.469-2.1,3.464-2.032,1.944.016-.357-.57-.794-.821-.411-1.652,2.535-2.87,5.87-5.169,7.926-1.718,1.535-3.977,2.1-5.456,3.934.239.258.479.515.717.773,2.086-2.656,3.587-6.2,2.771-9.59a.633.633,0,0,0-.994-.376c-2.843,2.606-4.44,6.279-5.847,9.8-1.674,4.194-3.288,8.483-3.407,13.041-.013.472.967,1,1.084.389a181.853,181.853,0,0,1,4.993-19.979c1.662-5.278,3.936-10.367,4.042-15.983l-1.187-.187a29.528,29.528,0,0,1-5.265,16.232c-.86,1.328-1.753,2.641-2.72,3.893-.432.559-4.2,5.473-4.683,2.618-.069-.411-.875-.981-1.151-.42q-.548.483-1.1.967l.949.587c.073-1.231.313-2.392.372-3.626.022-.483-.726-.782-1.078-.513-2.681,2.051-2.872,5.677-5.3,7.907l1.031.179a8.227,8.227,0,0,1-1.144-4.576c-.009-.527-.821-1.053-1.23-.562-1.855,2.221-2.429,5.751-3.651,8.338-.668,1.413-3.09,5.179-2.266,1.158a19.829,19.829,0,0,1,2.13-4.711l-1.388-.5c-1.433,4.828-5.239,12.156-10.447,13.717-6.654,2-5.5-6.251-4.275-9.915a40.746,40.746,0,0,1,6.337-11.876,15.018,15.018,0,0,1,1.71-1.972c1.352-1.223,1.757-1.457,3.637-.448,1.973,1.058,1.967,1.68,1.451,3.7a10.885,10.885,0,0,1-1.241,2.875,18.867,18.867,0,0,1-4.467,4.768c-.243.193.11.844.387.659Z" transform="translate(-4042.611 73.247)" fill="#455a64"/>
    </g>
    <g id="Characters" transform="translate(4456.086 255.942)">
      <g id="Grupo_1259" data-name="Grupo 1259" transform="translate(0 53.193)">
        <g id="Grupo_1255" data-name="Grupo 1255">
          <g id="Grupo_1238" data-name="Grupo 1238" transform="translate(0 47.891)">
            <path id="Trazado_3855" data-name="Trazado 3855" d="M4344.245,253.46c-5.5-1.3-11.544,2.609-15.083,11.243s-10.616,30.648-12.088,36.416c-.659,2.585,18.949,25.451,18.248,25.108-.215-.1,6.387-11.153,6.387-11.153l-9.516-14.644,5.961-15.9Z" transform="translate(-4317.058 -253.216)" fill="#b16668"/>
          </g>
          <g id="Grupo_1245" data-name="Grupo 1245" transform="translate(10.792 106.901)">
            <g id="Grupo_1239" data-name="Grupo 1239" transform="translate(2.589 132.604)">
              <path id="Trazado_3856" data-name="Trazado 3856" d="M4327.006,392.7c-.746.281-.934,1.7-1.045,4.522-.085,2.136-.542,5.862,1.958,6.607s6.163.364,7.766-1.648c2-2.512,3.353-4.724,6.208-7.788,2.476-2.659,5.155-5.141,6.155-8.869.9-3.37.152-4.831-2.148-5.81-3.16-1.348-8.126,3.054-10.6,3.748C4333.162,384.055,4327.751,392.415,4327.006,392.7Z" transform="translate(-4325.873 -379.456)" fill="#263238"/>
            </g>
            <g id="Grupo_1240" data-name="Grupo 1240" transform="translate(3.722 141.978)">
              <path id="Trazado_3857" data-name="Trazado 3857" d="M4326.619,386.886v3.465s3.6,2.767,8.755.237c.151-.334.909-4.956.909-4.956Z" transform="translate(-4326.619 -385.632)" fill="#b16668"/>
            </g>
            <g id="Grupo_1241" data-name="Grupo 1241" transform="translate(27.327 164.254)">
              <path id="Trazado_3858" data-name="Trazado 3858" d="M4344.345,400.308a58.5,58.5,0,0,0-1.529,5.648c-.426,2.095-1.036,5.595-.3,7.17s3.595,2.593,8.029,2.559c2.874-.023,7.351,1.929,10.415,3.64,3.167,1.767,6.6,1.771,9.95,1.378,3.946-.463,8.035-2.752,8.673-4.385s-.183-2.419-9.482-6.383c-.084-.036-9.807-4.428-14.307-9.394Z" transform="translate(-4342.17 -400.308)" fill="#263238"/>
            </g>
            <g id="Grupo_1242" data-name="Grupo 1242" transform="translate(29.501 160.509)">
              <path id="Trazado_3859" data-name="Trazado 3859" d="M4343.6,397.841s.012,2.571,0,4.04,1.722,3.658,6.213,3.5c3.154-.112,5.357-.961,5.232-3.559v-3.745Z" transform="translate(-4343.604 -397.841)" fill="#b16668"/>
            </g>
            <g id="Grupo_1243" data-name="Grupo 1243">
              <path id="Trazado_3860" data-name="Trazado 3860" d="M4324.479,387.3c1.586-11.319,4.229-17.818,4.229-17.818s-1.954-15.327-3.087-30.055c-2.031-26.386-.4-35.014,4.789-46.85,0,0,44.282-4.487,45.632,13.916,1.684,22.918-.549,67.207-1.158,75.3s-1.36,11.742-4.224,28.662c-2.18,12.871-5.545,42.38-5.545,42.38-5.877,3.177-11.446-.234-11.446-.234s-3.621-36.849-3.241-46.191a79.827,79.827,0,0,1,3.543-20.389s-2.746-37.348-3.547-43.3c0,0-1.381,11.848-1.99,19.945s-3.013,15.83-5.355,30.867c-2.031,13.046-5.806,42.2-5.806,42.2-5.876,3.177-9.383-.417-9.383-.417S4322.893,398.619,4324.479,387.3Z" transform="translate(-4324.167 -292.093)" fill="#27debf"/>
            </g>
            <g id="Grupo_1244" data-name="Grupo 1244" opacity="0.35">
              <path id="Trazado_3861" data-name="Trazado 3861" d="M4324.479,387.3c1.586-11.319,4.229-17.818,4.229-17.818s-1.954-15.327-3.087-30.055c-2.031-26.386-.4-35.014,4.789-46.85,0,0,44.282-4.487,45.632,13.916,1.684,22.918-.549,67.207-1.158,75.3s-1.36,11.742-4.224,28.662c-2.18,12.871-5.545,42.38-5.545,42.38-5.877,3.177-11.446-.234-11.446-.234s-3.621-36.849-3.241-46.191a79.827,79.827,0,0,1,3.543-20.389s-2.746-37.348-3.547-43.3c0,0-1.381,11.848-1.99,19.945s-3.013,15.83-5.355,30.867c-2.031,13.046-5.806,42.2-5.806,42.2-5.876,3.177-9.383-.417-9.383-.417S4322.893,398.619,4324.479,387.3Z" transform="translate(-4324.167 -292.093)"/>
            </g>
          </g>
          <g id="Grupo_1247" data-name="Grupo 1247" transform="translate(32.743 38.937)">
            <g id="Grupo_1246" data-name="Grupo 1246">
              <path id="Trazado_3862" data-name="Trazado 3862" d="M4355.754,250.558l-2.081,17.111-15.043-1.359,1.719-18.993Z" transform="translate(-4338.63 -247.317)" fill="#b16668"/>
            </g>
          </g>
          <g id="Grupo_1249" data-name="Grupo 1249" transform="translate(11.355 48.123)">
            <g id="Grupo_1248" data-name="Grupo 1248">
              <path id="Trazado_3863" data-name="Trazado 3863" d="M4329.418,261.956c1.654-4.5,7.278-9.514,13.063-8.439,1.506.281,2.831.5,4.249.785.132,3.942,7.559,5.983,14.963,3.591q3.339.958,6.113,1.949c5.295,1.891,7.424,10.687,7.542,25.4s1.682,51.414,1.682,51.414l-6.192,1.946-2.891-10.734-1.166,12.859c-6.7,1.688-13.736,1.566-21.377-.1-15.912-3.476-20.865-12.061-20.865-12.061a77.536,77.536,0,0,1,11.346-27.815C4327.909,279.534,4326.965,268.636,4329.418,261.956Z" transform="translate(-4324.538 -253.369)" fill="#ebebeb"/>
            </g>
          </g>
          <g id="Grupo_1254" data-name="Grupo 1254" transform="translate(17.027)">
            <g id="Grupo_1250" data-name="Grupo 1250" transform="translate(2.12)">
              <path id="Trazado_3864" data-name="Trazado 3864" d="M4371.571,242.106a13.2,13.2,0,0,0-1.135-12.72c-5.049-7.929-14.786-9.282-26.322-6.188a20.467,20.467,0,0,0-14.433,18.58c-.553,8.459,23.044,14.7,22.5,20.5Z" transform="translate(-4329.672 -221.664)" fill="#263238"/>
            </g>
            <g id="Grupo_1251" data-name="Grupo 1251" transform="translate(44.526 23.655)">
              <path id="Trazado_3865" data-name="Trazado 3865" d="M4357.61,237.249s3.2,5.135,2.752,5.657a7.994,7.994,0,0,1-2.586,1.032Z" transform="translate(-4357.61 -237.249)" fill="#9a4a4d"/>
            </g>
            <g id="Grupo_1252" data-name="Grupo 1252" transform="translate(12.129 5.874)">
              <path id="Trazado_3866" data-name="Trazado 3866" d="M4358.9,227.055c3.2,1.764,8.722,5.012,9.842,17,1.149,12.307-1.7,16.5-3.412,18.059-1.16,1.055-6.994,1.292-10.008.266-3.77-1.283-11.9-5.575-15.586-12.009-4.341-7.573-5.012-17.525.335-21.276C4347.6,223.816,4356.189,225.563,4358.9,227.055Z" transform="translate(-4336.267 -225.534)" fill="#b16668"/>
            </g>
            <g id="Grupo_1253" data-name="Grupo 1253" transform="translate(2.104 3.135)">
              <path id="Trazado_3867" data-name="Trazado 3867" d="M4363.262,228.528s2.526,11.267-1.052,18.248c0,0-1.865-4.42-5.654-3.268-3.812,1.158-3.6,6.206-.7,8.863a5.628,5.628,0,0,0,5.825,1.4,25.272,25.272,0,0,1-5.627,8.5s-11.213,5-20.924-5.961c-8.81-9.945-7.172-27.289,6.322-31.382S4363.262,228.528,4363.262,228.528Z" transform="translate(-4329.662 -223.73)" fill="#263238"/>
            </g>
            <path id="Trazado_3868" data-name="Trazado 3868" d="M4332,227.875a2.645,2.645,0,0,1,.279,3.729l-4.009-3.449A2.645,2.645,0,0,1,4332,227.875Z" transform="translate(-4328.275 -218.779)" fill="#263238"/>
          </g>
        </g>
        <g id="Grupo_1256" data-name="Grupo 1256" transform="translate(92.696 64.464)">
          <path id="Trazado_3869" data-name="Trazado 3869" d="M4378.128,281.369c2.183-2.494,3.018-8.043,5.928-11.835,2.842-3.7,3.969-6.578,5.119-4.918,1.518,2.193-1.909,6.583-1.15,7.022s3.612,6.226,3.9,9.443-8.225,11.3-8.225,11.3Z" transform="translate(-4378.128 -264.135)" fill="#b16668"/>
        </g>
        <g id="Grupo_1257" data-name="Grupo 1257" transform="translate(102.358 71.071)">
          <path id="Trazado_3870" data-name="Trazado 3870" d="M4384.493,268.893s10.293-.894,11.793-.027,1.045,5.346,0,8.076-6.3,4.511-11.171,7.811C4385.1,284.283,4384.493,268.893,4384.493,268.893Z" transform="translate(-4384.493 -268.488)" fill="#b16668"/>
        </g>
        <g id="Grupo_1258" data-name="Grupo 1258" transform="translate(49.09 54.141)">
          <path id="Trazado_3871" data-name="Trazado 3871" d="M4353.616,257.334c4.423,1.539,8.294,3.32,12.422,11.077,5.3,9.968,14.948,29.492,14.948,29.492l12.02-13.013s1.749-2.465,5,2.911,1.816,6.864,1.816,6.864-13.984,18.73-16.551,21.113-6.784.531-9.535-3.218-20.123-25.471-20.123-25.471S4344.129,274.613,4353.616,257.334Z" transform="translate(-4349.399 -257.334)" fill="#b16668"/>
        </g>
        <path id="Trazado_3872" data-name="Trazado 3872" d="M4346.359,330.249l-.837-8.949a33.792,33.792,0,0,1-13.509-5.112s2.876,4.61,10.77,6.709l.823,11.387.486,18.662Z" transform="translate(-4309.313 -172.715)" opacity="0.2"/>
        <path id="Trazado_3873" data-name="Trazado 3873" d="M4320.7,269.35h0a15.574,15.574,0,0,0,15.574-15.573V230.118h0a11.906,11.906,0,0,0-15.574,11.328Z" transform="translate(-4315.173 -217.59)" fill="#263238"/>
        <path id="Trazado_3874" data-name="Trazado 3874" d="M4362.129,289.876s-8.642-11.135-11.4-15.62l11.692,24.711Z" transform="translate(-4299.618 -194.43)" fill="#e0e0e0"/>
      </g>
      <g id="Grupo_1276" data-name="Grupo 1276" transform="translate(98.268)">
        <g id="Grupo_1260" data-name="Grupo 1260" transform="translate(6.038 48.313)">
          <path id="Trazado_3875" data-name="Trazado 3875" d="M4419.713,227.292c-3.281,9.66-10.278,38.5-10.278,38.5s-13.352,17.753-17.016,21.135c-2.04,1.882-6.642,5.268-6.642,5.268l3.826,2.819s6.384-1.941,6.905,1.569a195.9,195.9,0,0,0,18.827-17.308,12.2,12.2,0,0,0,2.982-5.561l5.715-24.521s-.036-19.729,3.025-22.319,1.833-8.421,1.833-8.421C4426.847,218.51,4422.29,219.706,4419.713,227.292Z" transform="translate(-4385.777 -218.449)" fill="#ffa8a7"/>
        </g>
        <g id="Grupo_1274" data-name="Grupo 1274" transform="translate(14.69)">
          <path id="Trazado_3876" data-name="Trazado 3876" d="M4426.092,217.815a56.292,56.292,0,0,0,3.365,7.63c1.339,2.287-8.886,43.5-9.562,46.566s-20.487,20.924-20.487,20.924-5.019-1.629-7.93-7.954l14.306-18.6s4.439-19.53,6.786-28.476S4417.4,218.777,4426.092,217.815Z" transform="translate(-4391.478 -170.464)" fill="#27debf"/>
          <g id="Grupo_1261" data-name="Grupo 1261" transform="translate(0 47.351)">
            <path id="Trazado_3877" data-name="Trazado 3877" d="M4426.092,217.815a56.292,56.292,0,0,0,3.365,7.63c1.339,2.287-8.886,43.5-9.562,46.566s-20.487,20.924-20.487,20.924-5.019-1.629-7.93-7.954l14.306-18.6s4.439-19.53,6.786-28.476S4417.4,218.777,4426.092,217.815Z" transform="translate(-4391.478 -217.815)" opacity="0.1"/>
          </g>
          <g id="Grupo_1273" data-name="Grupo 1273" transform="translate(2.622)">
            <g id="Grupo_1262" data-name="Grupo 1262" transform="translate(0 118.31)">
              <rect id="Rectángulo_350" data-name="Rectángulo 350" width="9.873" height="16.902" transform="translate(63.958 122.697)" fill="#ffa8a7"/>
              <path id="Trazado_3878" data-name="Trazado 3878" d="M4418.777,354.206l-9.868.339-.494-17.887,10.362-.339Z" transform="translate(-4385.328 -227.407)" fill="#ffa8a7"/>
              <path id="Trazado_3879" data-name="Trazado 3879" d="M4458.154,266.6c0,9.429.65,64.248.65,64.248.229,2.714,2.842,7.536,3.044,17.31.294,14.171-1.884,47.551-1.884,47.551a12.993,12.993,0,0,1-10.994.217s-7.755-47.216-9.522-61.242c-1.546-12.241-6.871-44.922-6.871-44.922l-7.548,41.381a56.117,56.117,0,0,1,1.224,15.69c-.461,6.489-6.469,38.988-6.469,38.988a13.479,13.479,0,0,1-11.4.871s-.59-51.012-.7-56.965c-.131-6.786,2.831-65.166,2.831-65.166Z" transform="translate(-4385.71 -264.565)" fill="#37474f"/>
              <path id="Trazado_3880" data-name="Trazado 3880" d="M4439.672,353.811V352.4c-.529-.011-.857.515-1.059,1.786-.146.909-.279,1.6-.578,2.793a33.019,33.019,0,0,1-1.725,5.053c-1.395,3.439-2.566,4.721-5.764,8.741a37.584,37.584,0,0,0-3.065,3.531c-.6,1.063-.808,4.019.206,4.695,3.728,2.485,9.39,2.555,13.394,1.38a8.082,8.082,0,0,0,5.813-6.531c.146-.911.093-1.841.2-2.756a13.074,13.074,0,0,1,2.473-5.736,17.364,17.364,0,0,0,1.9-3.121c.83-2.029.165-4.312-.364-6.334-.458-1.745-.955-3.666-1.549-3.5,0,.212,0,1.076,0,1.076-.719.8-2.7,1.583-4.937,1.67C4443.165,355.2,4439.66,354.912,4439.672,353.811Z" transform="translate(-4375.714 -219.086)" fill="#263238"/>
              <path id="Trazado_3881" data-name="Trazado 3881" d="M4416.682,346.543c-.513.018-.93.741-2.061,1.964a21.581,21.581,0,0,1-5.81,4.18c-3.7,1.85-10.884,4.7-14.137,6.162-2.032.915-1.937,3.37.164,4.768s7.172,2.4,13.263,1.041c3.316-.742,7.635-3.807,10.369-3.641s7.849.126,9.865-1.264,1.212-4.361.641-6.914c-.622-2.785-1.4-7.129-2.322-6.938v.959c-1.187,1.8-7.313,2.529-9.921,1.207Z" transform="translate(-4393.206 -222.448)" fill="#263238"/>
              <path id="Trazado_3882" data-name="Trazado 3882" d="M4428.772,283.857a36.554,36.554,0,0,1-13.749-7.882s2.653,4.966,10.541,9.59l-3.815,36.808Z" transform="translate(-4381.906 -258.656)" fill="#263238"/>
            </g>
            <g id="Grupo_1265" data-name="Grupo 1265" transform="translate(22.844 45.872)">
              <path id="Trazado_3883" data-name="Trazado 3883" d="M4440.364,218.4c3.356.807,10.127,1.916,11.648,8.611,1.825,8.037,2.419,25.539,2.419,25.539l.624,38.944c-6.8,4.954-31.773,7.65-46.083-2.8,0,0,1.751-46.765,1.751-54.043s4.044-16.024,15.21-16.674Z" transform="translate(-4407.884 -216.254)" fill="#f5f5f5"/>
              <path id="Trazado_3884" data-name="Trazado 3884" d="M4426.463,217.808s-5.02,3.986-6.378,9.875-1.578,71.653-1.578,71.653-6.98-1.29-10.252-3.857c0,0,.424-51.915,1.089-60.5,1.01-13.016.9-16.768,17.11-18.141Z" transform="translate(-4408.255 -216.841)" fill="#27debf"/>
              <path id="Trazado_3885" data-name="Trazado 3885" d="M4435.057,216.841c0-.006-9.3,5.727-9.407,28.5-.09,19.691-.748,53.993-.748,53.993s15.406,2.263,25.166-3.567c0,0,1.163-47.752.978-55.147-.213-8.468-2.194-19.412-4.905-20.5A78.647,78.647,0,0,0,4435.057,216.841Z" transform="translate(-4399.635 -216.841)" fill="#27debf"/>
              <g id="Grupo_1264" data-name="Grupo 1264" transform="translate(39.546 1.341)">
                <g id="Grupo_1263" data-name="Grupo 1263" transform="translate(1.201 0.622)">
                  <path id="Trazado_3886" data-name="Trazado 3886" d="M4464.387,268.477c-9.263-37.861-16.112-50.488-27.363-50.341-3.283,3.927-2.378,15.786,2.814,22.983,0,0,11.574,24.419,13.42,33.1,1.623,7.626,3.46,17.22,3.344,23.776a4.745,4.745,0,0,1-1.288,3.119c-2.113,2.29-2.12,4.135-3.491,6.669-1.072,1.982-2.245,2.725-1.91,3.171a2.562,2.562,0,0,0,3.474.257,13.1,13.1,0,0,0,2.633-2.526,26.292,26.292,0,0,1-2.088,7.023c-2.375,5.358-1.8,8.09,5.434,6.182,4.531-1.195,7.375-4.969,8.055-15.86a84.255,84.255,0,0,0,.119-12.053C4466.574,283.647,4465.878,274.571,4464.387,268.477Z" transform="translate(-4435.1 -218.134)" fill="#ffa8a7"/>
                </g>
                <path id="Trazado_3887" data-name="Trazado 3887" d="M4435.509,217.731s7.458-.34,11.494,3.745,9.491,12.674,14.771,31.457,6.895,32.491,7.165,43.064c0,0-6.618,3.089-12.721-.436,0,0-2.705-16.34-5.1-25.034s-11.341-27.022-11.341-27.022S4431.228,230.808,4435.509,217.731Z" transform="translate(-4434.309 -217.724)" fill="#27debf"/>
                <path id="Trazado_3888" data-name="Trazado 3888" d="M4435.509,217.731s7.458-.34,11.494,3.745,9.491,12.674,14.771,31.457,6.895,32.491,7.165,43.064c0,0-6.618,3.089-12.721-.436,0,0-2.705-16.34-5.1-25.034s-11.341-27.022-11.341-27.022S4431.228,230.808,4435.509,217.731Z" transform="translate(-4434.309 -217.724)" opacity="0.1"/>
              </g>
              <path id="Trazado_3889" data-name="Trazado 3889" d="M4434.917,225.047l-4.261,5.273,2.131,6-5.6,14.354,6.755-14.354-2.364-5.668Z" transform="translate(-4398.452 -212.591)" opacity="0.1"/>
              <path id="Trazado_3890" data-name="Trazado 3890" d="M4413.421,223.93l.926,5.453-3.69,4.8,5.132,16.161-3.972-15.983,3.4-4.492Z" transform="translate(-4407.012 -213.17)" opacity="0.1"/>
            </g>
            <g id="Grupo_1272" data-name="Grupo 1272" transform="translate(23.781)">
              <g id="Grupo_1266" data-name="Grupo 1266">
                <circle id="Elipse_151" data-name="Elipse 151" cx="13.569" cy="13.569" r="13.569" transform="translate(0 26.787) rotate(-80.783)" fill="#263238"/>
                <path id="Trazado_3891" data-name="Trazado 3891" d="M4436.555,203.231s-2.2,10.331-3.082,12.027a4.676,4.676,0,0,1-2.7,2.18l.153-7.266Z" transform="translate(-4397.533 -178.017)" fill="#263238"/>
                <path id="Trazado_3892" data-name="Trazado 3892" d="M4433.235,193.493a5.088,5.088,0,0,1,4.213,1.483c1.812,1.85.8,7.642-1.454,13.316l-4.142.475Z" transform="translate(-4396.972 -183.078)" fill="#263238"/>
                <path id="Trazado_3893" data-name="Trazado 3893" d="M4441.108,210.934c.83.495,2.014-1.1,3.038-2.172s4.368-2.535,6.037.979c1.7,3.582-1.473,8.313-4.106,9.141-4.535,1.424-5.217-1.486-5.217-1.486l-.334,16.863h0c-3.138,4.021-10.184,8.747-13.977,8.072-3.027-.539-3.687-5.654-.794-9.005l.013-4.98a28.625,28.625,0,0,1-6.116.314c-3.335-.516-5.434-3.148-6.446-6.759-1.625-5.8-2.241-10.484-.863-21.89,1.512-12.5,16.054-12.633,23.906-7.689S4441.108,210.934,4441.108,210.934Z" transform="translate(-4407.469 -185.24)" fill="#ffa8a7"/>
                <path id="Trazado_3894" data-name="Trazado 3894" d="M4441.655,213.689c.417.008,2-2.627,3.038-3.568,1.433-1.3-.414-13.107-.414-13.107a5.727,5.727,0,0,0-.987-6.372c-1.963-2.16-4.7-4.8-13.6-3.745-6.348.75-13.257,2.731-18.838-.012a9.5,9.5,0,0,0,3.309,10.092s2.021,1.3,7.335,1.95,13.591-.126,14.724-.279c1.54-.211,1.868,1.283,2.7,5.363C4439.645,207.592,4440.25,213.662,4441.655,213.689Z" transform="translate(-4408.017 -186.599)" fill="#263238"/>
                <path id="Trazado_3895" data-name="Trazado 3895" d="M4432.864,195.547l5.022-2.7a2.767,2.767,0,0,0-3.8-1.257A3,3,0,0,0,4432.864,195.547Z" transform="translate(-4396.61 -184.213)" fill="#263238"/>
                <path id="Trazado_3896" data-name="Trazado 3896" d="M4420.929,217.217s7.446-1.5,10.049-2.884a8.592,8.592,0,0,0,3.6-3.561,11.742,11.742,0,0,1-2.045,4.2c-1.9,2.433-11.6,4.226-11.6,4.226Z" transform="translate(-4402.629 -174.111)" fill="#f28f8f"/>
              </g>
              <g id="Grupo_1267" data-name="Grupo 1267" transform="translate(6.428 16.439)">
                <path id="Trazado_3897" data-name="Trazado 3897" d="M4422.107,202.85a1.493,1.493,0,1,0,1.491-1.554A1.517,1.517,0,0,0,4422.107,202.85Z" transform="translate(-4408.447 -195.457)" fill="#263238"/>
                <path id="Trazado_3898" data-name="Trazado 3898" d="M4423.15,198.949l3.191,1.762a1.914,1.914,0,0,0-.743-2.542A1.78,1.78,0,0,0,4423.15,198.949Z" transform="translate(-4407.907 -197.19)" fill="#263238"/>
                <path id="Trazado_3899" data-name="Trazado 3899" d="M4422.534,209.112l-3.406,1.278a1.789,1.789,0,0,0,2.313,1.129A1.9,1.9,0,0,0,4422.534,209.112Z" transform="translate(-4409.989 -191.41)" fill="#f28f8f"/>
                <path id="Trazado_3900" data-name="Trazado 3900" d="M4413.461,200.451l2.911-2.243a1.764,1.764,0,0,0-2.53-.387A1.93,1.93,0,0,0,4413.461,200.451Z" transform="translate(-4413.107 -197.449)" fill="#263238"/>
                <path id="Trazado_3901" data-name="Trazado 3901" d="M4413.931,202.57a1.494,1.494,0,1,0,1.493-1.554A1.518,1.518,0,0,0,4413.931,202.57Z" transform="translate(-4412.681 -195.602)" fill="#263238"/>
                <path id="Trazado_3902" data-name="Trazado 3902" d="M4420.705,201.108l-.49,8.974-4.686-1.6Z" transform="translate(-4411.853 -195.555)" fill="#f28f8f"/>
              </g>
              <g id="Grupo_1271" data-name="Grupo 1271" transform="translate(11.751 42.574)">
                <path id="Trazado_3903" data-name="Trazado 3903" d="M4417.873,224.832c.915,2.174,2.6,3.062,5.666,3.4a11.369,11.369,0,0,0,8.47-2.948l-3.81-3.79-4.826,3.638-.411-4.054Z" transform="translate(-4415.962 -211.346)" fill="#27debf"/>
                <path id="Trazado_3904" data-name="Trazado 3904" d="M4417.873,224.832c.915,2.174,2.6,3.062,5.666,3.4a11.369,11.369,0,0,0,8.47-2.948l-3.81-3.79-4.826,3.638-.411-4.054Z" transform="translate(-4415.962 -211.346)" opacity="0.1"/>
                <g id="Grupo_1268" data-name="Grupo 1268" transform="translate(0 12.299)">
                  <path id="Trazado_3905" data-name="Trazado 3905" d="M4419.642,222.771a10.141,10.141,0,0,0-.5,4.075,6.965,6.965,0,0,0,1.361,3.4,3.737,3.737,0,0,0,3.291.358,8.993,8.993,0,0,0,3.133-6.815l-4.18.478Z" transform="translate(-4415.334 -222.771)" fill="#27debf"/>
                  <path id="Trazado_3906" data-name="Trazado 3906" d="M4421.779,227.693s-4.955,27.35-5.155,29.557,2.846,10.05,4.735,10.116,5.6-7.032,5.653-9.039-1.942-30.277-1.942-30.277Z" transform="translate(-4416.614 -220.222)" fill="#27debf"/>
                  <path id="Trazado_3907" data-name="Trazado 3907" d="M4423.335,228.051a3.312,3.312,0,0,1-3.291-.358l-.079.433a3.772,3.772,0,0,0,3.424.677Z" transform="translate(-4414.878 -220.222)" opacity="0.1"/>
                </g>
                <g id="Grupo_1270" data-name="Grupo 1270" transform="translate(0.935)">
                  <g id="Grupo_1269" data-name="Grupo 1269">
                    <path id="Trazado_3908" data-name="Trazado 3908" d="M4421.5,228.459l13.963-10.637.062-3.154s3.246,1.231,3.975,6.959a24.619,24.619,0,0,1-10.888,11.583l-2.931-5.229Z" transform="translate(-4415.021 -214.668)" fill="#e0e0e0"/>
                    <path id="Trazado_3909" data-name="Trazado 3909" d="M4422.844,215.623s-3.1.46-4.5,2.769-1.078,11.114-1.078,11.114l3.341-3.033,3.1,1.492c-.3-2.937-.873-8.28-.873-8.28Z" transform="translate(-4417.23 -214.173)" fill="#e0e0e0"/>
                  </g>
                </g>
              </g>
            </g>
          </g>
        </g>
        <g id="Grupo_1275" data-name="Grupo 1275" transform="translate(0 119.273)">
          <path id="Trazado_3910" data-name="Trazado 3910" d="M4385.038,282.943a12.084,12.084,0,0,0,2.21-6.237c.388-2.872,8.259-5.951,8.507-3.813s.968,3.924-1.451,6.509S4388.641,284.865,4385.038,282.943Z" transform="translate(-4380.122 -261.584)" fill="#ffa8a7"/>
          <path id="Trazado_3911" data-name="Trazado 3911" d="M4387.066,268.021c-1.881,2.436-3.046,7.154-4.038,8.741s-2.183,2.975,0,3.272,5.357-3.966,6.546-6.546a6.914,6.914,0,0,1,2.033-2.606,4.623,4.623,0,0,1,1.142-.674c-1.029-.345-.486-4.446-1.21-5.009C4391.539,265.2,4387.836,266.714,4387.066,268.021Z" transform="translate(-4381.799 -265.199)" fill="#ffa8a7"/>
        </g>
      </g>
    </g>
  </g>
</svg>
