<svg xmlns="http://www.w3.org/2000/svg" width="332.59" height="71.821" viewBox="0 0 332.59 71.821">
  <defs>
    <style>
      .cls-1, .cls-3 {
        fill: #074e92;
      }

      .cls-2 {
        fill: none;
        stroke: #074e92;
        stroke-width: 7px;
      }

      .cls-3 {
        font-size: 50px;
        font-family: TrebuchetMS-Bold, Trebuchet MS;
        font-weight: 700;
      }
    </style>
  </defs>
  <g id="Logo_Top_Bar" data-name="Logo Top Bar" transform="translate(3.5 3.5)">
    <g id="Grupo_1" data-name="Grupo 1" transform="translate(-144.91 -35.867)">
      <path id="Trazado_6" data-name="Trazado 6" class="cls-1" d="M213.2,149.742l-4.966,4.966,4.966,4.966a2.74,2.74,0,1,1-3.874,3.875l-6.9-6.9a2.74,2.74,0,0,1,0-3.874l6.9-6.9a2.74,2.74,0,1,1,3.874,3.875Z" transform="translate(-46.915 -86.367)"/>
      <path id="Trazado_4" data-name="Trazado 4" class="cls-1" d="M275.2,159.553l4.967-4.966L275.2,149.62a2.74,2.74,0,0,1,3.875-3.875l6.9,6.9a2.74,2.74,0,0,1,0,3.874l-6.9,6.9a2.74,2.74,0,1,1-3.875-3.874Z" transform="translate(-86.776 -86.3)"/>
      <path id="Trazado_5" data-name="Trazado 5" class="cls-1" d="M235.407,159.822l9.571-19.143a2.74,2.74,0,0,1,4.9,2.45l-9.571,19.144a2.74,2.74,0,0,1-4.9-2.451Z" transform="translate(-65.262 -83.134)"/>
      <path id="Trazado_614" data-name="Trazado 614" class="cls-2" d="M32.411,0A32.411,32.411,0,1,1,0,32.411,32.411,32.411,0,0,1,32.411,0Z" transform="translate(144.91 35.867)"/>
    </g>
    <text id="innovalife" class="cls-3" transform="translate(90.09 3.133)"><tspan x="0" y="47">innovalife</tspan></text>
  </g>
</svg>
