<?xml version="1.0" encoding="utf-8"?>
<!-- Generator: Adobe Illustrator 23.0.1, SVG Export Plug-In . SVG Version: 6.00 Build 0)  -->
<svg version="1.1" id="Capa_1" xmlns="http://www.w3.org/2000/svg" xmlns:xlink="http://www.w3.org/1999/xlink" x="0px" y="0px"
	 viewBox="0 0 332.6 71.8" style="enable-background:new 0 0 332.6 71.8;" xml:space="preserve">
<style type="text/css">
	.st0{fill:#074E92;}
	.st1{enable-background:new    ;}
</style>
<g id="Logo_Top_Bar" transform="translate(3.5 3.5)">
	<g id="Grupo_1">
		<path id="Trazado_6" class="st0" d="M21.4,27.5l-5,5l5,5c1.1,1.1,1.1,2.8,0.1,3.9c-1.1,1.1-2.8,1.1-3.9,0.1c0,0,0,0-0.1-0.1
			l-6.9-6.9c-1.1-1.1-1.1-2.8,0-3.9l6.9-6.9c1.1-1.1,2.8-1.1,3.9-0.1C22.5,24.6,22.5,26.4,21.4,27.5C21.4,27.5,21.4,27.5,21.4,27.5
			L21.4,27.5z"/>
		<path id="Trazado_4" class="st0" d="M43.5,37.4l5-5l-5-5c-1.1-1.1-1.1-2.8,0-3.9s2.8-1.1,3.9,0l6.9,6.9c1.1,1.1,1.1,2.8,0,3.9
			l-6.9,6.9c-1.1,1.1-2.8,1.1-3.9,0.1C42.4,40.3,42.4,38.5,43.5,37.4C43.5,37.4,43.5,37.4,43.5,37.4L43.5,37.4z"/>
		<path id="Trazado_5" class="st0" d="M25.2,40.8l9.6-19.1c0.7-1.3,2.4-1.8,3.7-1.1c1.3,0.7,1.8,2.3,1.2,3.6l-9.6,19.1
			c-0.7,1.3-2.4,1.9-3.7,1.1C25.1,43.7,24.6,42.1,25.2,40.8L25.2,40.8z"/>
		<path class="st0" d="M32.4,68.3c-19.8,0-35.9-16.1-35.9-35.9S12.6-3.5,32.4-3.5s35.9,16.1,35.9,35.9S52.2,68.3,32.4,68.3z
			 M32.4,3.5c-15.9,0-28.9,13-28.9,28.9c0,15.9,13,28.9,28.9,28.9s28.9-13,28.9-28.9C61.3,16.5,48.4,3.5,32.4,3.5z"/>
	</g>
	<g class="st1">
		<path class="st0" d="M95,50.1V29h-3.3v-5h9.5v26.1H95z M98.2,13.9c1,0,1.8,0.3,2.5,1c0.7,0.7,1,1.5,1,2.5s-0.3,1.8-1,2.5
			c-0.7,0.7-1.5,1-2.5,1s-1.8-0.3-2.5-1c-0.7-0.7-1-1.5-1-2.5s0.3-1.8,1-2.5C96.4,14.2,97.2,13.9,98.2,13.9z"/>
		<path class="st0" d="M125.1,50.1V35c0-2.2-0.4-3.9-1.3-4.9s-2.3-1.5-4.2-1.5c-0.9,0-1.9,0.3-2.9,0.8c-1,0.5-1.8,1.1-2.4,1.9v18.9
			h-6.1V24h4.4l1.1,2.4c1.7-2,4.1-2.9,7.3-2.9c3.1,0,5.6,0.9,7.4,2.8c1.8,1.9,2.7,4.5,2.7,7.8v16H125.1z"/>
		<path class="st0" d="M154.6,50.1V35c0-2.2-0.4-3.9-1.3-4.9s-2.3-1.5-4.2-1.5c-0.9,0-1.9,0.3-2.9,0.8c-1,0.5-1.8,1.1-2.4,1.9v18.9
			h-6.1V24h4.4l1.1,2.4c1.7-2,4.1-2.9,7.3-2.9c3.1,0,5.6,0.9,7.4,2.8c1.8,1.9,2.7,4.5,2.7,7.8v16H154.6z"/>
		<path class="st0" d="M165.6,37c0-4,1.2-7.2,3.5-9.7c2.3-2.5,5.3-3.8,9.1-3.8c4,0,7.1,1.2,9.3,3.6c2.2,2.4,3.3,5.7,3.3,9.9
			c0,4.2-1.1,7.5-3.4,9.9c-2.2,2.5-5.3,3.7-9.2,3.7c-4,0-7.1-1.2-9.3-3.7C166.7,44.4,165.6,41.1,165.6,37z M172,37
			c0,5.8,2.1,8.6,6.2,8.6c1.9,0,3.4-0.7,4.5-2.2c1.1-1.5,1.7-3.6,1.7-6.4c0-5.7-2.1-8.5-6.2-8.5c-1.9,0-3.4,0.7-4.5,2.2
			C172.5,32.2,172,34.3,172,37z"/>
		<path class="st0" d="M206.5,50.6h-2.2L192.5,24h6.7l6.3,16l6.7-16h6.5L206.5,50.6z"/>
		<path class="st0" d="M236.5,47.5c-0.6,0.9-1.5,1.7-2.9,2.2c-1.4,0.6-2.8,0.9-4.3,0.9c-2.8,0-5-0.7-6.6-2.1c-1.6-1.4-2.4-3.4-2.4-6
			c0-3,1.1-5.4,3.4-7.1s5.5-2.6,9.7-2.6c0.7,0,1.6,0.1,2.5,0.4c0-3.1-1.9-4.6-5.8-4.6c-2.3,0-4.2,0.4-5.8,1.1L223,25
			c2.1-1,4.6-1.5,7.5-1.5c4,0,6.9,0.9,8.8,2.7c1.9,1.8,2.8,5.3,2.8,10.3v5.6c0,3.5,0.7,5.7,2.1,6.6c-0.5,0.9-1.1,1.4-1.7,1.6
			c-0.6,0.2-1.3,0.3-2.1,0.3c-0.9,0-1.7-0.3-2.4-1S236.8,48.3,236.5,47.5z M236,37.8c-1-0.2-1.8-0.3-2.3-0.3c-4.8,0-7.2,1.6-7.2,4.7
			c0,2.3,1.4,3.5,4.1,3.5c3.7,0,5.5-1.8,5.5-5.5V37.8z"/>
		<path class="st0" d="M249.7,14.2l6.1-1.5v29.4c0,3.2,1,5.1,2.9,5.8c-0.9,1.8-2.6,2.7-4.8,2.7c-2.8,0-4.2-1.9-4.2-5.8V14.2z"/>
		<path class="st0" d="M265,50.1V29h-3.3v-5h9.5v26.1H265z M268.2,13.9c1,0,1.8,0.3,2.5,1c0.7,0.7,1,1.5,1,2.5s-0.3,1.8-1,2.5
			c-0.7,0.7-1.5,1-2.5,1s-1.8-0.3-2.5-1c-0.7-0.7-1-1.5-1-2.5s0.3-1.8,1-2.5C266.4,14.2,267.2,13.9,268.2,13.9z"/>
		<path class="st0" d="M292.9,18.9c-1.3-0.4-2.4-0.7-3.1-0.7c-1.2,0-2.1,0.5-2.9,1.5c-0.8,1-1.2,2.2-1.2,3.7c0,0.2,0,0.4,0,0.6h5.4
			v5h-5.3v21.1h-6.1V29h-3.8v-5h3.8c0.1-3.2,1.1-5.8,2.8-7.8c1.8-2,4-3,6.8-3c1.4,0,3.2,0.3,5.3,1L292.9,18.9z"/>
		<path class="st0" d="M320.1,38.9h-18.7c0.1,2.1,0.8,3.7,2.1,4.9c1.3,1.2,3.1,1.7,5.3,1.7c2.8,0,4.9-0.7,6.3-2.2l2.4,4.7
			c-2.1,1.7-5.4,2.6-9.6,2.6c-4,0-7.1-1.2-9.5-3.5c-2.3-2.3-3.5-5.6-3.5-9.8c0-4.1,1.3-7.5,3.8-10c2.5-2.6,5.6-3.8,9.2-3.8
			c3.8,0,6.8,1.1,9.1,3.4c2.3,2.3,3.4,5.1,3.4,8.6C320.6,36.3,320.5,37.4,320.1,38.9z M301.7,34.3h12.8c-0.4-3.8-2.5-5.7-6.3-5.7
			C304.7,28.6,302.5,30.5,301.7,34.3z"/>
	</g>
</g>
</svg>
