<svg xmlns="http://www.w3.org/2000/svg" xmlns:xlink="http://www.w3.org/1999/xlink" width="6604.523" height="167.741" viewBox="0 0 6604.523 167.741">
  <defs>
    <clipPath id="clip-path">
      <path id="Trazado_4395" data-name="Trazado 4395" d="M53.149,28.5,36.993,44.66,53.149,60.822H34.688L27.76,53.894,18.526,44.66,34.688,28.5ZM34.688.8,4.682,30.81l9.234,9.234L53.149.8H34.688Z" transform="translate(-4.682 -0.804)" fill="#b7b7b7"/>
    </clipPath>
    <clipPath id="clip-path-6">
      <rect id="Rectángulo_400" data-name="Rectángulo 400" width="165.531" height="26.702" fill="#b7b7b7"/>
    </clipPath>
    <clipPath id="clip-path-7">
      <path id="Trazado_4465" data-name="Trazado 4465" d="M446.762,447.571v-.461h-3.54v28.581h3.54V464.13c0-3.382,2.059-5.366,5.181-5.366,2.983,0,4.481,1.727,4.481,5v11.93h3.54V463.245c0-4.62-2.861-7.69-7.579-7.69a7.753,7.753,0,0,0-5.624,2.166v-10.15ZM430.9,476.134a9.03,9.03,0,0,0,9.23-7.489l.109-.551h-3.571l-.091.343a5.532,5.532,0,0,1-5.677,4.415c-3.633,0-6.14-2.866-6.14-6.989,0-4.154,2.5-7.026,6.14-7.026a5.533,5.533,0,0,1,5.677,4.415l.091.343h3.571l-.109-.551a9.03,9.03,0,0,0-9.23-7.489c-5.692,0-9.717,4.57-9.717,10.308C421.185,471.569,425.216,476.134,430.9,476.134Zm-11.008-17h.461V456h-4.315V450.65H412.5V456h-3.577v3.135H412.5v11.046c0,3.624,1.879,5.587,5.329,5.587a11.427,11.427,0,0,0,1.557-.1,4.759,4.759,0,0,0,.558-.1l.338-.094v-3.282l-.559.121-.132.026c-.109.02-.232.041-.363.06a7.826,7.826,0,0,1-.973.087h-.094c-1.511,0-2.121-.71-2.121-2.49V459.132ZM392.794,464a5.97,5.97,0,0,1,5.987-5.163,5.686,5.686,0,0,1,5.9,5.163Zm14.986,3.061h.433l.027-.432c0-.076.011-.2.019-.354.005-.12.01-.236.013-.347s.005-.229.005-.324c0-5.786-3.832-10.05-9.5-10.05s-9.681,4.538-9.681,10.271c0,5.9,3.845,10.308,9.717,10.308a9.224,9.224,0,0,0,9.107-6.631l.185-.6h-3.68l-.109.307a5.613,5.613,0,0,1-5.466,3.639c-3.384,0-5.743-2.324-6.168-5.79ZM374.7,447.571v-.461h-3.54v28.581h3.54V470.3l3.727-3.629,6.656,8.838.138.184h4.4l-.561-.739-8.128-10.706,7.5-7.461.792-.788H384.41l-.136.136-9.575,9.643V447.571Zm-24.4,19.7-.032-.427h-3.563l.02.48c.219,5.347,3.824,8.888,10.234,8.888,6.114,0,10.271-3.176,10.271-7.984a6.552,6.552,0,0,0-2.621-5.7,13.886,13.886,0,0,0-5.524-2.08l-.577-.123-.571-.119c-4.761-1-6.27-1.865-6.27-4.447,0-2.67,2.183-4.37,5.845-4.37,3.563,0,5.815,2.176,5.919,5.6l.014.447h3.537l-.011-.472c-.124-5.339-3.706-8.933-9.5-8.933-5.675,0-9.423,3.415-9.423,7.837a6.326,6.326,0,0,0,2.623,5.6,13.863,13.863,0,0,0,5.51,1.947l.412.083.41.081a14.55,14.55,0,0,1,4.675,1.4,3.594,3.594,0,0,1,1.9,3.42c0,2.83-2.38,4.444-6.546,4.444C353.045,472.852,350.57,470.852,350.3,467.267Z" transform="translate(-346.707 -447.11)" fill="#b7b7b7"/>
    </clipPath>
    <clipPath id="clip-path-8">
      <path id="Trazado_4466" data-name="Trazado 4466" d="M27.877,418.422l11.854-1.243,11.854,1.243,9.177,12.22L39.731,454.937,18.7,430.642Z" transform="translate(-18.7 -417.179)" fill="#b7b7b7"/>
    </clipPath>
    <clipPath id="clip-path-9">
      <path id="Trazado_4467" data-name="Trazado 4467" d="M27.219,501l12.513,24.294L18.7,501Z" transform="translate(-18.7 -501)" fill="#b7b7b7"/>
    </clipPath>
    <clipPath id="clip-path-10">
      <path id="Trazado_4468" data-name="Trazado 4468" d="M162.151,501l-12.513,24.294L170.669,501Z" transform="translate(-149.638 -501)" fill="#b7b7b7"/>
    </clipPath>
    <clipPath id="clip-path-11">
      <path id="Trazado_4469" data-name="Trazado 4469" d="M71.736,501H96.762L84.249,525.294Z" transform="translate(-71.736 -501)" fill="#b7b7b7"/>
    </clipPath>
    <clipPath id="clip-path-12">
      <path id="Trazado_4470" data-name="Trazado 4470" d="M84.249,417.179l-11.854,1.243-.659,12.22Z" transform="translate(-71.736 -417.179)" fill="#b7b7b7"/>
    </clipPath>
    <clipPath id="clip-path-13">
      <path id="Trazado_4471" data-name="Trazado 4471" d="M149.638,417.179l11.854,1.243.659,12.22Z" transform="translate(-149.638 -417.179)" fill="#b7b7b7"/>
    </clipPath>
    <clipPath id="clip-path-14">
      <path id="Trazado_4472" data-name="Trazado 4472" d="M232.616,437.139l-9.177-12.22.659,12.22Z" transform="translate(-223.439 -424.919)" fill="#b7b7b7"/>
    </clipPath>
    <clipPath id="clip-path-15">
      <path id="Trazado_4473" data-name="Trazado 4473" d="M84.249,417.179,71.736,430.642H96.762Z" transform="translate(-71.736 -417.179)" fill="#b7b7b7"/>
    </clipPath>
    <filter id="Trazado_4483">
      <feOffset input="SourceAlpha"/>
      <feGaussianBlur stdDeviation="17.5" result="blur"/>
      <feFlood flood-opacity="0.059" result="color"/>
      <feComposite operator="out" in="SourceGraphic" in2="blur"/>
      <feComposite operator="in" in="color"/>
      <feComposite operator="in" in2="SourceGraphic"/>
    </filter>
    <filter id="Trazado_4486">
      <feOffset dx="1" dy="-9" input="SourceAlpha"/>
      <feGaussianBlur stdDeviation="3.5" result="blur-2"/>
      <feFlood flood-opacity="0.09" result="color-2"/>
      <feComposite operator="out" in="SourceGraphic" in2="blur-2"/>
      <feComposite operator="in" in="color-2"/>
      <feComposite operator="in" in2="SourceGraphic"/>
    </filter>
    <radialGradient id="radial-gradient" cx="0.5" cy="0.5" r="0.5" gradientTransform="matrix(0, -1, -0.852, 0, -17.497, -17.849)" gradientUnits="objectBoundingBox">
      <stop offset="0" stop-color="#b8b8b8" stop-opacity="0.498"/>
      <stop offset="1" stop-color="#7f7f7f" stop-opacity="0"/>
    </radialGradient>
  </defs>
  <g id="Grupo_1552" data-name="Grupo 1552" transform="translate(-146 -9229.528)">
    <g id="Javascript_logo" data-name="Javascript logo" transform="translate(146 9231.327)">
      <path id="Trazado_4367" data-name="Trazado 4367" d="M0,0H165.942V165.942H0Z" fill="#b7b7b7"/>
      <path id="Trazado_4368" data-name="Trazado 4368" d="M67.312,180.019l12.7-7.685c2.45,4.344,4.678,8.019,10.024,8.019,5.124,0,8.355-2,8.355-9.8V117.529h15.595v53.243c0,16.151-9.468,23.5-23.281,23.5-12.475,0-19.716-6.461-23.392-14.258" transform="translate(-23.679 -41.345)" fill="#ebebeb"/>
      <path id="Trazado_4369" data-name="Trazado 4369" d="M152.381,177.863l12.7-7.351c3.343,5.459,7.687,9.468,15.372,9.468,6.462,0,10.582-3.231,10.582-7.687,0-5.346-4.233-7.24-11.362-10.358l-3.9-1.672c-11.251-4.789-18.715-10.8-18.715-23.5,0-11.7,8.912-20.608,22.836-20.608,9.914,0,17.043,3.454,22.166,12.476l-12.142,7.8c-2.674-4.79-5.569-6.683-10.025-6.683-4.567,0-7.464,2.9-7.464,6.683,0,4.678,2.9,6.572,9.579,9.469l3.9,1.67c13.255,5.682,20.719,11.473,20.719,24.5,0,14.036-11.027,21.722-25.842,21.722-14.48,0-23.837-6.906-28.4-15.929" transform="translate(-53.606 -40.861)" fill="#ebebeb"/>
    </g>
    <g id="Grupo_1498" data-name="Grupo 1498" transform="translate(412 9230)">
      <path id="Trazado_4370" data-name="Trazado 4370" d="M1874.288,1462.8l-59.568-16.536-13.275-148.889h145.864l-13.288,148.866-59.733,16.56Z" transform="translate(-1801.445 -1297.373)" fill="#b7b7b7"/>
      <path id="Trazado_4371" data-name="Trazado 4371" d="M2023.473,1453.59l11.355-127.213h-59.623v140.594l48.268-13.381Z" transform="translate(-1902.274 -1314.203)" fill="#ececec"/>
      <path id="Trazado_4372" data-name="Trazado 4372" d="M1873.948,1457.941l1.637,18.261h40.865v-18.261Z" transform="translate(-1843.517 -1390.546)" fill="#ebebeb"/>
      <path id="Trazado_4373" data-name="Trazado 4373" d="M1866.113,1369.884l1.66,18.261h44.13v-18.261Z" transform="translate(-1838.97 -1339.449)" fill="#ebebeb"/>
      <path id="Trazado_4374" data-name="Trazado 4374" d="M1919.84,1543.234l-.08.021-20.337-5.492-1.3-14.564h-18.331l2.558,28.672,37.405,10.384.085-.024v-19Z" transform="translate(-1846.908 -1428.414)" fill="#ebebeb"/>
      <path id="Trazado_4375" data-name="Trazado 4375" d="M2017.5,1406.844l3.3-36.96h-45.743v18.261h25.731l-1.661,18.7h-24.07V1425.1h22.486l-2.12,23.683-20.367,5.5v19l37.436-10.375.274-3.085,4.291-48.074.445-4.9Z" transform="translate(-1902.186 -1339.449)" fill="#fff"/>
    </g>
    <g id="Grupo_1499" data-name="Grupo 1499" transform="translate(657.922 9230)">
      <path id="Trazado_4376" data-name="Trazado 4376" d="M1372.1,1324.045l76.756-27.348,78.823,26.862-12.762,101.552-66.061,36.586-65.027-36.1Z" transform="translate(-1372.1 -1296.697)" fill="#ececec"/>
      <path id="Trazado_4377" data-name="Trazado 4377" d="M1634.582,1323.559l-78.823-26.862v165l66.061-36.525,12.762-101.613Z" transform="translate(-1479.002 -1296.697)" fill="#b7b7b7"/>
      <path id="Trazado_4378" data-name="Trazado 4378" d="M1489.437,1342.794h0l-47.829,106.414,17.867-.3,9.6-24.005h42.906l10.514,24.309,17.078.3-50.138-106.718Zm.121,34.094,16.166,33.79h-30.386l14.221-33.79Z" transform="translate(-1412.559 -1323.529)" fill="#fff"/>
    </g>
    <g id="Guides_to_delete" data-name="Guides to delete" transform="translate(1184.876 9230)">
      <g id="Grupo_1501" data-name="Grupo 1501" transform="translate(0 0)">
        <path id="Trazado_4379" data-name="Trazado 4379" d="M574.558,1444.232l-13.117-147.126H705.5l-13.132,147.138-58.934,16.337Z" transform="translate(-561.441 -1297.105)" fill="#b7b7b7"/>
        <path id="Trazado_4380" data-name="Trazado 4380" d="M735.22,1326.119V1465.07l47.655-13.21L794.1,1326.119Z" transform="translate(-663.189 -1314.093)" fill="#ececec"/>
        <path id="Trazado_4381" data-name="Trazado 4381" d="M626.186,1369.657l4.864,54.568h62.544l-2.1,23.405-20.138,5.445-20.1-5.437-1.344-15.028H631.8l2.59,28.971,36.962,10.265,37.009-10.265,4.962-55.4H647.554L645.9,1387.7h69.056l1.616-18.046Z" transform="translate(-599.349 -1339.585)" fill="#fff"/>
        <g id="Grupo_1500" data-name="Grupo 1500" transform="translate(26.837 30.072)">
          <path id="Trazado_4382" data-name="Trazado 4382" d="M671.38,1369.657H626.186l4.864,54.568H671.38v-18.043H647.554L645.9,1387.7H671.38Z" transform="translate(-626.186 -1369.657)" fill="#ebebeb"/>
          <path id="Trazado_4383" data-name="Trazado 4383" d="M679.312,1541.993l-.023.007-20.1-5.436-1.344-15.028H639.732l2.59,28.97,36.962,10.266.028-.008Z" transform="translate(-634.117 -1458.583)" fill="#ebebeb"/>
        </g>
      </g>
    </g>
    <g id="Cordova_logo" data-name="Cordova logo" transform="translate(913.56 9230)">
      <path id="Trazado_4384" data-name="Trazado 4384" d="M155.69,163.475H127.958l1.946-23.353H116.281l-1.946,23.353H56.924l-1.946-23.353H41.355L43.3,163.475H15.569L0,62.276,38.922,0h93.414l38.923,62.276ZM124.552,31.138H99.53L101.2,42.815H70.06l1.668-11.677H46.707L31.138,62.276l7.784,62.276h93.414l7.785-62.276Zm-13.623,72.746c-2.149,0-3.892-6.482-3.892-14.479s1.743-14.479,3.892-14.479,3.892,6.482,3.892,14.479S113.078,103.884,110.929,103.884Zm-49.139,1.207c-2.15,0-3.892-6.482-3.892-14.479s1.743-14.479,3.892-14.479,3.892,6.482,3.892,14.479S63.939,105.091,61.789,105.091Z" fill="#b7b7b7"/>
    </g>
    <g id="Codeigniter_logo" data-name="Codeigniter logo" transform="translate(1428.996 9230)">
      <path id="Trazado_4385" data-name="Trazado 4385" d="M7.064,154.876c-2.805,0-3.621-1.633-3.621-4.081a21.763,21.763,0,0,1,.229-2.705c.614-4.232,2.114-6.654,5.735-6.654,2.449,0,3.643,1.1,3.643,3.085v.969H15.48c.027,0,.027-.893.027-1.1,0-2.907-1.76-5.663-6.1-5.663-5.892,0-8.314,3.2-9.207,9.475a16.128,16.128,0,0,0-.2,2.467c0,3.7,1.455,7.062,6.657,7.062a8.32,8.32,0,0,0,7.677-4.3l-2.321-1.563c-1.5,2.372-3.137,3-4.948,3ZM23,143.2c-4.719,0-6.758,2.421-7.446,7.241a12.58,12.58,0,0,0-.129,1.684c0,3.111,1.453,5.586,5.482,5.586,4.719,0,6.785-2.525,7.474-7.27a13.826,13.826,0,0,0,.127-1.733c0-3.162-1.5-5.508-5.508-5.508Zm1.963,7.242c-.51,3.495-1.606,4.565-3.673,4.565-1.656,0-2.472-.688-2.472-2.755a12.743,12.743,0,0,1,.154-1.811c.51-3.468,1.53-4.538,3.621-4.538,1.684,0,2.524.688,2.524,2.779a11.8,11.8,0,0,1-.154,1.76Zm15.407-11.453-.79,4.682c-.051.407-.025.272.129.654a5.626,5.626,0,0,0-2.959-.932c-4.234,0-6.6,1.916-7.37,7.272a10.461,10.461,0,0,0-.127,1.709c0,3.9,2.3,5.358,5.38,5.358,1.3,0,2.576.027,3.57-.813l.254,1.586H40.91l2.856-19.517Zm-2.423,15.278A5.853,5.853,0,0,1,35,155.1c-1.862,0-2.372-.97-2.372-2.524a15.356,15.356,0,0,1,.18-2.016c.586-4.054,1.887-4.77,3.57-4.77a5.393,5.393,0,0,1,2.729.614l-1.15,7.854ZM51.214,143.2c-4.668,0-6.86,2.217-7.6,7.241a14.038,14.038,0,0,0-.129,1.761c0,3.443,1.76,5.509,5.635,5.509,3.01,0,5.255-1.251,6.454-3.546L53,153.114A3.831,3.831,0,0,1,49.5,155c-1.887,0-2.652-.507-2.652-2.191a2.507,2.507,0,0,1,.077-.815h9.205c.129-1.3.28-2.221.28-2.984,0-2.549-.968-5.816-5.2-5.816Zm1.759,6.2H47.363c.562-1.3,1.5-3.315,3.443-3.315a2.079,2.079,0,0,1,2.244,2.384,3.923,3.923,0,0,1-.077.931Zm13.256-6.506.306-2.6H59.342l-.3,2.6h1.887L58.886,155.9H57l-.3,2.6h7.191l.307-2.6H62.3l2.039-13.011Zm14.615,3.9.919-2.6H79.289l-1.784.368a7.061,7.061,0,0,0-3.621-1.114c-3.648,0-6.758,1.762-6.758,5.766a4.259,4.259,0,0,0,.891,2.643,2.374,2.374,0,0,0-1.427,2.009,1.924,1.924,0,0,0,.459,1.206,4.876,4.876,0,0,0-2.472,4.227c0,3.444,3.6,4.179,6.349,4.179,3.468,0,7.6-.792,7.6-5.2,0-1.5-.943-2.679-3.672-3.189l-4.922-.92c-.561-.1-.688-.281-.688-.536a.545.545,0,0,1,.612-.585l.332.051a10.08,10.08,0,0,0,2.218.23c3.546,0,6.708-1.531,6.708-5.509a3.613,3.613,0,0,0-.356-1.555,5.57,5.57,0,0,0,1.223.536h.863Zm-7.012,10.556c.968.18,1.3.536,1.3,1.174,0,2.066-2.218,2.321-3.824,2.321-2.448,0-3.366-.585-3.366-1.888a3.132,3.132,0,0,1,1.1-2.5l4.794.893Zm-1.047-6.68c-1.479,0-2.3-.535-2.3-1.811a2.732,2.732,0,0,1,3.01-2.984c1.53,0,2.271.638,2.271,1.886a2.659,2.659,0,0,1-2.985,2.909ZM89.9,143.2c-1.429,0-2.7.7-4.284,1.949l-.229-.955H82.583L80.62,158.5h3.392l1.48-10.854c1-.612,2.218-1.5,3.264-1.5,1.274,0,1.735.615,1.735,1.788a13.663,13.663,0,0,1-.078,1.418L89.164,158.5h3.392l1.248-9.223c.052-.432.1-1.142.1-1.549,0-2.425-1.148-4.535-4-4.535Zm10.447,11.721.026-.35,1.478-10.376H96.218l-.355,2.6h2.472c-.2,0-.332.228-.356.433l-1.02,6.91a11.978,11.978,0,0,0-.075,1.3,2.762,2.762,0,0,0,2.956,3.063h1.735l.383-2.6h-1.1c-.384,0-.51-.678-.51-.983Zm2.192-15.931H99.227c-.2,0-.2-.751-.229-.5l-.46,3.666c-.026.231-.026.733.178.733h3.317c.2,0,.2-.891.229-1.123l.46-2.83c.026-.255.026.05-.18.05ZM109.459,155c-.84,0-1.249-.357-1.249-1.121l.026-.052,1.071-7.038h3.876l1.172-2.6h-4.692l.79-5.726-3.569,1.141-.639,4.585h-2.065l-.356,2.6h2.4c-.229,1.3-.459.457-.484.713l-.919,6.171a3.766,3.766,0,0,0-.051.739c0,2.423,1.785,3.33,3.929,3.33a7.306,7.306,0,0,0,4.846-1.628l-1.582-1.946a4.094,4.094,0,0,1-2.5.832ZM121.9,143.2c-4.667,0-6.86,2.217-7.6,7.241a14.314,14.314,0,0,0-.128,1.761c0,3.443,1.759,5.509,5.635,5.509,3.01,0,5.255-1.251,6.453-3.546l-2.575-1.046A3.833,3.833,0,0,1,120.2,155c-1.886,0-2.652-.507-2.652-2.191a2.477,2.477,0,0,1,.078-.815h9.206c.127-1.3.281-2.221.281-2.984,0-2.549-.969-5.816-5.2-5.816Zm1.761,6.2h-5.611c.561-1.3,1.5-3.315,3.443-3.315a2.079,2.079,0,0,1,2.245,2.384,4.011,4.011,0,0,1-.077.931Zm12.828-6.2a5.312,5.312,0,0,0-3.52,1.8l-.2-.8h-2.8L128,158.5h3.418l1.5-11.083a5.931,5.931,0,0,1,2.882-.991,13.6,13.6,0,0,1,1.759-.021l.436-2.957a8.144,8.144,0,0,0-1.507-.254ZM49.886,128.734c-7.72-3.336-14.944-11.817-14.96-20.495C34.9,98.778,40.9,90.746,48.357,85.468c-.9,3.387-1.386,6.485.835,9.514a8.994,8.994,0,0,0,9.1,3.443C66.266,96.679,66.631,87.908,61.9,82.8c-4.676-5.06-9.2-10.776-7.42-18.114A18.871,18.871,0,0,1,60.493,55.1c-2.2,5.78,4.051,11.48,8.168,14.319,7.143,4.926,14.98,8.649,21.548,14.423,6.909,6.069,12.011,14.275,10.98,23.792-1.116,10.316-9.313,17.49-18.508,21.112,19.429-4.288,39.5-19.367,39.915-40.915.341-17.727-11.82-31.369-26.884-39.18l-.788-.429a6.407,6.407,0,0,1,.534,2.62,9.122,9.122,0,0,0,.252-1.74,8.462,8.462,0,0,1-.276,2.1l.024-.363A8.83,8.83,0,0,1,94.344,53.5l.222-.238c-3.006,4.985-11.142,6.067-15.161.906-6.461-8.3.135-17.255,1.058-26.046C81.618,17.1,74.708,6.4,66.139,0c4.719,7.634-1.5,17.733-6.471,23.379C54.844,28.853,48.979,33.422,43.654,38.4A133.46,133.46,0,0,0,27.735,55.631c-9.4,12.547-15.158,28.327-10.928,43.981s17.777,25.6,33.079,29.121Z" transform="translate(0 0)" fill="#b7b7b7"/>
    </g>
    <g id="Grupo_1502" data-name="Grupo 1502" transform="translate(1667.053 9263.428)">
      <path id="Trazado_4386" data-name="Trazado 4386" d="M3200.006,1531.269h-6.4q-.339-16.21-1.87-30.49h-.056l-9.749,30.49h-4.875l-9.689-30.49h-.057q-1.078,13.715-1.359,30.49h-5.838q.565-20.4,2.833-38.255h7.936l9.238,28.109h.057l9.295-28.109h7.593q2.495,20.91,2.946,38.255" transform="translate(-3160.11 -1428.601)" fill="#b7b7b7"/>
      <path id="Trazado_4387" data-name="Trazado 4387" d="M3278.734,1515.072q-3.911,21.22-10.315,30.841-4.99,7.413-10.937,7.413a10.772,10.772,0,0,1-3.909-.952v-3.41a18.515,18.515,0,0,0,2.664.17,6.44,6.44,0,0,0,4.478-1.533,5.588,5.588,0,0,0,2.039-4.192,27.957,27.957,0,0,0-1.587-6.516l-7.027-21.82h6.291l5.043,16.319q1.7,5.558,1.417,7.767a106.524,106.524,0,0,0,5.781-24.086Z" transform="translate(-3211.068 -1440.628)" fill="#b7b7b7"/>
      <path id="Trazado_4388" data-name="Trazado 4388" d="M3474.511,1531.269H3456.32v-38.255h6.121v33.549h12.07Z" transform="translate(-3321.612 -1428.601)" fill="#b7b7b7"/>
      <path id="Trazado_4389" data-name="Trazado 4389" d="M3408.009,1531.511l-7.032-3.467a13.224,13.224,0,0,0,1.76-1.71q4.476-5.264,4.478-15.582,0-18.983-14.9-18.987-7.311,0-11.392,4.82-4.478,5.27-4.477,15.527,0,10.088,3.966,14.792,3.627,4.249,10.94,4.251a17.645,17.645,0,0,0,5.008-.672l9.157,5.329Zm-22.782-8.576q-2.325-3.739-2.325-12.012,0-14.45,8.784-14.453a7.375,7.375,0,0,1,6.745,3.456q2.321,3.743,2.324,11.9,0,14.565-8.785,14.567a7.363,7.363,0,0,1-6.743-3.459" transform="translate(-3278.059 -1427.92)" fill="#b7b7b7" fill-rule="evenodd"/>
      <path id="Trazado_4390" data-name="Trazado 4390" d="M3341.773,1520.052a10.154,10.154,0,0,1-3.569,7.992q-3.566,3.112-9.573,3.115a19.2,19.2,0,0,1-10.881-3.572l1.643-3.286a18.65,18.65,0,0,0,8.215,2.265,8.619,8.619,0,0,0,5.411-1.526,5.21,5.21,0,0,0,2.083-4.249c0-2.272-1.585-4.214-4.491-5.842-2.684-1.473-8.046-4.547-8.046-4.547-2.906-2.119-4.362-4.394-4.362-8.141a9.518,9.518,0,0,1,3.255-7.509,12.29,12.29,0,0,1,8.417-2.865,17.424,17.424,0,0,1,9.689,2.837l-1.478,3.283a18.769,18.769,0,0,0-7.362-1.584,6.562,6.562,0,0,0-4.531,1.419,4.737,4.737,0,0,0-1.716,3.625c0,2.266,1.618,4.231,4.606,5.891,2.718,1.473,8.211,4.607,8.211,4.607,2.989,2.116,4.478,4.371,4.478,8.087" transform="translate(-3246.06 -1427.987)" fill="#b7b7b7"/>
      <path id="Trazado_4391" data-name="Trazado 4391" d="M3438.162,1402.974a21.389,21.389,0,0,0-8.969,1.294c-.693.277-1.8.277-1.9,1.156.373.369.417.969.742,1.48a10.788,10.788,0,0,0,2.4,2.819c.97.74,1.942,1.477,2.959,2.124,1.8,1.114,3.836,1.758,5.589,2.868,1.021.646,2.034,1.478,3.055,2.173.506.369.828.971,1.477,1.2v-.14c-.326-.415-.417-1.016-.738-1.481-.462-.459-.925-.878-1.388-1.338a22.037,22.037,0,0,0-4.806-4.667c-1.481-1.02-4.718-2.407-5.316-4.112l-.094-.095a18.579,18.579,0,0,0,3.19-.745c1.57-.414,3-.321,4.619-.735.741-.186,1.48-.419,2.223-.647v-.418c-.836-.83-1.434-1.942-2.312-2.727a61.918,61.918,0,0,0-7.627-5.685c-1.435-.925-3.284-1.523-4.81-2.311-.551-.277-1.475-.415-1.8-.88a18.52,18.52,0,0,1-1.9-3.559c-1.339-2.54-2.636-5.358-3.79-8.043a49.359,49.359,0,0,0-2.356-5.268c-4.764-7.859-9.939-12.618-17.89-17.287a22.135,22.135,0,0,0-5.914-1.9c-1.157-.049-2.312-.138-3.467-.184a18.373,18.373,0,0,1-2.128-1.619c-2.635-1.663-9.427-5.268-11.369-.508-1.249,3.006,1.849,5.963,2.912,7.489a21.621,21.621,0,0,1,2.355,3.466c.324.786.416,1.619.742,2.45a55.063,55.063,0,0,0,2.4,6.2,21.749,21.749,0,0,0,1.708,2.863c.373.512,1.018.74,1.157,1.574-.645.923-.7,2.31-1.065,3.467-1.663,5.223-1.016,11.694,1.342,15.53.737,1.155,2.5,3.7,4.855,2.725,2.079-.83,1.617-3.465,2.218-5.775.138-.559.046-.925.323-1.295v.094c.646,1.292,1.3,2.537,1.9,3.836a26.387,26.387,0,0,0,6.01,6.191c1.106.835,1.985,2.265,3.372,2.775v-.14h-.092a5.122,5.122,0,0,0-1.063-.923,22.752,22.752,0,0,1-2.4-2.774,59.267,59.267,0,0,1-5.176-8.412c-.741-1.436-1.387-3.006-1.988-4.439-.277-.552-.277-1.386-.74-1.663a17.349,17.349,0,0,0-2.217,3.14c-.879,1.99-.971,4.44-1.3,6.982-.184.048-.092,0-.184.092-1.478-.37-1.986-1.894-2.542-3.185a20,20,0,0,1-.416-12.345c.323-.969,1.713-4.019,1.156-4.944-.278-.882-1.2-1.385-1.71-2.082a18.3,18.3,0,0,1-1.663-2.958c-1.11-2.588-1.667-5.454-2.865-8.042a24.791,24.791,0,0,0-2.311-3.559,22.811,22.811,0,0,1-2.544-3.6c-.229-.51-.554-1.342-.185-1.9a.741.741,0,0,1,.649-.6c.6-.508,2.31.138,2.91.416a23.528,23.528,0,0,1,4.576,2.311c.648.464,1.341,1.341,2.171,1.574h.973c1.479.322,3.145.09,4.531.508a29.576,29.576,0,0,1,6.656,3.189,41.02,41.02,0,0,1,14.418,15.809c.555,1.061.79,2.033,1.3,3.14.971,2.27,2.175,4.58,3.143,6.8a30.366,30.366,0,0,0,3.284,6.194c.691.97,3.467,1.478,4.714,1.987a33.031,33.031,0,0,1,3.19,1.292c1.572.969,3.14,2.08,4.622,3.145.738.555,3.049,1.709,3.189,2.635" transform="translate(-3277.581 -1351.376)" fill="#b7b7b7" fill-rule="evenodd"/>
      <path id="Trazado_4392" data-name="Trazado 4392" d="M3407.267,1376.509a7.391,7.391,0,0,0-1.9.232v.093h.09a15.6,15.6,0,0,0,1.48,1.9c.373.74.7,1.476,1.065,2.217.046-.045.09-.093.09-.093a2.6,2.6,0,0,0,.974-2.311,10.724,10.724,0,0,1-.555-.971c-.277-.462-.879-.693-1.249-1.063" transform="translate(-3293.834 -1365.079)" fill="#b7b7b7" fill-rule="evenodd"/>
      <path id="Trazado_4393" data-name="Trazado 4393" d="M3511.992,1571.5h.956v-4.687h-1.437l-1.17,3.195-1.274-3.195h-1.386v4.687h.9v-3.567h.052l1.334,3.567h.69l1.331-3.567Zm-7.718,0h1.014v-3.892h1.328v-.8h-3.72v.8h1.379Z" transform="translate(-3347.006 -1468.841)" fill="#b7b7b7"/>
    </g>
    <g id="Flutter_logo" data-name="Flutter logo" transform="translate(2199.766 9282.49)">
      <g id="Grupo_1513" data-name="Grupo 1513" transform="translate(0 0)">
        <g id="Grupo_1504" data-name="Grupo 1504" transform="translate(0 0)">
          <g id="Grupo_1503" data-name="Grupo 1503" clip-path="url(#clip-path)">
            <path id="Trazado_4394" data-name="Trazado 4394" d="M23.215,44.805,48.6,19.41H30.143L13.987,35.572Z" transform="translate(-0.137 8.285)" fill="#b7b7b7"/>
          </g>
        </g>
        <g id="Grupo_1506" data-name="Grupo 1506" transform="translate(0 0)">
          <g id="Grupo_1505" data-name="Grupo 1505" clip-path="url(#clip-path)">
            <path id="Trazado_4396" data-name="Trazado 4396" d="M4.682,30.81,34.688.8H53.149L13.915,40.043Z" transform="translate(-4.682 -0.804)" fill="#b7b7b7"/>
          </g>
        </g>
        <g id="Grupo_1508" data-name="Grupo 1508" transform="translate(0 0)">
          <g id="Grupo_1507" data-name="Grupo 1507" clip-path="url(#clip-path)">
            <path id="Trazado_4398" data-name="Trazado 4398" d="M27.114,46.424H45.576L29.42,30.268,20.186,39.5Z" transform="translate(2.892 13.589)" fill="#b7b7b7"/>
          </g>
        </g>
        <g id="Grupo_1510" data-name="Grupo 1510" transform="translate(0 0)">
          <g id="Grupo_1509" data-name="Grupo 1509" clip-path="url(#clip-path)">
            <path id="Trazado_4400" data-name="Trazado 4400" d="M29.42,30.268,20.186,39.5l13.694-4.744Z" transform="translate(2.892 13.589)" fill="#b7b7b7"/>
          </g>
        </g>
        <g id="Grupo_1512" data-name="Grupo 1512" transform="translate(0 0)">
          <g id="Grupo_1511" data-name="Grupo 1511" clip-path="url(#clip-path)">
            <path id="Trazado_4402" data-name="Trazado 4402" d="M13.987,33.294l9.234-9.234,9.234,9.234L23.22,42.534Z" transform="translate(-0.137 10.557)" fill="#b7b7b7"/>
          </g>
        </g>
        <path id="Trazado_4404" data-name="Trazado 4404" d="M53.149,28.5,36.993,44.66,53.149,60.822H34.688L27.76,53.894,18.526,44.66,34.688,28.5ZM34.688.8,4.682,30.81l9.234,9.234L53.149.8H34.688Z" transform="translate(-4.682 -0.804)" fill="#b7b7b7"/>
      </g>
      <g id="Grupo_1514" data-name="Grupo 1514" transform="translate(54.312 16.087)">
        <path id="Trazado_4405" data-name="Trazado 4405" d="M42.549,20.809h16.18v3.082H45.939v9.554H57.5v3.082H45.939V48.546H42.7V20.809Z" transform="translate(-42.549 -20.809)" fill="#b7b7b7"/>
        <path id="Trazado_4406" data-name="Trazado 4406" d="M56.008,20.809h3.236V48.7H56.008Z" transform="translate(-35.975 -20.809)" fill="#b7b7b7"/>
        <path id="Trazado_4407" data-name="Trazado 4407" d="M68.787,46.687a7.3,7.3,0,0,1-5.547-2.157,8.608,8.608,0,0,1-1.849-5.856V26.192h3.236V38.211a6.377,6.377,0,0,0,1.233,4.161A4.642,4.642,0,0,0,69.4,43.759a4.742,4.742,0,0,0,2.928-.925,5.76,5.76,0,0,0,2-2.311,7.014,7.014,0,0,0,.77-3.082V26.192h3.236V46.07H75.259V43.142h-.154a6.774,6.774,0,0,1-2.62,2.466A6.143,6.143,0,0,1,68.787,46.687Z" transform="translate(-33.346 -18.179)" fill="#b7b7b7"/>
        <path id="Trazado_4408" data-name="Trazado 4408" d="M84.509,48.2a6.183,6.183,0,0,1-2.311-.462,6.363,6.363,0,0,1-1.7-1.079,6.842,6.842,0,0,1-1.233-1.7,5.146,5.146,0,0,1-.462-2.311V30.94H75.263V28.013h3.544V22.465h3.236v5.547H86.82V30.94H82.044V41.727a3.91,3.91,0,0,0,.616,2.466,2.586,2.586,0,0,0,2.157.925,3.538,3.538,0,0,0,2.157-.616v3.236c-.462.154-.77.308-1.233.462Z" transform="translate(-26.57 -20)" fill="#b7b7b7"/>
        <path id="Trazado_4409" data-name="Trazado 4409" d="M93.829,48.2a6.183,6.183,0,0,1-2.311-.462,6.362,6.362,0,0,1-1.7-1.079,6.841,6.841,0,0,1-1.233-1.7,5.146,5.146,0,0,1-.462-2.311V30.94H84.891V28.013h3.544V22.465h3.236v5.547h4.777V30.94H91.671V41.727a3.91,3.91,0,0,0,.616,2.466,2.586,2.586,0,0,0,2.157.925A3.538,3.538,0,0,0,96.6,44.5v3.236c-.462.154-.77.308-1.233.462Z" transform="translate(-21.867 -20)" fill="#b7b7b7"/>
        <path id="Trazado_4410" data-name="Trazado 4410" d="M103.967,46.838a9.7,9.7,0,0,1-5.085-1.387,10.2,10.2,0,0,1-3.544-3.7,12.089,12.089,0,0,1-1.233-5.393,11.918,11.918,0,0,1,1.233-5.239,10.253,10.253,0,0,1,3.39-3.852,9.389,9.389,0,0,1,13.406,3.544,11.427,11.427,0,0,1,1.233,5.239,2.285,2.285,0,0,1-.154,1.079H97.341a9.436,9.436,0,0,0,1.079,3.852,5.878,5.878,0,0,0,2.466,2.311,7.58,7.58,0,0,0,3.082.77,6.459,6.459,0,0,0,5.856-3.544l2.774,1.387a10.65,10.65,0,0,1-3.544,3.852,11.343,11.343,0,0,1-5.085,1.079Zm5.7-12.636a5.115,5.115,0,0,0-.77-2.466,6.578,6.578,0,0,0-2-2.157,5.86,5.86,0,0,0-3.39-.925A5.457,5.457,0,0,0,99.5,30.2,7.743,7.743,0,0,0,97.341,34.2Z" transform="translate(-17.366 -18.331)" fill="#b7b7b7"/>
        <path id="Trazado_4411" data-name="Trazado 4411" d="M109.531,26.344h3.082V29.58h.154a4.765,4.765,0,0,1,2.311-2.62,6,6,0,0,1,3.544-1.079,5.146,5.146,0,0,1,2.311.462v3.544a5.277,5.277,0,0,0-2.774-.616,5.2,5.2,0,0,0-2.62.77,9.006,9.006,0,0,0-2,2.157,6.373,6.373,0,0,0-.77,2.928V46.222h-3.236Z" transform="translate(-9.832 -18.331)" fill="#b7b7b7"/>
      </g>
    </g>
    <g id="Dart_logo" data-name="Dart logo" transform="translate(2468.951 9286.551)">
      <g id="Grupo_1515" data-name="Grupo 1515" transform="translate(78.234 7.476)" opacity="0.54">
        <path id="Trazado_4412" data-name="Trazado 4412" d="M207.08,20.2h10.5a18.944,18.944,0,0,1,9.337,2.211,15.246,15.246,0,0,1,6.127,6.15,18.647,18.647,0,0,1,2.139,9.043,18.647,18.647,0,0,1-2.139,9.043,15.222,15.222,0,0,1-6.127,6.15,18.924,18.924,0,0,1-9.337,2.211h-10.5Zm10.5,30.878q6.176,0,9.8-3.549T231,37.608q0-6.371-3.622-9.92t-9.8-3.55h-6.417V51.074h6.417Z" transform="translate(-207.08 -20.2)" fill="#b7b7b7"/>
        <path id="Trazado_4413" data-name="Trazado 4413" d="M290.232,69.721a8,8,0,0,1-3.305-2.943,7.871,7.871,0,0,1-1.167-4.255,7.234,7.234,0,0,1,2.966-6.15,12.169,12.169,0,0,1,7.488-2.211,16.9,16.9,0,0,1,4.156.488,10.844,10.844,0,0,1,2.943,1.117V54.261a5.582,5.582,0,0,0-1.944-4.449,7.26,7.26,0,0,0-4.911-1.678,8.306,8.306,0,0,0-3.843.9,7.014,7.014,0,0,0-2.772,2.5l-3.111-2.333a9.945,9.945,0,0,1,4.011-3.5,12.592,12.592,0,0,1,5.665-1.266q5.055,0,7.949,2.65a9.311,9.311,0,0,1,2.894,7.221v15.7h-3.938V66.465h-.194a8.853,8.853,0,0,1-3.21,3.061,9.286,9.286,0,0,1-4.815,1.266A10.746,10.746,0,0,1,290.232,69.721Zm9.143-3.645a8.132,8.132,0,0,0,2.867-2.867,7.564,7.564,0,0,0,1.071-3.938,10.222,10.222,0,0,0-2.867-1.266,13.048,13.048,0,0,0-3.6-.488,7.947,7.947,0,0,0-5.128,1.411,4.5,4.5,0,0,0-1.727,3.645,4.055,4.055,0,0,0,1.555,3.305,6.042,6.042,0,0,0,3.938,1.266A7.474,7.474,0,0,0,299.375,66.076Z" transform="translate(-255.763 -35.198)" fill="#b7b7b7"/>
        <path id="Trazado_4414" data-name="Trazado 4414" d="M353.57,35.509h3.938v3.938h.194a6.742,6.742,0,0,1,2.966-3.4,8.946,8.946,0,0,1,4.571-1.216,9.553,9.553,0,0,1,1.8.145V39.2a10.2,10.2,0,0,0-2.238-.194,6.723,6.723,0,0,0-5.128,2.089,7.63,7.63,0,0,0-1.971,5.444V60.3H353.57V35.509ZM379.236,60.2a6.349,6.349,0,0,1-2.165-1.338,6.1,6.1,0,0,1-1.46-2.177,8.267,8.267,0,0,1-.488-3.02v-14.8H370.8V35.12h4.327v-7h4.133v7h6.028v3.744h-6.028V52.681a4.981,4.981,0,0,0,.778,3.081,3.3,3.3,0,0,0,2.673,1.094,5.025,5.025,0,0,0,2.722-.827v4.038a6.562,6.562,0,0,1-1.483.488,10.27,10.27,0,0,1-1.921.145A7.863,7.863,0,0,1,379.236,60.2Z" transform="translate(-297.72 -25.1)" fill="#b7b7b7"/>
      </g>
      <g id="Grupo_1516" data-name="Grupo 1516" transform="translate(0 0)">
        <path id="Trazado_4415" data-name="Trazado 4415" d="M12.464,56.3,3.588,47.428a6.036,6.036,0,0,1-1.708-4.1,6.9,6.9,0,0,1,.682-2.39L10.756,23.87Z" transform="translate(-1.88 -14.994)" fill="#b7b7b7"/>
        <path id="Trazado_4416" data-name="Trazado 4416" d="M57.26,11.174,48.385,2.3A6.125,6.125,0,0,0,44.629.59a6.319,6.319,0,0,0-3.073.682L25.17,9.466Z" transform="translate(-16.291 -0.59)" fill="#b7b7b7"/>
        <path id="Trazado_4417" data-name="Trazado 4417" d="M42.445,113.429h21.51V104.21L47.908,99.09,33.23,104.21Z" transform="translate(-21.278 -61.536)" fill="#b7b7b7"/>
        <path id="Trazado_4418" data-name="Trazado 4418" d="M25.17,51.533c0,2.737.343,3.412,1.708,4.781l1.365,1.365H58.968L43.947,40.61,25.17,23.88Z" transform="translate(-16.291 -15.001)" fill="#b7b7b7"/>
        <path id="Trazado_4419" data-name="Trazado 4419" d="M52.473,23.87H25.16l33.8,33.8h9.219V36.5L57.254,25.578C55.722,24.038,54.357,23.87,52.473,23.87Z" transform="translate(-16.284 -14.994)" fill="#b7b7b7"/>
        <path id="Trazado_4420" data-name="Trazado 4420" d="M27.211,56.647c-1.365-1.373-1.708-2.722-1.708-5.12V24.213l-.343-.343V51.523c0,2.4,0,3.065,2.051,5.124l1.026,1.026h0Z" transform="translate(-16.284 -14.994)" fill="#b7b7b7" opacity="0.2"/>
        <path id="Trazado_4421" data-name="Trazado 4421" d="M122.139,56.11V77.277H112.92l.343.339h9.219V56.453Z" transform="translate(-70.585 -34.943)" fill="#b7b7b7" opacity="0.2"/>
        <path id="Trazado_4422" data-name="Trazado 4422" d="M57.26,25.578c-1.693-1.693-3.081-1.708-5.12-1.708H25.17l.343.343H52.144c1.014,0,3.588-.172,5.116,1.365Z" transform="translate(-16.291 -14.994)" fill="#b7b7b7" opacity="0.2"/>
        <path id="Trazado_4423" data-name="Trazado 4423" d="M53.44,21.757,42.856,11.174,33.98,2.3A6.125,6.125,0,0,0,30.225.59a6.319,6.319,0,0,0-3.073.682L10.766,9.466,2.572,26.534a6.9,6.9,0,0,0-.682,2.39,6.036,6.036,0,0,0,1.708,4.1l8.182,8.121a9.223,9.223,0,0,0,.7.755l.343.343,1.026,1.026,8.876,8.876.343.343h21.51V43.268h9.219V22.1Z" transform="translate(-1.886 -0.59)" fill="#b7b7b7" opacity="0.2"/>
      </g>
    </g>
    <g id="Grupo_1518" data-name="Grupo 1518" transform="translate(2738.664 9258.063)">
      <path id="Trazado_4424" data-name="Trazado 4424" d="M599.291,808.678v-21.59L580.6,776.3l-18.7,10.788v21.59l18.7,10.8Z" transform="translate(-520.411 -751.276)" fill="#b8b8b8"/>
      <path id="Trazado_4425" data-name="Trazado 4425" d="M1830.9,805.4l12.184,7.037-12.184,7.037-18.7-10.795V787.1l18.7-10.8,11.327,6.542a82.677,82.677,0,0,1,2.111,14.8l-6.926,4v-7.517l-6.512-3.758-6.512,3.758v7.517Z" transform="translate(-1678.392 -751.276)" fill="#b8b8b8"/>
      <path id="Trazado_4426" data-name="Trazado 4426" d="M2023.558,1018.091V1013.9l-3.625-2.1-3.633,2.1v4.194l3.633,2.1Z" transform="translate(-1867.422 -969.388)" fill="#b8b8b8"/>
      <path id="Trazado_4427" data-name="Trazado 4427" d="M32.658,787.095v28.464l-12.471-7.111v-14.6l-6.224-3.6-6.224,3.6v14.59L.657,812.48a83.825,83.825,0,0,1,1.5-29.365L13.963,776.3Z" transform="translate(0 -751.276)" fill="#b8b8b8"/>
      <path id="Trazado_4428" data-name="Trazado 4428" d="M580.588,776.2l18.7,32.378-18.7,10.8L561.9,786.995Z" transform="translate(-520.411 -751.184)" fill="#b8b8b8"/>
      <path id="Trazado_4429" data-name="Trazado 4429" d="M561.9,943.99l6.416-10.47L561.9,922.4Z" transform="translate(-520.411 -886.589)" fill="#b8b8b8"/>
      <path id="Trazado_4430" data-name="Trazado 4430" d="M827.556,797.883l6.232-10.8L815.1,776.3Z" transform="translate(-754.915 -751.276)" fill="#b8b8b8"/>
      <path id="Trazado_4431" data-name="Trazado 4431" d="M1209.165,437.4v28.642l-6.269-3.618-18.7,10.795v21.59l18.7,10.795,18.7-10.795V444.053Zm-.037,50.2-6.232,3.6-6.232-3.6V480.41l6.232-3.6,6.232,3.6Z" transform="translate(-1096.763 -437.4)" fill="#b8b8b8"/>
      <g id="Grupo_1517" data-name="Grupo 1517" transform="translate(63.153 64.542)">
        <path id="Trazado_4432" data-name="Trazado 4432" d="M1078.248,1500.095a3.638,3.638,0,0,0-3.744-3.153c-3.374,0-5.686.443-5.686,2.311s6.564,1.868,9.06,2.607,4.7,2.643,3.6,6.018-4.474,3.743-9.687,3.743a6.053,6.053,0,0,1-6.387-6.018h2.939s-.369,2.643,3.079,3.079,6.749.687,7.192-1.979c.591-3.522-11.157-1.765-12.183-5.213-.871-2.917-.369-6.749,5.5-7.34s9.1,2.008,9.1,5.87Z" transform="translate(-1049.887 -1480.587)" fill="#b8b8b8"/>
        <path id="Trazado_4433" data-name="Trazado 4433" d="M855.3,1344.764l6.49,3.744a4.893,4.893,0,0,0,7.339-4.238v-18.651h-2.643v17.913a2.67,2.67,0,0,1-4.009,2.311l-4.526-2.614v-19.117l16.555-9.554,16.554,9.554v19.117l-16.554,9.554-4.77-2.754-3.116,1.255,7.886,4.549,19.2-11.083v-22.166l-19.2-11.083-19.2,11.083Z" transform="translate(-855.3 -1311.5)" fill="#b8b8b8"/>
      </g>
    </g>
    <g id="Grupo_1519" data-name="Grupo 1519" transform="translate(3008.377 9229.528)">
      <path id="Trazado_4434" data-name="Trazado 4434" d="M492.333,381.612h-.625v-.35h1.683v.35h-.621v1.745h-.437Zm3.357.091h-.01l-.62,1.654h-.284l-.615-1.654h-.007v1.654h-.412v-2.094h.606l.571,1.483.568-1.483h.6v2.094h-.4V381.7Z" transform="translate(-406.87 -250.754)" fill="#b8b8b8"/>
      <path id="Trazado_4435" data-name="Trazado 4435" d="M390.208,306.529s-4.349,2.529,3.1,3.385c9.019,1.03,13.629.882,23.568-1a41.072,41.072,0,0,0,6.262,3.057c-22.281,9.55-50.428-.553-32.927-5.443" transform="translate(-360.709 -218.505)" fill="#b8b8b8"/>
      <path id="Trazado_4436" data-name="Trazado 4436" d="M384.921,284.608s-4.878,3.611,2.572,4.382c9.635.994,17.244,1.076,30.41-1.46a13.5,13.5,0,0,0,4.685,2.855c-26.941,7.878-56.947.622-37.667-5.777" transform="translate(-358.146 -209.046)" fill="#b8b8b8"/>
      <path id="Trazado_4437" data-name="Trazado 4437" d="M426.126,223.758c5.49,6.321-1.442,12.009-1.442,12.009s13.941-7.2,7.539-16.208c-5.98-8.4-10.565-12.58,14.259-26.976,0,0-38.966,9.732-20.355,31.176" transform="translate(-376.397 -169.334)" fill="#b8b8b8"/>
      <path id="Trazado_4438" data-name="Trazado 4438" d="M423.539,322.013s3.218,2.652-3.545,4.7c-12.861,3.9-53.53,5.073-64.828.155-4.061-1.766,3.555-4.219,5.95-4.733a15.441,15.441,0,0,1,3.926-.441c-4.517-3.181-29.193,6.247-12.534,8.948,45.43,7.368,82.814-3.318,71.03-8.633" transform="translate(-344.34 -224.771)" fill="#b8b8b8"/>
      <path id="Trazado_4439" data-name="Trazado 4439" d="M382.869,261.881s-20.687,4.914-7.326,6.7c5.642.755,16.887.585,27.363-.293,8.561-.723,17.158-2.258,17.158-2.258a36.323,36.323,0,0,0-5.2,2.784c-21.007,5.526-61.589,2.955-49.906-2.7,9.881-4.776,17.914-4.235,17.914-4.235" transform="translate(-351.279 -199.23)" fill="#b8b8b8"/>
      <path id="Trazado_4440" data-name="Trazado 4440" d="M462.993,281.8c21.355-11.1,11.482-21.761,4.59-20.324a15.965,15.965,0,0,0-2.442.656,3.891,3.891,0,0,1,1.825-1.408c13.633-4.793,24.118,14.137-4.4,21.634a1.846,1.846,0,0,0,.429-.559" transform="translate(-394.294 -198.41)" fill="#b8b8b8"/>
      <path id="Trazado_4441" data-name="Trazado 4441" d="M420.7,151.687s11.827,11.831-11.218,30.022c-18.478,14.593-4.213,22.914-.007,32.421-10.787-9.732-18.7-18.3-13.392-26.272,7.794-11.7,29.387-17.379,24.616-36.171" transform="translate(-364.875 -151.687)" fill="#b8b8b8"/>
      <path id="Trazado_4442" data-name="Trazado 4442" d="M389.516,343.364c20.5,1.313,51.975-.728,52.72-10.426,0,0-1.433,3.676-16.941,6.6-17.5,3.293-39.073,2.908-51.871.8,0,0,2.62,2.169,16.091,3.032" transform="translate(-355.828 -229.901)" fill="#b8b8b8"/>
      <path id="Trazado_4443" data-name="Trazado 4443" d="M384.3,400.9a9.3,9.3,0,0,1-5.809,2.618c-2.616,0-4.029-1.569-4.029-4.085,0-2.722,1.514-4.712,7.589-4.712H384.3V400.9m5.336,6.019V388.283c0-4.761-2.714-7.9-9.261-7.9a24.4,24.4,0,0,0-9.89,2.147l.786,3.3a22.99,22.99,0,0,1,7.637-1.518c3.771,0,5.393,1.518,5.393,4.656v2.356h-1.882c-9.163,0-13.3,3.557-13.3,8.894,0,4.608,2.724,7.226,7.852,7.226a11.842,11.842,0,0,0,8.058-3.353l.418,2.829h4.186Z" transform="translate(-353.972 -250.374)" fill="#b8b8b8"/>
      <path id="Trazado_4444" data-name="Trazado 4444" d="M425.4,407.275h-6.654l-8.009-26.063h5.812l4.969,16.014,1.1,4.816a100.123,100.123,0,0,0,5.182-20.83h5.653a105.826,105.826,0,0,1-8.057,26.063" transform="translate(-371.929 -250.733)" fill="#b8b8b8"/>
      <path id="Trazado_4445" data-name="Trazado 4445" d="M469.915,400.9a9.329,9.329,0,0,1-5.816,2.618c-2.611,0-4.028-1.569-4.028-4.085,0-2.722,1.518-4.712,7.592-4.712h2.252V400.9m5.335,6.019V388.283c0-4.761-2.721-7.9-9.26-7.9a24.4,24.4,0,0,0-9.893,2.147l.784,3.3a23.023,23.023,0,0,1,7.64-1.518c3.768,0,5.393,1.518,5.393,4.656v2.356H468.03c-9.164,0-13.3,3.557-13.3,8.894,0,4.608,2.721,7.226,7.849,7.226a11.857,11.857,0,0,0,8.062-3.353l.419,2.829h4.186Z" transform="translate(-390.915 -250.374)" fill="#b8b8b8"/>
      <path id="Trazado_4446" data-name="Trazado 4446" d="M351.772,404.666a14.026,14.026,0,0,1-6.668,4.972l-2.634-3.1a11.058,11.058,0,0,0,4.618-4.328c.706-1.4,1-3.216,1-7.548V364.905h5.668v29.349c0,5.79-.463,8.13-1.983,10.412" transform="translate(-342.471 -243.696)" fill="#b8b8b8"/>
    </g>
    <g id="Laravel_logo" data-name="Laravel logo" transform="translate(3201.369 9229.528)">
      <path id="Trazado_4447" data-name="Trazado 4447" d="M161.1,37.541a2.6,2.6,0,0,1,.091.679V73.838a2.6,2.6,0,0,1-1.305,2.253L129.994,93.3v34.116a2.605,2.605,0,0,1-1.3,2.253L66.291,165.6a2.856,2.856,0,0,1-.455.188c-.059.02-.113.055-.175.071a2.62,2.62,0,0,1-1.331,0c-.072-.02-.137-.059-.2-.084a2.756,2.756,0,0,1-.428-.175L1.305,129.672A2.6,2.6,0,0,1,0,127.419V20.562a2.655,2.655,0,0,1,.091-.682c.019-.075.065-.143.091-.217a2.561,2.561,0,0,1,.166-.4,2.438,2.438,0,0,1,.179-.231,2.646,2.646,0,0,1,.23-.3,2.533,2.533,0,0,1,.256-.195,2.116,2.116,0,0,1,.286-.224h0L32.5.347a2.6,2.6,0,0,1,2.6,0l31.2,17.962H66.3a3.133,3.133,0,0,1,.286.221,3.015,3.015,0,0,1,.253.195,2.92,2.92,0,0,1,.234.305,2.354,2.354,0,0,1,.176.231,2.786,2.786,0,0,1,.169.4c.026.075.071.143.091.221a2.627,2.627,0,0,1,.091.678V87.3l26-14.969V38.216a2.62,2.62,0,0,1,.091-.675c.023-.078.065-.146.091-.221a3,3,0,0,1,.169-.4c.048-.084.12-.153.176-.23a2.575,2.575,0,0,1,.234-.3,2.452,2.452,0,0,1,.253-.195,2.641,2.641,0,0,1,.286-.224h0L126.1,18a2.6,2.6,0,0,1,2.6,0l31.2,17.962a2.907,2.907,0,0,1,.292.221c.081.065.175.123.25.195a3.1,3.1,0,0,1,.234.305,1.933,1.933,0,0,1,.175.23,2.521,2.521,0,0,1,.169.4A1.808,1.808,0,0,1,161.1,37.541Zm-5.11,34.794V42.715L145.076,49l-15.082,8.684V87.3l26-14.969Zm-31.2,53.582V96.277l-14.836,8.473L67.6,128.929v29.919ZM5.2,25.058V125.916L62.4,158.844V128.932l-29.879-16.91-.01-.006-.013-.006a477.167,477.167,0,0,0-.526-.4l-.007-.009a2.5,2.5,0,0,1-.214-.273,2.79,2.79,0,0,1-.195-.253l0-.01a2.064,2.064,0,0,1-.136-.324,1.936,1.936,0,0,1-.123-.292v0a2.5,2.5,0,0,1-.052-.38,2.24,2.24,0,0,1-.039-.292V40.027L16.118,31.34,5.2,25.062ZM33.8,5.6,7.807,20.562,33.795,35.525l25.99-14.966L33.795,5.6ZM47.319,98.978,62.4,90.3V25.058L51.481,31.343,36.4,40.027v65.239ZM127.4,23.257l-25.99,14.963L127.4,53.182l25.987-14.966Zm-2.6,34.428L109.714,49,98.8,42.715v29.62l15.079,8.681L124.8,87.3Zm-59.8,66.749,38.122-21.764L122.17,91.794,96.2,76.841,66.3,94.057,39.044,109.746Z" transform="translate(0 0)" fill="#b7b7b7"/>
    </g>
    <g id="Ionic_logo" data-name="Ionic logo" transform="translate(3960.094 9285.161)">
      <g id="icon" transform="translate(0 0)">
        <path id="Shape" d="M93.458,279.6a12.658,12.658,0,1,0,12.658,12.658A12.663,12.663,0,0,0,93.458,279.6Z" transform="translate(-65.704 -264.449)" fill="#b7b7b7"/>
        <circle id="Oval" cx="5.781" cy="5.781" r="5.781" transform="translate(40.111 4.712)" fill="#b7b7b7"/>
        <path id="Shape_1_" d="M78.688,240.575l-.219-.521-.384.466a8.706,8.706,0,0,1-3.48,2.384l-.384.164.164.384a22.038,22.038,0,0,1,1.726,8.685,22.689,22.689,0,1,1-12.959-20.494l.329.164.164-.384a8.618,8.618,0,0,1,2.575-3.37l.466-.384-.521-.274a27.746,27.746,0,1,0,15.042,24.658A28.326,28.326,0,0,0,78.688,240.575Z" transform="translate(-25.7 -224.3)" fill="#b7b7b7"/>
      </g>
      <g id="logotype" transform="translate(69.783 15.096)">
        <rect id="Rectangle-path" width="5.863" height="24.165" transform="translate(0 0.603)" fill="#b7b7b7"/>
        <rect id="Rectangle-path_1_" width="5.863" height="24.165" transform="translate(63.153 0.603)" fill="#b7b7b7"/>
        <path id="Shape_2_" d="M386.361,271.6a12.628,12.628,0,0,0-8,3.178l-.384-2.6H373.1v24.165h5.863v-14.6c0-2.877,3.891-5.206,6.767-5.206,2.795,0,4.987,2.712,4.987,5.973v13.864h5.863V283.08C396.526,276.7,393.786,271.6,386.361,271.6Z" transform="translate(-336.742 -271.545)" fill="#b7b7b7"/>
        <path id="Shape_3_" d="M514.3,291.784c-4.411,0-7.315-3.425-7.315-7.7s2.9-7.7,7.315-7.7c3.726,0,6.028,3.617,6.028,3.617l4.219-2.822a12.716,12.716,0,0,0-4.575-4.192,10.692,10.692,0,0,0-5.507-1.589,12.662,12.662,0,1,0,0,25.316,10.613,10.613,0,0,0,5.507-1.589,12.942,12.942,0,0,0,4.575-4.192l-4.219-2.822C520.323,288.14,518.049,291.784,514.3,291.784Z" transform="translate(-429.963 -271.4)" fill="#b7b7b7"/>
        <path id="path3000_1_" d="M283.858,271.6a12.645,12.645,0,1,0,12.631,12.685C296.489,275.9,289.94,271.6,283.858,271.6Zm.082,4.986c3.617,0,7.069,2.932,7.069,7.7a7.31,7.31,0,0,1-7.1,7.672c-4,0-7.178-3.233-7.178-7.7C276.734,279.82,279.858,276.587,283.94,276.587Z" transform="translate(-262.761 -271.545)" fill="#b7b7b7"/>
      </g>
    </g>
    <g id="React_logo" data-name="React logo" transform="translate(4228.227 9240.004)">
      <path id="Trazado_4448" data-name="Trazado 4448" d="M150,61.778q-2.55-.878-5.276-1.663.447-1.825.815-3.6c3.994-19.387,1.382-35-7.535-40.147-8.55-4.931-22.533.21-36.656,12.5q-2.037,1.773-4.081,3.744-1.361-1.3-2.716-2.508c-14.8-13.141-29.636-18.679-38.544-13.522-8.542,4.945-11.072,19.627-7.477,38q.521,2.662,1.212,5.429c-2.1.6-4.127,1.231-6.066,1.907-17.352,6.05-28.434,15.531-28.434,25.365,0,10.158,11.9,20.345,29.97,26.523q2.139.731,4.431,1.386-.743,2.989-1.287,5.851c-3.428,18.054-.751,32.389,7.768,37.3,8.8,5.074,23.568-.141,37.948-12.712q1.7-1.491,3.42-3.152,2.222,2.14,4.43,4.042c13.93,11.986,27.687,16.827,36.2,11.9,8.791-5.089,11.648-20.489,7.938-39.225q-.424-2.147-.983-4.38,1.556-.46,3.048-.952c18.789-6.225,31.014-16.289,31.014-26.583,0-9.87-11.439-19.415-29.14-25.509Z" transform="translate(-15.243 -14.514)" fill="#b7b7b7"/>
      <path id="Trazado_4449" data-name="Trazado 4449" d="M148.575,109.869c-.9.3-1.816.583-2.753.861a164.225,164.225,0,0,0-8.3-20.763,164.283,164.283,0,0,0,7.977-20.46c1.676.485,3.3,1,4.872,1.537,15.166,5.221,24.418,12.941,24.418,18.889,0,6.336-9.992,14.561-26.215,19.937Zm-6.731,13.338c1.64,8.285,1.874,15.776.788,21.631-.976,5.262-2.939,8.769-5.366,10.174-5.165,2.99-16.211-.9-28.123-11.147q-2.049-1.763-4.121-3.758a164.469,164.469,0,0,0,13.739-17.444,163.45,163.45,0,0,0,22.2-3.421q.5,2.023.887,3.965ZM73.77,154.5c-5.046,1.782-9.066,1.833-11.5.432-5.17-2.982-7.319-14.492-4.387-29.932q.5-2.653,1.2-5.442a164.67,164.67,0,0,0,22.087,3.2,170.477,170.477,0,0,0,14.07,17.382q-1.568,1.513-3.123,2.875c-6.359,5.559-12.731,9.5-18.347,11.486ZM50.128,109.83c-7.992-2.732-14.592-6.282-19.116-10.156-4.065-3.481-6.117-6.937-6.117-9.742,0-5.967,8.9-13.58,23.737-18.754,1.8-.628,3.686-1.219,5.642-1.775a167.828,167.828,0,0,0,7.988,20.7A170.618,170.618,0,0,0,54.174,111.1q-2.092-.6-4.045-1.266Zm7.925-53.945c-3.08-15.741-1.034-27.616,4.113-30.6,5.483-3.174,17.608,1.352,30.387,12.7q1.225,1.088,2.46,2.27A167.775,167.775,0,0,0,81.051,57.535a171.122,171.122,0,0,0-21.871,3.4q-.64-2.574-1.127-5.049Zm70.7,17.457q-2.433-4.2-4.984-8.2c5.229.661,10.24,1.539,14.944,2.612a149.32,149.32,0,0,1-5.246,14.113q-2.229-4.234-4.715-8.529ZM99.921,45.261A149.806,149.806,0,0,1,109.566,56.9q-4.809-.227-9.723-.23-4.861,0-9.648.226c3.184-4.2,6.446-8.1,9.726-11.639ZM70.906,73.391q-2.43,4.214-4.627,8.476C64.24,77.03,62.5,72.275,61.071,67.684c4.676-1.046,9.663-1.9,14.859-2.551q-2.582,4.027-5.024,8.257Zm5.174,41.84A149.058,149.058,0,0,1,60.975,112.8c1.448-4.673,3.23-9.53,5.312-14.469q2.2,4.251,4.646,8.481h0q2.49,4.3,5.146,8.417ZM100.115,135.1c-3.318-3.581-6.628-7.541-9.861-11.8q4.707.185,9.589.186,5.011,0,9.894-.22a149.017,149.017,0,0,1-9.622,11.835Zm33.418-37.016a148.512,148.512,0,0,1,5.5,14.418,148.6,148.6,0,0,1-15.289,2.606q2.553-4.044,5.032-8.34,2.5-4.342,4.753-8.684Zm-10.819,5.186c-2.562,4.442-5.192,8.683-7.862,12.686-4.864.348-9.889.527-15.01.527-5.1,0-10.061-.159-14.839-.469-2.777-4.055-5.465-8.309-8.011-12.706h0C74.454,98.921,72.117,94.5,70,90.1c2.117-4.408,4.447-8.835,6.972-13.213h0c2.531-4.389,5.2-8.622,7.947-12.652,4.874-.368,9.873-.561,14.924-.561h0c5.075,0,10.079.194,14.952.565,2.711,4,5.356,8.219,7.9,12.609,2.57,4.439,4.931,8.837,7.066,13.15-2.128,4.388-4.483,8.83-7.042,13.267Zm14.444-78.187c5.488,3.165,7.623,15.93,4.174,32.668-.22,1.068-.468,2.156-.737,3.258a167.7,167.7,0,0,0-21.914-3.462,164.414,164.414,0,0,0-13.855-17.291q1.89-1.817,3.77-3.457c12.1-10.53,23.409-14.688,28.562-11.716Z" transform="translate(-17.894 -17.159)" fill="#ebebeb"/>
      <path id="Trazado_4450" data-name="Trazado 4450" d="M122.679,94.665A14.636,14.636,0,1,1,108.044,109.3a14.635,14.635,0,0,1,14.635-14.635" transform="translate(-40.731 -36.528)" fill="#b7b7b7"/>
    </g>
    <g id="Figma_logo" data-name="Figma logo" transform="translate(4762.779 9230.593)">
      <path id="path0_fill" d="M27.147,254.294a27.157,27.157,0,0,0,27.147-27.147V200H27.147a27.147,27.147,0,0,0,0,54.294Z" transform="translate(0 -91.412)" fill="#b7b7b7"/>
      <path id="path1_fill" d="M0,127.147A27.157,27.157,0,0,1,27.147,100H54.294v54.294H27.147A27.157,27.157,0,0,1,0,127.147Z" transform="translate(0 -45.706)" fill="#b7b7b7"/>
      <path id="path1_fill_1_" d="M0,27.147A27.157,27.157,0,0,1,27.147,0H54.294V54.294H27.147A27.157,27.157,0,0,1,0,27.147Z" fill="#b7b7b7"/>
      <path id="path2_fill" d="M100,0h27.147a27.147,27.147,0,0,1,0,54.294H100Z" transform="translate(-45.706)" fill="#b7b7b7"/>
      <path id="path3_fill" d="M154.294,127.147A27.147,27.147,0,1,1,127.147,100,27.157,27.157,0,0,1,154.294,127.147Z" transform="translate(-45.706 -45.706)" fill="#b7b7b7"/>
    </g>
    <g id="Photoshop_logo" data-name="Photoshop logo" transform="translate(4975.139 9232.645)">
      <path id="Trazado_4451" data-name="Trazado 4451" d="M-341.6,493.3h150.511V638.393H-341.6Z" transform="translate(348.443 -486.457)" fill="#b7b7b7"/>
      <path id="Trazado_4452" data-name="Trazado 4452" d="M-355.557,479.287h150.511v145.2H-355.557ZM-362.4,631.279h164.164V472.5H-362.4Zm110.7-93.616c-5.4,0-7.238,2.708-7.238,4.96,0,2.447,1.217,4.144,8.488,7.864,10.725,5.156,14.081,10.115,14.081,17.359,0,10.866-8.356,16.707-19.64,16.707-5.955,0-11.087-1.207-14.015-2.9-.493-.2-.559-.555-.559-1.077V570.554c0-.685.329-.881.822-.555a25.656,25.656,0,0,0,13.752,4.014c5.4,0,7.665-2.252,7.665-5.286,0-2.447-1.579-4.6-8.488-8.157-9.705-4.6-13.752-9.267-13.752-17.1,0-8.745,6.909-16.021,18.884-16.021,5.889,0,10,.881,12.238,1.893a1.475,1.475,0,0,1,.691,1.37v9.3c0,.555-.329.881-1.02.685a23.4,23.4,0,0,0-11.909-3.035Zm-58.823,8.06c1.579.13,2.8.13,5.527.13,7.994,0,15.528-2.773,15.528-13.574,0-8.614-5.4-12.954-14.508-12.954-2.731,0-5.33.131-6.58.2l.033,26.2ZM-322.724,509.7c0-.489.954-.816,1.513-.816,4.375-.2,10.889-.326,17.634-.326,18.95,0,26.352,10.311,26.352,23.461,0,17.229-12.6,24.636-28.063,24.636-2.6,0-3.487-.13-5.33-.13v26.039c0,.555-.2.816-.823.816H-321.9c-.559,0-.822-.2-.822-.816V509.7Z" transform="translate(362.4 -472.5)" fill="#ebebeb"/>
    </g>
    <g id="Illustrator_logo" data-name="Illustrator logo" transform="translate(5243.074 9232.644)">
      <path id="Trazado_4453" data-name="Trazado 4453" d="M-341.6,493h150.457V638.1H-341.6Z" transform="translate(348.437 -486.162)" fill="#b7b7b7"/>
      <path id="Trazado_4454" data-name="Trazado 4454" d="M-355.563,478.983h150.457V624.2H-355.563Zm-6.837,152h164.164V472.2H-362.4Zm107.525-102.168c0-.555.2-.815.822-.815H-243.3c.559,0,.822.2.822.815v53.546c0,.554-.131.815-.822.815h-10.618c-.69,0-.888-.326-.888-.88V528.811Zm-.756-15.425a6.615,6.615,0,0,1,6.969-6.913,6.565,6.565,0,0,1,6.969,6.913c0,4.468-2.926,6.913-7.1,6.913C-252.738,520.333-255.631,517.887-255.631,513.387Zm-30.769,37.73c-1.907-7.533-6.443-23.936-8.152-31.893h-.132c-1.446,7.924-5.062,21.359-7.922,31.893Zm-19,10.99-5.391,20.349c-.131.554-.329.685-1.019.685h-10.059c-.69,0-.822-.2-.69-1.011l19.428-67.438a22.065,22.065,0,0,0,.69-5.642c0-.489.2-.685.559-.685h14.365c.493,0,.69.131.822.685l21.762,73.21c.131.554,0,.88-.559.88h-11.341c-.559,0-.888-.13-1.019-.62l-5.621-20.414H-305.4Z" transform="translate(362.4 -472.2)" fill="#ebebeb"/>
    </g>
    <g id="Grupo_1521" data-name="Grupo 1521" transform="translate(5511.01 9231.361)">
      <path id="Trazado_4455" data-name="Trazado 4455" d="M20.806,33.927H171.291V180.308H20.806Z" transform="translate(-13.966 -27.087)" fill="#b7b7b7"/>
      <g id="Grupo_1520" data-name="Grupo 1520" transform="translate(0 0)">
        <path id="Trazado_4456" data-name="Trazado 4456" d="M6.84,19.961H157.325V166.342H6.84ZM0,173.182H164.165V13.121H0Zm116.146-82.9a30.2,30.2,0,0,0,5.062-.137c0-.479.137-.821.137-1.163,0-3.694-1.779-10.534-8.892-10.534-6.567,0-9.371,5.746-10.055,11.834Zm-13.885,9.371c.137,9.235,4.514,15.459,14.912,15.459a26.768,26.768,0,0,0,11.149-2.12c.479-.205.821-.137.821.479v8.55a1.449,1.449,0,0,1-.684,1.368c-3.625,1.778-8.14,2.6-13.749,2.6-18.058,0-24.83-13.338-24.83-28.181,0-16.143,8.345-29.344,23.052-29.344,14.912,0,20.11,12.518,20.11,22.71a34.6,34.6,0,0,1-.547,7.251,1.017,1.017,0,0,1-.889.89,99.055,99.055,0,0,1-11.423.478H102.261v-.137ZM65.6,92.673c-1.915-7.593-6.567-24.146-8.277-32.149h-.137c-1.436,8-5.2,21.547-8,32.149ZM46.376,103.754l-5.4,20.452c-.137.547-.342.753-1.026.753H29.891c-.684,0-.821-.205-.684-1.026L48.633,56.009a20.948,20.948,0,0,0,.684-5.608c0-.479.205-.684.547-.684H64.229c.479,0,.684.137.821.684L86.8,124.069c.137.547,0,.889-.547.889H74.968a.926.926,0,0,1-1.026-.684l-5.609-20.521H46.376Z" transform="translate(0 -13.121)" fill="#ebebeb"/>
      </g>
    </g>
    <g id="Grupo_1522" data-name="Grupo 1522" transform="translate(5778.945 9232.645)">
      <rect id="Rectángulo_399" data-name="Rectángulo 399" width="150.675" height="145.619" transform="translate(6.068 6.337)" fill="#b7b7b7"/>
      <path id="Trazado_4457" data-name="Trazado 4457" d="M52.761,132.195c-.814,0-1.018-.339-1.018-1.018V58.234c0-.543.2-.882.815-.882h10.72c.543,0,.678.2.678.815V121H91.912c.543,0,.747.2.611.814l-1.7,9.635a.962.962,0,0,1-1.018.814H52.761v-.067Zm50.212-43.969c0-.814,0-2.782-.339-6.582a.778.778,0,0,1,.543-.882,71.367,71.367,0,0,1,24.97-4.682c.543,0,.814.136.814.678v9.771c0,.543-.2.679-.814.679-4.275-.2-10.585.339-12.96,1.357V131.38c0,.543-.2.814-.814.814H103.719c-.543,0-.814-.2-.814-.814V88.226ZM7.638,180.167H170.487V21.39H7.638V180.167ZM14.423,28.175H163.7V173.382H14.423V28.175Z" transform="translate(-7.638 -21.39)" fill="#ebebeb"/>
    </g>
    <g id="Grupo_1525" data-name="Grupo 1525" transform="translate(6045.564 9299.156)">
      <g id="Grupo_1524" data-name="Grupo 1524" transform="translate(0 0)">
        <g id="Grupo_1523" data-name="Grupo 1523" transform="translate(0 0)" clip-path="url(#clip-path-6)">
          <path id="Trazado_4458" data-name="Trazado 4458" d="M-390.575,468.659a1.42,1.42,0,0,1,1.918.06c1.343,1.329,2.673,2.673,4.011,4.006q-1,1-2.007,2.007c-.828-.825-1.65-1.658-2.48-2.48a.7.7,0,0,0-1.045,0q-4.429,4.415-8.846,8.84a.71.71,0,0,0-.043,1.084q4.2,4.214,8.416,8.42a4.17,4.17,0,0,0,.736.664.726.726,0,0,0,.829-.226c.813-.813,1.625-1.63,2.44-2.441l2,2q-1.843,1.849-3.689,3.694a2.219,2.219,0,0,1-.874.657,1.435,1.435,0,0,1-1.494-.389q-5.946-5.947-11.891-11.894a1.429,1.429,0,0,1,.041-2.037c3.994-3.986,7.976-7.989,11.977-11.966" transform="translate(403 -468.315)" fill="#b7b7b7"/>
          <path id="Trazado_4459" data-name="Trazado 4459" d="M-334.959,468.73a1.44,1.44,0,0,1,2.066.068q5.916,5.917,11.833,11.834a1.434,1.434,0,0,1,.381,1.48,2.59,2.59,0,0,1-.759.973q-5.569,5.566-11.134,11.134a2.5,2.5,0,0,1-.946.734,1.416,1.416,0,0,1-1.482-.382q-1.982-1.986-3.966-3.969-1-1-2-2-2.968-2.971-5.937-5.939a1.421,1.421,0,0,1,.033-2.028q2.947-2.951,5.9-5.9,1-1,2.006-2.006c1.338-1.333,2.668-2.673,4.007-4" transform="translate(357.32 -468.324)" fill="#b7b7b7"/>
          <path id="Trazado_4460" data-name="Trazado 4460" d="M-85,490.2a1.734,1.734,0,0,1,1.856.59,3.1,3.1,0,0,1,.3,1.817c-.006,3.476.008,6.951-.006,10.43a1.592,1.592,0,0,1-.976,1.539,1.818,1.818,0,0,1-1.958-.416,2.008,2.008,0,0,1-.391-1.4c.008-3.669-.008-7.336.008-11A1.566,1.566,0,0,1-85,490.2m-43.3.008a1.824,1.824,0,0,1,1.7.359,1.764,1.764,0,0,1,.489,1.348c0,3.7,0,7.41,0,11.115a1.574,1.574,0,0,1-1.191,1.612,1.634,1.634,0,0,1-2.117-1.47c-.017-3.8-.006-7.594-.006-11.391a1.566,1.566,0,0,1,1.126-1.573m65.38,8.688a1.738,1.738,0,0,0-.063,2.913,4.329,4.329,0,0,0,2.471.318,2.712,2.712,0,0,0,2.161-1.2,5.779,5.779,0,0,0,.2-2.432c-.815-.037-1.632-.013-2.447-.017a5.1,5.1,0,0,0-2.323.413m-2.03-8.15A8.7,8.7,0,0,1-61,489.98a6.843,6.843,0,0,1,4.017.971,5.283,5.283,0,0,1,2,4.564c.01,1.625-.01,3.25.01,4.872-.007,1.084,1.12,1.813.974,2.921a1.647,1.647,0,0,1-2.218,1.3c-.65-.163-.944-.812-1.3-1.31a5.275,5.275,0,0,1-4.053,1.55,6.13,6.13,0,0,1-3.786-.937,3.774,3.774,0,0,1-1.515-2.7,4.562,4.562,0,0,1,1.023-3.7A5.955,5.955,0,0,1-61.83,496c1.217-.035,2.436-.021,3.653-.01a2.641,2.641,0,0,0-.775-2.526,3.581,3.581,0,0,0-2.193-.627,6.055,6.055,0,0,0-2.687.553,1.783,1.783,0,0,1-1.8-.056,1.421,1.421,0,0,1-.315-1.8,2.092,2.092,0,0,1,1-.8M-74.886,490a6.494,6.494,0,0,1,4.875,1.313,2.372,2.372,0,0,1,1.053,1.851,1.432,1.432,0,0,1-1.661,1.347c-.876-.129-1.28-1.065-2.079-1.353a3.106,3.106,0,0,0-3.468.695,5.534,5.534,0,0,0-.8,3.477,5.857,5.857,0,0,0,.778,3.62,3.1,3.1,0,0,0,3.431.742c.9-.306,1.373-1.477,2.434-1.389a1.451,1.451,0,0,1,1.29,1.93,4.141,4.141,0,0,1-2.077,1.986,7.15,7.15,0,0,1-4.514.5,5.485,5.485,0,0,1-3.68-2.459,9.321,9.321,0,0,1-1.048-4.935,8.824,8.824,0,0,1,1.17-4.947A5.71,5.71,0,0,1-74.886,490m-20.193-.019a8.971,8.971,0,0,1,5.354,1.263,1.44,1.44,0,0,1,.224,2.225,1.5,1.5,0,0,1-1.752.171,6.649,6.649,0,0,0-4.285-.786,1.447,1.447,0,0,0-1.193,1.414,1.289,1.289,0,0,0,.989,1.188c1.555.477,3.251.228,4.777.833a3.662,3.662,0,0,1,2.317,2.4,4.973,4.973,0,0,1-.3,3.547,4.866,4.866,0,0,1-3.374,2.417,10.155,10.155,0,0,1-6.731-.868,2.751,2.751,0,0,1-1.278-1.064,1.547,1.547,0,0,1,.683-2,1.8,1.8,0,0,1,1.712.164,7.029,7.029,0,0,0,3.113,1.145,3.758,3.758,0,0,0,2.709-.606,1.367,1.367,0,0,0-.353-2.266c-1.506-.572-3.186-.293-4.707-.824a3.706,3.706,0,0,1-2.5-2.246,4.563,4.563,0,0,1,.894-4.651,5.483,5.483,0,0,1,3.7-1.452m-24.88,1.629a4.489,4.489,0,0,1,3.713-1.648,4.652,4.652,0,0,1,3.983,1.888,5.787,5.787,0,0,1,3.518-1.827,5.931,5.931,0,0,1,4.136.81,5.212,5.212,0,0,1,2.089,4.541c-.007,2.585.016,5.174-.01,7.759a1.558,1.558,0,0,1-1.454,1.546,1.592,1.592,0,0,1-1.85-1.515c-.036-2.458,0-4.92-.019-7.378a2.829,2.829,0,0,0-1.592-2.677,2.839,2.839,0,0,0-2.988.565,3.286,3.286,0,0,0-.806,2.263q0,3.48,0,6.96a1.919,1.919,0,0,1-.331,1.187,1.779,1.779,0,0,1-2.391.273,1.737,1.737,0,0,1-.6-1.46c-.01-2.365,0-4.731-.006-7.1a2.847,2.847,0,0,0-1.521-2.662,2.833,2.833,0,0,0-3.089.569,3.43,3.43,0,0,0-.779,2.372q0,3.41,0,6.823a1.924,1.924,0,0,1-.291,1.128,1.732,1.732,0,0,1-2.778-.061,1.955,1.955,0,0,1-.249-1.067q0-5.5,0-11a1.763,1.763,0,0,1,.443-1.3,1.832,1.832,0,0,1,1.851-.374,1.709,1.709,0,0,1,1.024,1.378m69.188-7.255a1.777,1.777,0,0,1,1.764.422,1.927,1.927,0,0,1,.446,1.419q0,7.1,0,14.2a1.316,1.316,0,0,0,.394,1.084c.479.362,1.162.2,1.635.584a1.542,1.542,0,0,1-.2,2.444,3.532,3.532,0,0,1-1.754.2,3.441,3.441,0,0,1-2.56-1.061,4.859,4.859,0,0,1-.846-2.971q-.007-7.031,0-14.062a3.83,3.83,0,0,1,.128-1.347,1.491,1.491,0,0,1,.992-.906m-34.543-.029a2.01,2.01,0,0,1,2.763,1.452,1.986,1.986,0,0,1-1.825,2.358,1.956,1.956,0,0,1-2.105-1.944,1.948,1.948,0,0,1,1.167-1.866m-43.145-.045a1.984,1.984,0,0,1,2.665,1.777,1.954,1.954,0,0,1-2,2.082,1.969,1.969,0,0,1-1.955-1.953,1.978,1.978,0,0,1,1.291-1.906m-15.677,1.64a1.576,1.576,0,0,1,1.577-1.636,1.578,1.578,0,0,1,1.726,1.507c.022,1.944.009,3.888,0,5.832a4.367,4.367,0,0,1,3-1.622,5.344,5.344,0,0,1,3.2.53,4.763,4.763,0,0,1,2.322,3.048,11.947,11.947,0,0,1,.2,3.06c0,2.133.008,4.266,0,6.4a1.576,1.576,0,0,1-1.532,1.646,1.581,1.581,0,0,1-1.773-1.514c-.025-2.456.012-4.913-.018-7.369a2.836,2.836,0,0,0-1.54-2.678,2.917,2.917,0,0,0-3.02.505,3.434,3.434,0,0,0-.832,2.456q0,3.4,0,6.808a1.992,1.992,0,0,1-.25,1.072,1.726,1.726,0,0,1-2.823,0,3.009,3.009,0,0,1-.246-1.628q.006-8.2,0-16.411m-25.271-.836a1.713,1.713,0,0,1,2.857-.082,3.7,3.7,0,0,1,.4,1.044q1.339,5.441,2.687,10.882a12.985,12.985,0,0,0,.375,1.39q1.709-6.2,3.417-12.4a2.165,2.165,0,0,1,1.026-1.484,1.672,1.672,0,0,1,1.77.232,2.33,2.33,0,0,1,.612,1.027c1.216,4.208,2.355,8.44,3.6,12.639q1.514-6.211,3.013-12.428a2.3,2.3,0,0,1,.659-1.276,1.731,1.731,0,0,1,2.578.554,2.616,2.616,0,0,1-.037,1.842q-2.165,8-4.317,16a2.091,2.091,0,0,1-1.21,1.572,1.9,1.9,0,0,1-1.647-.236,2.8,2.8,0,0,1-.814-1.455q-1.744-6.226-3.486-12.455c-1.232,4.224-2.369,8.475-3.582,12.7a2.035,2.035,0,0,1-1.194,1.447,1.839,1.839,0,0,1-1.7-.312,3.289,3.289,0,0,1-.749-1.457q-2.154-7.969-4.3-15.945a2.424,2.424,0,0,1,.048-1.806" transform="translate(211.552 -481.312)" fill="#b7b7b7"/>
        </g>
      </g>
    </g>
    <g id="Grupo_1526" data-name="Grupo 1526" transform="translate(6314.867 9284.691)">
      <path id="Trazado_4461" data-name="Trazado 4461" d="M-113.412,541.526h-45.545A5.043,5.043,0,0,0-164,546.569v45.545a5.043,5.043,0,0,0,5.043,5.043h45.545a5.043,5.043,0,0,0,5.043-5.043V546.569a5.043,5.043,0,0,0-5.043-5.043Z" transform="translate(164 -541.526)" fill="#b7b7b7"/>
      <path id="Trazado_4462" data-name="Trazado 4462" d="M6.23,608.069h5.325V584.837H6.23v23.233ZM55.6,584.352a8.362,8.362,0,0,0-7.261,4.092v-3.607H43.016v23.233h5.324V594.956c0-3.608,2.156-5.764,5.236-5.764,3.169,0,4.972,2.068,4.972,5.676v13.2h5.324V593.284c0-5.412-3.037-8.932-8.273-8.932ZM27.439,603.977c-4.137,0-7.085-3.389-7.085-7.525,0-4.091,2.728-7.436,7-7.436,4.18,0,7.129,3.388,7.129,7.525,0,4.092-2.729,7.436-7.04,7.436Zm0-19.625A12.155,12.155,0,0,0,15.03,596.541,12.025,12.025,0,0,0,27.351,608.6a12.126,12.126,0,1,0,.088-24.245Zm-65.913,17.556-6.248-17.072h-5.721l9.549,23.408h4.8l9.5-23.408h-5.588l-6.293,17.072ZM-4.5,594.341c-2.729-.881-5.237-1.585-5.237-3.257V591c0-1.364,1.188-2.332,3.256-2.332a10.194,10.194,0,0,1,3.3.641v0l.034.016c.1.036.2.076.3.114.842.266,3.114.622,5.028-2.35a16.1,16.1,0,0,0-8.538-2.642c-4.62,0-8.272,2.684-8.272,7.085v.088c0,4.444,3.828,5.852,7.26,6.821,2.729.836,5.193,1.452,5.193,3.256v.087c0,1.541-1.321,2.509-3.609,2.509a11.525,11.525,0,0,1-4.847-1.184c-.478-.2-2.963-1.052-5.088,1.971a16.322,16.322,0,0,0,9.8,3.438c4.839,0,8.624-2.419,8.624-7.3v-.088c0-4.179-3.828-5.72-7.216-6.776Zm-19.449,13.729h5.324V584.837h-5.324v23.233Z" transform="translate(102.07 -564.882)" fill="#b7b7b7"/>
      <path id="Trazado_4463" data-name="Trazado 4463" d="M-127.182,571.992a3.359,3.359,0,0,0,3.4-3.349,3.359,3.359,0,0,0-3.4-3.348,3.359,3.359,0,0,0-3.4,3.348,3.359,3.359,0,0,0,3.4,3.349Z" transform="translate(145.774 -554.489)" fill="#ebebeb"/>
      <path id="Trazado_4464" data-name="Trazado 4464" d="M-140.284,601.149a11.509,11.509,0,0,0-.3,2.516c0,2.949,1.6,4.907,5,4.907,2.819,0,5.1-1.674,6.749-4.376l-1,4.032h5.6l3.2-12.83c.8-3.248,2.349-4.935,4.7-4.935a2.8,2.8,0,0,1,3,3.048,6,6,0,0,1-.25,1.8l-1.65,5.9a8.875,8.875,0,0,0-.349,2.5c0,2.8,1.648,4.847,5.1,4.847,2.949,0,5.3-1.9,6.6-6.446l-2.2-.849c-1.1,3.047-2.049,3.6-2.8,3.6s-1.15-.5-1.15-1.5a6.627,6.627,0,0,1,.25-1.55l1.6-5.746a12.655,12.655,0,0,0,.55-3.644c0-4.3-2.6-6.541-5.747-6.541-2.949,0-5.948,2.66-7.446,5.458l1.1-5.024h-8.546l-1.2,4.425h4l-2.462,9.858c-1.934,4.3-5.485,4.368-5.931,4.268-.732-.165-1.2-.443-1.2-1.394a9.411,9.411,0,0,1,.35-2.287l3.748-14.869h-9.5l-1.2,4.425h3.948l-2.549,10.413Z" transform="translate(151.829 -565.713)" fill="#ebebeb"/>
    </g>
    <g id="Grupo_1545" data-name="Grupo 1545" transform="translate(6584.58 9299.156)">
      <g id="Grupo_1528" data-name="Grupo 1528" transform="translate(52.685 4.808)">
        <g id="Grupo_1527" data-name="Grupo 1527" transform="translate(0 0)" clip-path="url(#clip-path-7)">
          <rect id="Rectángulo_401" data-name="Rectángulo 401" width="117.647" height="33.488" transform="translate(-2.195 -2.195)" fill="#b7b7b7"/>
        </g>
      </g>
      <g id="Grupo_1530" data-name="Grupo 1530" transform="translate(0)">
        <g id="Grupo_1529" data-name="Grupo 1529" clip-path="url(#clip-path-8)">
          <rect id="Rectángulo_402" data-name="Rectángulo 402" width="46.453" height="42.148" transform="translate(-2.195 -2.195)" fill="#b7b7b7"/>
        </g>
      </g>
      <g id="Grupo_1532" data-name="Grupo 1532" transform="translate(0 13.464)">
        <g id="Grupo_1531" data-name="Grupo 1531" clip-path="url(#clip-path-9)">
          <rect id="Rectángulo_403" data-name="Rectángulo 403" width="25.422" height="28.684" transform="translate(-2.195 -2.195)" fill="#b7b7b7"/>
        </g>
      </g>
      <g id="Grupo_1534" data-name="Grupo 1534" transform="translate(21.031 13.464)">
        <g id="Grupo_1533" data-name="Grupo 1533" transform="translate(0)" clip-path="url(#clip-path-10)">
          <rect id="Rectángulo_404" data-name="Rectángulo 404" width="25.422" height="28.684" transform="translate(-2.195 -2.195)" fill="#b7b7b7"/>
        </g>
      </g>
      <g id="Grupo_1536" data-name="Grupo 1536" transform="translate(8.518 13.464)">
        <g id="Grupo_1535" data-name="Grupo 1535" clip-path="url(#clip-path-11)">
          <rect id="Rectángulo_405" data-name="Rectángulo 405" width="29.416" height="28.684" transform="translate(-2.195 -2.195)" fill="#b7b7b7"/>
        </g>
      </g>
      <g id="Grupo_1538" data-name="Grupo 1538" transform="translate(8.518)">
        <g id="Grupo_1537" data-name="Grupo 1537" clip-path="url(#clip-path-12)">
          <rect id="Rectángulo_406" data-name="Rectángulo 406" width="16.903" height="17.854" transform="translate(-2.195 -2.195)" fill="#b7b7b7"/>
        </g>
      </g>
      <g id="Grupo_1540" data-name="Grupo 1540" transform="translate(21.031)">
        <g id="Grupo_1539" data-name="Grupo 1539" transform="translate(0)" clip-path="url(#clip-path-13)">
          <rect id="Rectángulo_407" data-name="Rectángulo 407" width="16.903" height="17.854" transform="translate(-2.195 -2.195)" fill="#b7b7b7"/>
        </g>
      </g>
      <g id="Grupo_1542" data-name="Grupo 1542" transform="translate(32.885 1.243)">
        <g id="Grupo_1541" data-name="Grupo 1541" clip-path="url(#clip-path-14)">
          <rect id="Rectángulo_408" data-name="Rectángulo 408" width="13.568" height="16.611" transform="translate(-2.195 -2.195)" fill="#b7b7b7"/>
        </g>
      </g>
      <g id="Grupo_1544" data-name="Grupo 1544" transform="translate(8.518)">
        <g id="Grupo_1543" data-name="Grupo 1543" clip-path="url(#clip-path-15)">
          <rect id="Rectángulo_409" data-name="Rectángulo 409" width="29.416" height="17.854" transform="translate(-2.195 -2.195)" fill="#b7b7b7"/>
        </g>
      </g>
    </g>
    <g id="Grupo_1548" data-name="Grupo 1548" transform="translate(1933.053 9268.875)">
      <path id="Trazado_4474" data-name="Trazado 4474" d="M82.971,0c45.824,0,82.971,19.531,82.971,43.624S128.795,87.249,82.971,87.249,0,67.718,0,43.624,37.147,0,82.971,0Z" transform="translate(0 0)" fill="#ebebeb"/>
      <path id="Trazado_4475" data-name="Trazado 4475" d="M79.73,0c44.034,0,79.73,18.08,79.73,40.383s-35.7,40.383-79.73,40.383S0,62.687,0,40.383,35.7,0,79.73,0Z" transform="translate(3.241 3.241)" fill="#b7b7b7"/>
      <g id="Grupo_1546" data-name="Grupo 1546" transform="translate(23.96 11.408)">
        <path id="Trazado_4476" data-name="Trazado 4476" d="M2786.923,1440.626l3.954-20.354c.907-4.6.129-8.038-2.2-10.176-2.269-2.075-6.157-3.112-11.862-3.112h-6.871l1.945-10.112a1.357,1.357,0,0,0-.259-1.1,1.168,1.168,0,0,0-.973-.454h-9.464a1.325,1.325,0,0,0-1.3,1.037l-4.213,21.586a11.537,11.537,0,0,0-2.853-6.223c-2.788-3.177-7.13-4.8-13.029-4.8h-18.215a1.324,1.324,0,0,0-1.3,1.037l-8.491,43.819a1.355,1.355,0,0,0,.259,1.1,1.166,1.166,0,0,0,.972.453h9.529a1.324,1.324,0,0,0,1.3-1.037l2.075-10.566h7.064a31.062,31.062,0,0,0,9.27-1.167,18.386,18.386,0,0,0,6.806-4.084,20.941,20.941,0,0,0,4.019-4.991l-1.685,8.751a1.354,1.354,0,0,0,.26,1.1,1.167,1.167,0,0,0,.973.454h9.463a1.325,1.325,0,0,0,1.3-1.037l4.667-23.984h6.482c2.787,0,3.565.518,3.824.778.194.195.583.972.13,3.371l-3.76,19.381a1.355,1.355,0,0,0,.259,1.1,1.166,1.166,0,0,0,.973.454h9.723A1.809,1.809,0,0,0,2786.923,1440.626Zm-43.82-16.854c-.583,3.047-1.685,5.25-3.305,6.482s-4.278,1.88-7.779,1.88h-4.213l3.047-15.687h5.445c4.019,0,5.639.843,6.288,1.556C2743.427,1419.041,2743.623,1421.05,2743.1,1423.772Z" transform="translate(-2711.772 -1395.316)" fill="#fff"/>
        <path id="Trazado_4477" data-name="Trazado 4477" d="M2957.225,1431.964c-2.787-3.176-7.131-4.8-13.029-4.8h-18.344a1.325,1.325,0,0,0-1.3,1.037l-8.491,43.754a1.357,1.357,0,0,0,.259,1.1,1.166,1.166,0,0,0,.972.454h9.529a1.325,1.325,0,0,0,1.3-1.037l2.074-10.566h7.065a31.065,31.065,0,0,0,9.269-1.167,18.374,18.374,0,0,0,6.806-4.084,20.869,20.869,0,0,0,4.149-5.186,21.57,21.57,0,0,0,2.269-6.223C2960.855,1439.612,2960.012,1435.2,2957.225,1431.964Zm-9.918,12.057c-.583,3.047-1.685,5.25-3.306,6.482s-4.278,1.88-7.779,1.88h-4.213l3.046-15.687h5.445c4.019,0,5.639.843,6.287,1.556C2947.7,1439.289,2947.891,1441.3,2947.307,1444.02Z" transform="translate(-2841.626 -1415.564)" fill="#fff"/>
      </g>
      <g id="Grupo_1547" data-name="Grupo 1547" transform="translate(25.28 12.705)">
        <path id="Trazado_4478" data-name="Trazado 4478" d="M2738.6,1437.661c3.63,0,6.028.649,7.26,2.01s1.491,3.63.843,6.871c-.648,3.37-1.945,5.834-3.824,7.26s-4.732,2.139-8.556,2.139h-5.77l3.566-18.28Zm-23.206,36.818h9.529l2.269-11.6h8.168a28.353,28.353,0,0,0,8.88-1.167,17.023,17.023,0,0,0,6.352-3.824,19.425,19.425,0,0,0,3.889-4.862,18.908,18.908,0,0,0,2.074-5.834c1.037-5.186.259-9.2-2.269-12.121s-6.547-4.343-12.057-4.343h-18.344Z" transform="translate(-2715.395 -1419.122)" fill="#ebebeb"/>
        <path id="Trazado_4479" data-name="Trazado 4479" d="M2832.782,1398.875h9.464l-2.269,11.6h8.427c5.315,0,8.945.908,10.954,2.787s2.593,4.862,1.815,9.01l-3.954,20.354h-9.594l3.76-19.381c.453-2.2.259-3.7-.454-4.473s-2.333-1.231-4.732-1.231h-7.584l-4.862,25.086h-9.463Z" transform="translate(-2784.62 -1398.875)" fill="#ebebeb"/>
        <path id="Trazado_4480" data-name="Trazado 4480" d="M2942.692,1437.661c3.63,0,6.028.649,7.26,2.01s1.491,3.63.842,6.871c-.647,3.37-1.944,5.834-3.824,7.26s-4.732,2.139-8.557,2.139h-5.768l3.565-18.28Zm-23.206,36.818h9.529l2.269-11.6h8.167a28.355,28.355,0,0,0,8.881-1.167,17.029,17.029,0,0,0,6.353-3.824,19.444,19.444,0,0,0,3.888-4.862,18.9,18.9,0,0,0,2.075-5.834c1.037-5.186.26-9.2-2.269-12.121s-6.547-4.343-12.057-4.343h-18.344Z" transform="translate(-2845.136 -1419.122)" fill="#ebebeb"/>
      </g>
    </g>
    <g id="Firebase_logo" data-name="Firebase logo" transform="translate(3466.336 9230.36)">
      <path id="Trazado_4481" data-name="Trazado 4481" d="M0,133.271l1-1.4L48.283,42.154l.1-.95L27.539,2.052A3.868,3.868,0,0,0,20.3,3.273Z" transform="translate(0 0)" fill="#b8b8b8"/>
      <g id="Grupo_1549" data-name="Grupo 1549" transform="translate(0.59 0.613)">
        <path id="Trazado_4482" data-name="Trazado 4482" d="M1.253,132.893l.756-1.474L48.8,42.64,28.005,3.33a3.513,3.513,0,0,0-6.683,1.215Z" transform="translate(-1.253 -1.301)" fill="#b8b8b8"/>
        <g transform="matrix(1, 0, 0, 1, -3320.93, -1.44)" filter="url(#Trazado_4483)">
          <path id="Trazado_4483-2" data-name="Trazado 4483" d="M1.253,132.893l.756-1.474L48.8,42.64,28.005,3.33a3.513,3.513,0,0,0-6.683,1.215Z" transform="translate(3319.67 0.14)" fill="#fff"/>
        </g>
      </g>
      <path id="Trazado_4484" data-name="Trazado 4484" d="M117.766,96.862l15.519-15.895L117.761,51.332a4,4,0,0,0-7.046,0L102.421,67.15V68.5Z" transform="translate(-54.188 -26.044)" fill="#b8b8b8"/>
      <g id="Grupo_1550" data-name="Grupo 1550" transform="translate(48.383 23.781)">
        <path id="Trazado_4485" data-name="Trazado 4485" d="M117.657,96.873l15.088-15.452-15.088-28.73c-1.433-2.727-4.913-3.013-6.331-.278l-8.338,16.063-.25.821Z" transform="translate(-102.739 -50.499)" fill="#b8b8b8"/>
        <g transform="matrix(1, 0, 0, 1, -3368.72, -24.61)" filter="url(#Trazado_4486)">
          <path id="Trazado_4486-2" data-name="Trazado 4486" d="M117.657,96.873l15.088-15.452-15.088-28.73c-1.433-2.727-4.913-3.013-6.331-.278l-8.338,16.063-.25.821Z" transform="translate(3265.98 -25.89)" fill="#fff"/>
        </g>
      </g>
      <path id="Trazado_4487" data-name="Trazado 4487" d="M0,179.356l.453-.456,1.646-.669,60.5-60.279.767-2.087L48.276,87.1Z" transform="translate(0 -46.085)" fill="#b8b8b8"/>
      <path id="Trazado_4488" data-name="Trazado 4488" d="M65.516,201.515l54.757-30.538-15.637-96.3a3.742,3.742,0,0,0-6.342-2.044L0,171.115l54.443,30.4a11.362,11.362,0,0,0,11.073,0" transform="translate(0 -37.844)" fill="#b8b8b8"/>
      <path id="Trazado_4489" data-name="Trazado 4489" d="M120.464,171.236,104.946,75.665c-.486-2.99-3.559-4.227-5.7-2.083L1.289,171.444l53.845,30.1a11.274,11.274,0,0,0,10.989,0Z" transform="translate(-0.682 -38.36)" fill="#b8b8b8"/>
      <path id="Trazado_4490" data-name="Trazado 4490" d="M65.516,311.416a11.362,11.362,0,0,1-11.073,0l-54-29.96L0,281.915l54.443,30.4a11.362,11.362,0,0,0,11.073,0l54.757-30.538-.134-.825Z" transform="translate(0 -148.644)" fill="#b8b8b8"/>
    </g>
    <g id="g2303" transform="translate(3690.381 9288.835)">
      <path id="path46" d="M339.074,268.917q0-7.634-4.354-7.846a8.183,8.183,0,0,0-3.379.555,4.966,4.966,0,0,0-1.775.937v12.148a8.623,8.623,0,0,0,4.943,1.621Q339.073,276.032,339.074,268.917Zm3.58.211a10.8,10.8,0,0,1-1.826,6.438,6.732,6.732,0,0,1-5.651,2.981,10.024,10.024,0,0,1-5.611-1.7v11.041l-3.114-1.111V262.268a6.961,6.961,0,0,1,1.966-1.621,13.49,13.49,0,0,1,6.755-1.662l.044.044a6.2,6.2,0,0,1,5.6,2.981A12.669,12.669,0,0,1,342.655,269.129Z" transform="translate(-276.507 -248.413)" fill="#b7b7b7"/>
      <path id="path48" d="M398.13,276.374q0,5.2-1.043,7.2a7.345,7.345,0,0,1-3.989,3.2,15.261,15.261,0,0,1-5.158,1.025l-.514-1.962a24.771,24.771,0,0,0,3.965-.766,5.237,5.237,0,0,0,3.114-2.344,11.76,11.76,0,0,0,.681-4.9v-.811a15.988,15.988,0,0,1-6.694,1.448,6.151,6.151,0,0,1-4.051-1.448,4.926,4.926,0,0,1-1.962-4.006V260.05l3.114-1.066v13.044a3.965,3.965,0,0,0,1.349,3.219,5.1,5.1,0,0,0,3.492,1.087,8.735,8.735,0,0,0,4.582-1.662V259.454h3.113Z" transform="translate(-312.952 -248.413)" fill="#b7b7b7"/>
      <path id="path50" d="M445.765,267.51c-.371.031-.712.044-1.025.044a6.128,6.128,0,0,1-4.115-1.26,4.354,4.354,0,0,1-1.468-3.485V250.545h-2.133v-1.959h2.133v-5.2l3.11-1.107v6.309h3.5v1.959h-3.5v12.179a2.95,2.95,0,0,0,.94,2.48,4.754,4.754,0,0,0,2.558.685Z" transform="translate(-348.433 -237.545)" fill="#b7b7b7"/>
      <path id="path52" d="M487.723,258.447h-3.114V246.429a5.683,5.683,0,0,0-.855-3.154,3.112,3.112,0,0,0-2.743-1.492q-2.141,0-5.355,2.258v14.406h-3.113V229.72l3.113-.981v13.084a10.852,10.852,0,0,1,6.524-2.174,5.2,5.2,0,0,1,4.006,1.663,5.855,5.855,0,0,1,1.537,4.136v13Z" transform="translate(-371.539 -228.739)" fill="#b7b7b7"/>
      <path id="path54" d="M537.851,268.427a9.568,9.568,0,0,0-1.11-4.848,4.65,4.65,0,0,0-4.092-2.463q-5.12.3-5.117,7.331a12.058,12.058,0,0,0,1.07,5.386,4.3,4.3,0,0,0,4.109,2.712Q537.852,276.5,537.851,268.427Zm3.41.021a11.073,11.073,0,0,1-2.133,6.949,7.669,7.669,0,0,1-6.479,3.11,7.516,7.516,0,0,1-6.4-3.11,11.221,11.221,0,0,1-2.088-6.949,9.921,9.921,0,0,1,2.259-6.609,7.78,7.78,0,0,1,6.268-2.855A7.911,7.911,0,0,1,539,261.839,9.922,9.922,0,0,1,541.261,268.447Z" transform="translate(-405.118 -248.413)" fill="#b7b7b7"/>
      <path id="path56" d="M596.14,278.122h-3.113v-12.7a4.249,4.249,0,0,0-1.257-3.264,4.564,4.564,0,0,0-3.349-1.128,7.481,7.481,0,0,0-4.221,1.448v15.643h-3.114V262.094a15.334,15.334,0,0,1,4.947-2.554,15.081,15.081,0,0,1,3.754-.555,9.732,9.732,0,0,1,2.088.215,6.009,6.009,0,0,1,2.984,1.577,4.172,4.172,0,0,1,1.281,3.069Z" transform="translate(-442.146 -248.413)" fill="#b7b7b7"/>
      <path id="path1948" d="M202.738,231.873a26.8,26.8,0,0,0-4.478.382c-3.965.7-4.685,2.167-4.685,4.871V240.7h9.371v1.191H190.058a5.851,5.851,0,0,0-5.854,4.751,17.513,17.513,0,0,0,0,9.524c.666,2.774,2.257,4.751,4.98,4.751h3.222v-4.281a5.955,5.955,0,0,1,5.854-5.822h9.36a4.721,4.721,0,0,0,4.685-4.762v-8.923c0-2.539-2.142-4.447-4.685-4.871A29.264,29.264,0,0,0,202.738,231.873Zm-5.068,2.872a1.786,1.786,0,1,1-1.758,1.791A1.778,1.778,0,0,1,197.67,234.746Z" transform="translate(-183.544 -230.778)" fill="#b7b7b7"/>
      <path id="path1950" d="M232.144,260.531v4.161a6.01,6.01,0,0,1-5.854,5.941h-9.36a4.78,4.78,0,0,0-4.685,4.762v8.923c0,2.539,2.208,4.034,4.685,4.762a15.677,15.677,0,0,0,9.36,0c2.359-.683,4.685-2.058,4.685-4.762v-3.571h-9.36v-1.19H235.66c2.724,0,3.738-1.9,4.685-4.751.979-2.935.937-5.758,0-9.524-.673-2.711-1.958-4.751-4.685-4.751Zm-5.264,22.6a1.786,1.786,0,1,1-1.758,1.78A1.768,1.768,0,0,1,226.879,283.128Z" transform="translate(-202.213 -249.42)" fill="#b7b7b7"/>
      <path id="text3004" d="M639.1,245.254h.546V241.83h1.293v-.408h-3.132v.408H639.1v3.424m2.323,0h.466v-3.127l1.012,3.127h.519l1.055-3.116v3.117h.509v-3.832h-.673l-1.153,3.283-.983-3.283h-.753v3.832" transform="translate(-479.043 -236.989)" fill="#b7b7b7"/>
      <path id="path1894" d="M228.546,355.042c0,1.345-5.622,2.435-12.558,2.435s-12.558-1.09-12.558-2.435,5.622-2.435,12.558-2.435,12.558,1.09,12.558,2.435Z" transform="translate(-196.48 -309.315)" opacity="0.444" fill="url(#radial-gradient)" style="isolation: isolate"/>
    </g>
    <g id="Xd_logo" data-name="Xd logo" transform="translate(4495.895 9230.36)">
      <path id="Trazado_4491" data-name="Trazado 4491" d="M28.885,0H134.229c15.972,0,28.885,13.244,28.885,29.625V133.489c0,16.381-12.913,29.625-28.885,29.625H28.885C12.913,163.114,0,149.87,0,133.489V29.625C0,13.244,12.913,0,28.885,0Z" fill="#b7b7b7"/>
      <g id="Grupo_1551" data-name="Grupo 1551" transform="translate(23.761 36.623)">
        <path id="Trazado_4492" data-name="Trazado 4492" d="M96.971,61.019,76.581,94.662,98.33,130.343a1.17,1.17,0,0,1,.136.816c-.068.272-.34.068-.748.136H82.155c-1.087,0-1.835-.068-2.311-.748-1.427-2.854-2.922-5.641-4.35-8.5-1.427-2.787-2.99-5.641-4.622-8.563s-3.262-5.845-4.893-8.835h-.136c-1.427,2.922-2.99,5.845-4.554,8.767s-3.126,5.845-4.622,8.7c-1.563,2.855-3.126,5.777-4.69,8.563-.272.68-.816.748-1.563.748H35.463c-.272,0-.476.136-.476-.2a.944.944,0,0,1,.136-.748L56.26,95.817,35.667,60.951c-.2-.272-.272-.544-.136-.68a.788.788,0,0,1,.68-.272H51.639a4.011,4.011,0,0,1,.951.136,1.928,1.928,0,0,1,.68.612c1.291,2.922,2.787,5.845,4.35,8.767,1.631,2.922,3.194,5.777,4.893,8.631,1.631,2.854,3.126,5.709,4.554,8.631H67.2c1.427-2.99,2.922-5.913,4.418-8.767s3.058-5.709,4.622-8.563S79.3,63.67,80.8,60.884a1.156,1.156,0,0,1,.408-.68,1.3,1.3,0,0,1,.884-.136h14.34a.626.626,0,0,1,.748.476c.068.068-.068.34-.2.476Z" transform="translate(-34.961 -54.077)" fill="#ebebeb"/>
        <path id="Trazado_4493" data-name="Trazado 4493" d="M158.912,129.93a33.788,33.788,0,0,1-14.612-3.058,23.694,23.694,0,0,1-10.263-9.243c-2.515-4.146-3.738-9.311-3.738-15.5a27.914,27.914,0,0,1,3.738-14.34,28.224,28.224,0,0,1,10.806-10.534c4.758-2.651,10.467-3.942,17.195-3.942a12.135,12.135,0,0,1,1.427.068c.612.068,1.291.068,2.107.136V52.043c0-.476.2-.748.68-.748h13.8a.609.609,0,0,1,.68.476v64.838c0,1.223.068,2.583.136,4.078.136,1.427.2,2.787.272,3.942a1.1,1.1,0,0,1-.68,1.087,51.907,51.907,0,0,1-11.078,3.262A59.952,59.952,0,0,1,158.912,129.93Zm6.66-13.593v-29.9a17.386,17.386,0,0,0-1.835-.34c-.748-.068-1.5-.136-2.243-.136a16.754,16.754,0,0,0-7.68,1.767,15.236,15.236,0,0,0-5.777,5.029,15.066,15.066,0,0,0-2.243,8.631,18.938,18.938,0,0,0,1.155,7,13.283,13.283,0,0,0,3.058,4.825,11.741,11.741,0,0,0,4.622,2.719,17.791,17.791,0,0,0,5.641.884c1.019,0,1.971-.068,2.854-.136a5.945,5.945,0,0,0,2.447-.34Z" transform="translate(-65.502 -51.284)" fill="#ebebeb"/>
      </g>
    </g>
  </g>
</svg>
