<svg id="Javascript_logo" data-name="Javascript logo" xmlns="http://www.w3.org/2000/svg" width="165.941" height="165.942" viewBox="0 0 165.941 165.942">
  <path id="Trazado_4367" data-name="Trazado 4367" d="M0,0H165.942V165.942H0Z" fill="#b7b7b7"/>
  <path id="Trazado_4368" data-name="Trazado 4368" d="M67.312,180.019l12.7-7.685c2.45,4.344,4.678,8.019,10.024,8.019,5.124,0,8.355-2,8.355-9.8V117.529h15.595v53.243c0,16.151-9.468,23.5-23.281,23.5-12.475,0-19.716-6.461-23.392-14.258" transform="translate(-23.679 -41.345)" fill="#ebebeb"/>
  <path id="Trazado_4369" data-name="Trazado 4369" d="M152.381,177.863l12.7-7.351c3.343,5.459,7.687,9.468,15.372,9.468,6.462,0,10.582-3.231,10.582-7.687,0-5.346-4.233-7.24-11.362-10.358l-3.9-1.672c-11.251-4.789-18.715-10.8-18.715-23.5,0-11.7,8.912-20.608,22.836-20.608,9.914,0,17.043,3.454,22.166,12.476l-12.142,7.8c-2.674-4.79-5.569-6.683-10.025-6.683-4.567,0-7.464,2.9-7.464,6.683,0,4.678,2.9,6.572,9.579,9.469l3.9,1.67c13.255,5.682,20.719,11.473,20.719,24.5,0,14.036-11.027,21.722-25.842,21.722-14.48,0-23.837-6.906-28.4-15.929" transform="translate(-53.606 -40.861)" fill="#ebebeb"/>
</svg>
