<svg id="Dart_logo" data-name="Dart logo" xmlns="http://www.w3.org/2000/svg" width="165.943" height="51.896" viewBox="0 0 165.943 51.896">
  <g id="Grupo_1515" data-name="Grupo 1515" transform="translate(78.234 7.476)" opacity="0.54">
    <path id="Trazado_4412" data-name="Trazado 4412" d="M207.08,20.2h10.5a18.944,18.944,0,0,1,9.337,2.211,15.246,15.246,0,0,1,6.127,6.15,18.647,18.647,0,0,1,2.139,9.043,18.647,18.647,0,0,1-2.139,9.043,15.222,15.222,0,0,1-6.127,6.15,18.924,18.924,0,0,1-9.337,2.211h-10.5Zm10.5,30.878q6.176,0,9.8-3.549T231,37.608q0-6.371-3.622-9.92t-9.8-3.55h-6.417V51.074h6.417Z" transform="translate(-207.08 -20.2)" fill="#b7b7b7"/>
    <path id="Trazado_4413" data-name="Trazado 4413" d="M290.232,69.721a8,8,0,0,1-3.305-2.943,7.871,7.871,0,0,1-1.167-4.255,7.234,7.234,0,0,1,2.966-6.15,12.169,12.169,0,0,1,7.488-2.211,16.9,16.9,0,0,1,4.156.488,10.844,10.844,0,0,1,2.943,1.117V54.261a5.582,5.582,0,0,0-1.944-4.449,7.26,7.26,0,0,0-4.911-1.678,8.306,8.306,0,0,0-3.843.9,7.014,7.014,0,0,0-2.772,2.5l-3.111-2.333a9.945,9.945,0,0,1,4.011-3.5,12.592,12.592,0,0,1,5.665-1.266q5.055,0,7.949,2.65a9.311,9.311,0,0,1,2.894,7.221v15.7h-3.938V66.465h-.194a8.853,8.853,0,0,1-3.21,3.061,9.286,9.286,0,0,1-4.815,1.266A10.746,10.746,0,0,1,290.232,69.721Zm9.143-3.645a8.132,8.132,0,0,0,2.867-2.867,7.564,7.564,0,0,0,1.071-3.938,10.222,10.222,0,0,0-2.867-1.266,13.048,13.048,0,0,0-3.6-.488,7.947,7.947,0,0,0-5.128,1.411,4.5,4.5,0,0,0-1.727,3.645,4.055,4.055,0,0,0,1.555,3.305,6.042,6.042,0,0,0,3.938,1.266A7.474,7.474,0,0,0,299.375,66.076Z" transform="translate(-255.763 -35.198)" fill="#b7b7b7"/>
    <path id="Trazado_4414" data-name="Trazado 4414" d="M353.57,35.509h3.938v3.938h.194a6.742,6.742,0,0,1,2.966-3.4,8.946,8.946,0,0,1,4.571-1.216,9.553,9.553,0,0,1,1.8.145V39.2a10.2,10.2,0,0,0-2.238-.194,6.723,6.723,0,0,0-5.128,2.089,7.63,7.63,0,0,0-1.971,5.444V60.3H353.57V35.509ZM379.236,60.2a6.349,6.349,0,0,1-2.165-1.338,6.1,6.1,0,0,1-1.46-2.177,8.267,8.267,0,0,1-.488-3.02v-14.8H370.8V35.12h4.327v-7h4.133v7h6.028v3.744h-6.028V52.681a4.981,4.981,0,0,0,.778,3.081,3.3,3.3,0,0,0,2.673,1.094,5.025,5.025,0,0,0,2.722-.827v4.038a6.562,6.562,0,0,1-1.483.488,10.27,10.27,0,0,1-1.921.145A7.863,7.863,0,0,1,379.236,60.2Z" transform="translate(-297.72 -25.1)" fill="#b7b7b7"/>
  </g>
  <g id="Grupo_1516" data-name="Grupo 1516" transform="translate(0 0)">
    <path id="Trazado_4415" data-name="Trazado 4415" d="M12.464,56.3,3.588,47.428a6.036,6.036,0,0,1-1.708-4.1,6.9,6.9,0,0,1,.682-2.39L10.756,23.87Z" transform="translate(-1.88 -14.994)" fill="#b7b7b7"/>
    <path id="Trazado_4416" data-name="Trazado 4416" d="M57.26,11.174,48.385,2.3A6.125,6.125,0,0,0,44.629.59a6.319,6.319,0,0,0-3.073.682L25.17,9.466Z" transform="translate(-16.291 -0.59)" fill="#b7b7b7"/>
    <path id="Trazado_4417" data-name="Trazado 4417" d="M42.445,113.429h21.51V104.21L47.908,99.09,33.23,104.21Z" transform="translate(-21.278 -61.536)" fill="#b7b7b7"/>
    <path id="Trazado_4418" data-name="Trazado 4418" d="M25.17,51.533c0,2.737.343,3.412,1.708,4.781l1.365,1.365H58.968L43.947,40.61,25.17,23.88Z" transform="translate(-16.291 -15.001)" fill="#b7b7b7"/>
    <path id="Trazado_4419" data-name="Trazado 4419" d="M52.473,23.87H25.16l33.8,33.8h9.219V36.5L57.254,25.578C55.722,24.038,54.357,23.87,52.473,23.87Z" transform="translate(-16.284 -14.994)" fill="#b7b7b7"/>
    <path id="Trazado_4420" data-name="Trazado 4420" d="M27.211,56.647c-1.365-1.373-1.708-2.722-1.708-5.12V24.213l-.343-.343V51.523c0,2.4,0,3.065,2.051,5.124l1.026,1.026h0Z" transform="translate(-16.284 -14.994)" fill="#b7b7b7" opacity="0.2"/>
    <path id="Trazado_4421" data-name="Trazado 4421" d="M122.139,56.11V77.277H112.92l.343.339h9.219V56.453Z" transform="translate(-70.585 -34.943)" fill="#b7b7b7" opacity="0.2"/>
    <path id="Trazado_4422" data-name="Trazado 4422" d="M57.26,25.578c-1.693-1.693-3.081-1.708-5.12-1.708H25.17l.343.343H52.144c1.014,0,3.588-.172,5.116,1.365Z" transform="translate(-16.291 -14.994)" fill="#b7b7b7" opacity="0.2"/>
    <path id="Trazado_4423" data-name="Trazado 4423" d="M53.44,21.757,42.856,11.174,33.98,2.3A6.125,6.125,0,0,0,30.225.59a6.319,6.319,0,0,0-3.073.682L10.766,9.466,2.572,26.534a6.9,6.9,0,0,0-.682,2.39,6.036,6.036,0,0,0,1.708,4.1l8.182,8.121a9.223,9.223,0,0,0,.7.755l.343.343,1.026,1.026,8.876,8.876.343.343h21.51V43.268h9.219V22.1Z" transform="translate(-1.886 -0.59)" fill="#b7b7b7" opacity="0.2"/>
  </g>
</svg>
