<svg id="Grupo_1518" data-name="Grupo 1518" xmlns="http://www.w3.org/2000/svg" width="165.941" height="108.874" viewBox="0 0 165.941 108.874">
  <path id="Trazado_4424" data-name="Trazado 4424" d="M599.291,808.678v-21.59L580.6,776.3l-18.7,10.788v21.59l18.7,10.8Z" transform="translate(-520.411 -751.276)" fill="#b8b8b8"/>
  <path id="Trazado_4425" data-name="Trazado 4425" d="M1830.9,805.4l12.184,7.037-12.184,7.037-18.7-10.795V787.1l18.7-10.8,11.327,6.542a82.677,82.677,0,0,1,2.111,14.8l-6.926,4v-7.517l-6.512-3.758-6.512,3.758v7.517Z" transform="translate(-1678.392 -751.276)" fill="#b8b8b8"/>
  <path id="Trazado_4426" data-name="Trazado 4426" d="M2023.558,1018.091V1013.9l-3.625-2.1-3.633,2.1v4.194l3.633,2.1Z" transform="translate(-1867.422 -969.388)" fill="#b8b8b8"/>
  <path id="Trazado_4427" data-name="Trazado 4427" d="M32.658,787.095v28.464l-12.471-7.111v-14.6l-6.224-3.6-6.224,3.6v14.59L.657,812.48a83.825,83.825,0,0,1,1.5-29.365L13.963,776.3Z" transform="translate(0 -751.276)" fill="#b8b8b8"/>
  <path id="Trazado_4428" data-name="Trazado 4428" d="M580.588,776.2l18.7,32.378-18.7,10.8L561.9,786.995Z" transform="translate(-520.411 -751.184)" fill="#b8b8b8"/>
  <path id="Trazado_4429" data-name="Trazado 4429" d="M561.9,943.99l6.416-10.47L561.9,922.4Z" transform="translate(-520.411 -886.589)" fill="#b8b8b8"/>
  <path id="Trazado_4430" data-name="Trazado 4430" d="M827.556,797.883l6.232-10.8L815.1,776.3Z" transform="translate(-754.915 -751.276)" fill="#b8b8b8"/>
  <path id="Trazado_4431" data-name="Trazado 4431" d="M1209.165,437.4v28.642l-6.269-3.618-18.7,10.795v21.59l18.7,10.795,18.7-10.795V444.053Zm-.037,50.2-6.232,3.6-6.232-3.6V480.41l6.232-3.6,6.232,3.6Z" transform="translate(-1096.763 -437.4)" fill="#b8b8b8"/>
  <g id="Grupo_1517" data-name="Grupo 1517" transform="translate(63.153 64.542)">
    <path id="Trazado_4432" data-name="Trazado 4432" d="M1078.248,1500.095a3.638,3.638,0,0,0-3.744-3.153c-3.374,0-5.686.443-5.686,2.311s6.564,1.868,9.06,2.607,4.7,2.643,3.6,6.018-4.474,3.743-9.687,3.743a6.053,6.053,0,0,1-6.387-6.018h2.939s-.369,2.643,3.079,3.079,6.749.687,7.192-1.979c.591-3.522-11.157-1.765-12.183-5.213-.871-2.917-.369-6.749,5.5-7.34s9.1,2.008,9.1,5.87Z" transform="translate(-1049.887 -1480.587)" fill="#b8b8b8"/>
    <path id="Trazado_4433" data-name="Trazado 4433" d="M855.3,1344.764l6.49,3.744a4.893,4.893,0,0,0,7.339-4.238v-18.651h-2.643v17.913a2.67,2.67,0,0,1-4.009,2.311l-4.526-2.614v-19.117l16.555-9.554,16.554,9.554v19.117l-16.554,9.554-4.77-2.754-3.116,1.255,7.886,4.549,19.2-11.083v-22.166l-19.2-11.083-19.2,11.083Z" transform="translate(-855.3 -1311.5)" fill="#b8b8b8"/>
  </g>
</svg>
