<svg id="Grupo_1519" data-name="Grupo 1519" xmlns="http://www.w3.org/2000/svg" width="89.221" height="165.942" viewBox="0 0 89.221 165.942">
  <path id="Trazado_4434" data-name="Trazado 4434" d="M492.333,381.612h-.625v-.35h1.683v.35h-.621v1.745h-.437Zm3.357.091h-.01l-.62,1.654h-.284l-.615-1.654h-.007v1.654h-.412v-2.094h.606l.571,1.483.568-1.483h.6v2.094h-.4V381.7Z" transform="translate(-406.87 -250.754)" fill="#b8b8b8"/>
  <path id="Trazado_4435" data-name="Trazado 4435" d="M390.208,306.529s-4.349,2.529,3.1,3.385c9.019,1.03,13.629.882,23.568-1a41.072,41.072,0,0,0,6.262,3.057c-22.281,9.55-50.428-.553-32.927-5.443" transform="translate(-360.709 -218.505)" fill="#b8b8b8"/>
  <path id="Trazado_4436" data-name="Trazado 4436" d="M384.921,284.608s-4.878,3.611,2.572,4.382c9.635.994,17.244,1.076,30.41-1.46a13.5,13.5,0,0,0,4.685,2.855c-26.941,7.878-56.947.622-37.667-5.777" transform="translate(-358.146 -209.046)" fill="#b8b8b8"/>
  <path id="Trazado_4437" data-name="Trazado 4437" d="M426.126,223.758c5.49,6.321-1.442,12.009-1.442,12.009s13.941-7.2,7.539-16.208c-5.98-8.4-10.565-12.58,14.259-26.976,0,0-38.966,9.732-20.355,31.176" transform="translate(-376.397 -169.334)" fill="#b8b8b8"/>
  <path id="Trazado_4438" data-name="Trazado 4438" d="M423.539,322.013s3.218,2.652-3.545,4.7c-12.861,3.9-53.53,5.073-64.828.155-4.061-1.766,3.555-4.219,5.95-4.733a15.441,15.441,0,0,1,3.926-.441c-4.517-3.181-29.193,6.247-12.534,8.948,45.43,7.368,82.814-3.318,71.03-8.633" transform="translate(-344.34 -224.771)" fill="#b8b8b8"/>
  <path id="Trazado_4439" data-name="Trazado 4439" d="M382.869,261.881s-20.687,4.914-7.326,6.7c5.642.755,16.887.585,27.363-.293,8.561-.723,17.158-2.258,17.158-2.258a36.323,36.323,0,0,0-5.2,2.784c-21.007,5.526-61.589,2.955-49.906-2.7,9.881-4.776,17.914-4.235,17.914-4.235" transform="translate(-351.279 -199.23)" fill="#b8b8b8"/>
  <path id="Trazado_4440" data-name="Trazado 4440" d="M462.993,281.8c21.355-11.1,11.482-21.761,4.59-20.324a15.965,15.965,0,0,0-2.442.656,3.891,3.891,0,0,1,1.825-1.408c13.633-4.793,24.118,14.137-4.4,21.634a1.846,1.846,0,0,0,.429-.559" transform="translate(-394.294 -198.41)" fill="#b8b8b8"/>
  <path id="Trazado_4441" data-name="Trazado 4441" d="M420.7,151.687s11.827,11.831-11.218,30.022c-18.478,14.593-4.213,22.914-.007,32.421-10.787-9.732-18.7-18.3-13.392-26.272,7.794-11.7,29.387-17.379,24.616-36.171" transform="translate(-364.875 -151.687)" fill="#b8b8b8"/>
  <path id="Trazado_4442" data-name="Trazado 4442" d="M389.516,343.364c20.5,1.313,51.975-.728,52.72-10.426,0,0-1.433,3.676-16.941,6.6-17.5,3.293-39.073,2.908-51.871.8,0,0,2.62,2.169,16.091,3.032" transform="translate(-355.828 -229.901)" fill="#b8b8b8"/>
  <path id="Trazado_4443" data-name="Trazado 4443" d="M384.3,400.9a9.3,9.3,0,0,1-5.809,2.618c-2.616,0-4.029-1.569-4.029-4.085,0-2.722,1.514-4.712,7.589-4.712H384.3V400.9m5.336,6.019V388.283c0-4.761-2.714-7.9-9.261-7.9a24.4,24.4,0,0,0-9.89,2.147l.786,3.3a22.99,22.99,0,0,1,7.637-1.518c3.771,0,5.393,1.518,5.393,4.656v2.356h-1.882c-9.163,0-13.3,3.557-13.3,8.894,0,4.608,2.724,7.226,7.852,7.226a11.842,11.842,0,0,0,8.058-3.353l.418,2.829h4.186Z" transform="translate(-353.972 -250.374)" fill="#b8b8b8"/>
  <path id="Trazado_4444" data-name="Trazado 4444" d="M425.4,407.275h-6.654l-8.009-26.063h5.812l4.969,16.014,1.1,4.816a100.123,100.123,0,0,0,5.182-20.83h5.653a105.826,105.826,0,0,1-8.057,26.063" transform="translate(-371.929 -250.733)" fill="#b8b8b8"/>
  <path id="Trazado_4445" data-name="Trazado 4445" d="M469.915,400.9a9.329,9.329,0,0,1-5.816,2.618c-2.611,0-4.028-1.569-4.028-4.085,0-2.722,1.518-4.712,7.592-4.712h2.252V400.9m5.335,6.019V388.283c0-4.761-2.721-7.9-9.26-7.9a24.4,24.4,0,0,0-9.893,2.147l.784,3.3a23.023,23.023,0,0,1,7.64-1.518c3.768,0,5.393,1.518,5.393,4.656v2.356H468.03c-9.164,0-13.3,3.557-13.3,8.894,0,4.608,2.721,7.226,7.849,7.226a11.857,11.857,0,0,0,8.062-3.353l.419,2.829h4.186Z" transform="translate(-390.915 -250.374)" fill="#b8b8b8"/>
  <path id="Trazado_4446" data-name="Trazado 4446" d="M351.772,404.666a14.026,14.026,0,0,1-6.668,4.972l-2.634-3.1a11.058,11.058,0,0,0,4.618-4.328c.706-1.4,1-3.216,1-7.548V364.905h5.668v29.349c0,5.79-.463,8.13-1.983,10.412" transform="translate(-342.471 -243.696)" fill="#b8b8b8"/>
</svg>
