<svg id="Laravel_logo" data-name="Laravel logo" xmlns="http://www.w3.org/2000/svg" width="161.195" height="165.942" viewBox="0 0 161.195 165.942">
  <path id="Trazado_4447" data-name="Trazado 4447" d="M161.1,37.541a2.6,2.6,0,0,1,.091.679V73.838a2.6,2.6,0,0,1-1.305,2.253L129.994,93.3v34.116a2.605,2.605,0,0,1-1.3,2.253L66.291,165.6a2.856,2.856,0,0,1-.455.188c-.059.02-.113.055-.175.071a2.62,2.62,0,0,1-1.331,0c-.072-.02-.137-.059-.2-.084a2.756,2.756,0,0,1-.428-.175L1.305,129.672A2.6,2.6,0,0,1,0,127.419V20.562a2.655,2.655,0,0,1,.091-.682c.019-.075.065-.143.091-.217a2.561,2.561,0,0,1,.166-.4,2.438,2.438,0,0,1,.179-.231,2.646,2.646,0,0,1,.23-.3,2.533,2.533,0,0,1,.256-.195,2.116,2.116,0,0,1,.286-.224h0L32.5.347a2.6,2.6,0,0,1,2.6,0l31.2,17.962H66.3a3.133,3.133,0,0,1,.286.221,3.015,3.015,0,0,1,.253.195,2.92,2.92,0,0,1,.234.305,2.354,2.354,0,0,1,.176.231,2.786,2.786,0,0,1,.169.4c.026.075.071.143.091.221a2.627,2.627,0,0,1,.091.678V87.3l26-14.969V38.216a2.62,2.62,0,0,1,.091-.675c.023-.078.065-.146.091-.221a3,3,0,0,1,.169-.4c.048-.084.12-.153.176-.23a2.575,2.575,0,0,1,.234-.3,2.452,2.452,0,0,1,.253-.195,2.641,2.641,0,0,1,.286-.224h0L126.1,18a2.6,2.6,0,0,1,2.6,0l31.2,17.962a2.907,2.907,0,0,1,.292.221c.081.065.175.123.25.195a3.1,3.1,0,0,1,.234.305,1.933,1.933,0,0,1,.175.23,2.521,2.521,0,0,1,.169.4A1.808,1.808,0,0,1,161.1,37.541Zm-5.11,34.794V42.715L145.076,49l-15.082,8.684V87.3l26-14.969Zm-31.2,53.582V96.277l-14.836,8.473L67.6,128.929v29.919ZM5.2,25.058V125.916L62.4,158.844V128.932l-29.879-16.91-.01-.006-.013-.006a477.167,477.167,0,0,0-.526-.4l-.007-.009a2.5,2.5,0,0,1-.214-.273,2.79,2.79,0,0,1-.195-.253l0-.01a2.064,2.064,0,0,1-.136-.324,1.936,1.936,0,0,1-.123-.292v0a2.5,2.5,0,0,1-.052-.38,2.24,2.24,0,0,1-.039-.292V40.027L16.118,31.34,5.2,25.062ZM33.8,5.6,7.807,20.562,33.795,35.525l25.99-14.966L33.795,5.6ZM47.319,98.978,62.4,90.3V25.058L51.481,31.343,36.4,40.027v65.239ZM127.4,23.257l-25.99,14.963L127.4,53.182l25.987-14.966Zm-2.6,34.428L109.714,49,98.8,42.715v29.62l15.079,8.681L124.8,87.3Zm-59.8,66.749,38.122-21.764L122.17,91.794,96.2,76.841,66.3,94.057,39.044,109.746Z" transform="translate(0 0)" fill="#b7b7b7"/>
</svg>
