<svg id="Firebase_logo" data-name="Firebase logo" xmlns="http://www.w3.org/2000/svg" xmlns:xlink="http://www.w3.org/1999/xlink" width="120.273" height="165.11" viewBox="0 0 120.273 165.11">
  <defs>
    <filter id="Trazado_4483">
      <feOffset input="SourceAlpha"/>
      <feGaussianBlur stdDeviation="17.5" result="blur"/>
      <feFlood flood-opacity="0.059" result="color"/>
      <feComposite operator="out" in="SourceGraphic" in2="blur"/>
      <feComposite operator="in" in="color"/>
      <feComposite operator="in" in2="SourceGraphic"/>
    </filter>
    <filter id="Trazado_4486">
      <feOffset dx="1" dy="-9" input="SourceAlpha"/>
      <feGaussianBlur stdDeviation="3.5" result="blur-2"/>
      <feFlood flood-opacity="0.09" result="color-2"/>
      <feComposite operator="out" in="SourceGraphic" in2="blur-2"/>
      <feComposite operator="in" in="color-2"/>
      <feComposite operator="in" in2="SourceGraphic"/>
    </filter>
  </defs>
  <path id="Trazado_4481" data-name="Trazado 4481" d="M0,133.271l1-1.4L48.283,42.154l.1-.95L27.539,2.052A3.868,3.868,0,0,0,20.3,3.273Z" transform="translate(0 0)" fill="#b8b8b8"/>
  <g id="Grupo_1549" data-name="Grupo 1549" transform="translate(0.59 0.613)">
    <path id="Trazado_4482" data-name="Trazado 4482" d="M1.253,132.893l.756-1.474L48.8,42.64,28.005,3.33a3.513,3.513,0,0,0-6.683,1.215Z" transform="translate(-1.253 -1.301)" fill="#b8b8b8"/>
    <g transform="matrix(1, 0, 0, 1, -0.59, -0.61)" filter="url(#Trazado_4483)">
      <path id="Trazado_4483-2" data-name="Trazado 4483" d="M1.253,132.893l.756-1.474L48.8,42.64,28.005,3.33a3.513,3.513,0,0,0-6.683,1.215Z" transform="translate(-0.66 -0.69)" fill="#fff"/>
    </g>
  </g>
  <path id="Trazado_4484" data-name="Trazado 4484" d="M117.766,96.862l15.519-15.895L117.761,51.332a4,4,0,0,0-7.046,0L102.421,67.15V68.5Z" transform="translate(-54.188 -26.044)" fill="#b8b8b8"/>
  <g id="Grupo_1550" data-name="Grupo 1550" transform="translate(48.383 23.781)">
    <path id="Trazado_4485" data-name="Trazado 4485" d="M117.657,96.873l15.088-15.452-15.088-28.73c-1.433-2.727-4.913-3.013-6.331-.278l-8.338,16.063-.25.821Z" transform="translate(-102.739 -50.499)" fill="#b8b8b8"/>
    <g transform="matrix(1, 0, 0, 1, -48.38, -23.78)" filter="url(#Trazado_4486)">
      <path id="Trazado_4486-2" data-name="Trazado 4486" d="M117.657,96.873l15.088-15.452-15.088-28.73c-1.433-2.727-4.913-3.013-6.331-.278l-8.338,16.063-.25.821Z" transform="translate(-54.36 -26.72)" fill="#fff"/>
    </g>
  </g>
  <path id="Trazado_4487" data-name="Trazado 4487" d="M0,179.356l.453-.456,1.646-.669,60.5-60.279.767-2.087L48.276,87.1Z" transform="translate(0 -46.085)" fill="#b8b8b8"/>
  <path id="Trazado_4488" data-name="Trazado 4488" d="M65.516,201.515l54.757-30.538-15.637-96.3a3.742,3.742,0,0,0-6.342-2.044L0,171.115l54.443,30.4a11.362,11.362,0,0,0,11.073,0" transform="translate(0 -37.844)" fill="#b8b8b8"/>
  <path id="Trazado_4489" data-name="Trazado 4489" d="M120.464,171.236,104.946,75.665c-.486-2.99-3.559-4.227-5.7-2.083L1.289,171.444l53.845,30.1a11.274,11.274,0,0,0,10.989,0Z" transform="translate(-0.682 -38.36)" fill="#b8b8b8"/>
  <path id="Trazado_4490" data-name="Trazado 4490" d="M65.516,311.416a11.362,11.362,0,0,1-11.073,0l-54-29.96L0,281.915l54.443,30.4a11.362,11.362,0,0,0,11.073,0l54.757-30.538-.134-.825Z" transform="translate(0 -148.644)" fill="#b8b8b8"/>
</svg>
