<svg id="g2303" xmlns="http://www.w3.org/2000/svg" xmlns:xlink="http://www.w3.org/1999/xlink" width="165.941" height="48.161" viewBox="0 0 165.941 48.161">
  <defs>
    <radialGradient id="radial-gradient" cx="0.5" cy="0.5" r="0.5" gradientTransform="matrix(0, -1, -0.852, 0, -17.497, -17.849)" gradientUnits="objectBoundingBox">
      <stop offset="0" stop-color="#b8b8b8" stop-opacity="0.498"/>
      <stop offset="1" stop-color="#7f7f7f" stop-opacity="0"/>
    </radialGradient>
  </defs>
  <path id="path46" d="M339.074,268.917q0-7.634-4.354-7.846a8.183,8.183,0,0,0-3.379.555,4.966,4.966,0,0,0-1.775.937v12.148a8.623,8.623,0,0,0,4.943,1.621Q339.073,276.032,339.074,268.917Zm3.58.211a10.8,10.8,0,0,1-1.826,6.438,6.732,6.732,0,0,1-5.651,2.981,10.024,10.024,0,0,1-5.611-1.7v11.041l-3.114-1.111V262.268a6.961,6.961,0,0,1,1.966-1.621,13.49,13.49,0,0,1,6.755-1.662l.044.044a6.2,6.2,0,0,1,5.6,2.981A12.669,12.669,0,0,1,342.655,269.129Z" transform="translate(-276.507 -248.413)" fill="#b7b7b7"/>
  <path id="path48" d="M398.13,276.374q0,5.2-1.043,7.2a7.345,7.345,0,0,1-3.989,3.2,15.261,15.261,0,0,1-5.158,1.025l-.514-1.962a24.771,24.771,0,0,0,3.965-.766,5.237,5.237,0,0,0,3.114-2.344,11.76,11.76,0,0,0,.681-4.9v-.811a15.988,15.988,0,0,1-6.694,1.448,6.151,6.151,0,0,1-4.051-1.448,4.926,4.926,0,0,1-1.962-4.006V260.05l3.114-1.066v13.044a3.965,3.965,0,0,0,1.349,3.219,5.1,5.1,0,0,0,3.492,1.087,8.735,8.735,0,0,0,4.582-1.662V259.454h3.113Z" transform="translate(-312.952 -248.413)" fill="#b7b7b7"/>
  <path id="path50" d="M445.765,267.51c-.371.031-.712.044-1.025.044a6.128,6.128,0,0,1-4.115-1.26,4.354,4.354,0,0,1-1.468-3.485V250.545h-2.133v-1.959h2.133v-5.2l3.11-1.107v6.309h3.5v1.959h-3.5v12.179a2.95,2.95,0,0,0,.94,2.48,4.754,4.754,0,0,0,2.558.685Z" transform="translate(-348.433 -237.545)" fill="#b7b7b7"/>
  <path id="path52" d="M487.723,258.447h-3.114V246.429a5.683,5.683,0,0,0-.855-3.154,3.112,3.112,0,0,0-2.743-1.492q-2.141,0-5.355,2.258v14.406h-3.113V229.72l3.113-.981v13.084a10.852,10.852,0,0,1,6.524-2.174,5.2,5.2,0,0,1,4.006,1.663,5.855,5.855,0,0,1,1.537,4.136v13Z" transform="translate(-371.539 -228.739)" fill="#b7b7b7"/>
  <path id="path54" d="M537.851,268.427a9.568,9.568,0,0,0-1.11-4.848,4.65,4.65,0,0,0-4.092-2.463q-5.12.3-5.117,7.331a12.058,12.058,0,0,0,1.07,5.386,4.3,4.3,0,0,0,4.109,2.712Q537.852,276.5,537.851,268.427Zm3.41.021a11.073,11.073,0,0,1-2.133,6.949,7.669,7.669,0,0,1-6.479,3.11,7.516,7.516,0,0,1-6.4-3.11,11.221,11.221,0,0,1-2.088-6.949,9.921,9.921,0,0,1,2.259-6.609,7.78,7.78,0,0,1,6.268-2.855A7.911,7.911,0,0,1,539,261.839,9.922,9.922,0,0,1,541.261,268.447Z" transform="translate(-405.118 -248.413)" fill="#b7b7b7"/>
  <path id="path56" d="M596.14,278.122h-3.113v-12.7a4.249,4.249,0,0,0-1.257-3.264,4.564,4.564,0,0,0-3.349-1.128,7.481,7.481,0,0,0-4.221,1.448v15.643h-3.114V262.094a15.334,15.334,0,0,1,4.947-2.554,15.081,15.081,0,0,1,3.754-.555,9.732,9.732,0,0,1,2.088.215,6.009,6.009,0,0,1,2.984,1.577,4.172,4.172,0,0,1,1.281,3.069Z" transform="translate(-442.146 -248.413)" fill="#b7b7b7"/>
  <path id="path1948" d="M202.738,231.873a26.8,26.8,0,0,0-4.478.382c-3.965.7-4.685,2.167-4.685,4.871V240.7h9.371v1.191H190.058a5.851,5.851,0,0,0-5.854,4.751,17.513,17.513,0,0,0,0,9.524c.666,2.774,2.257,4.751,4.98,4.751h3.222v-4.281a5.955,5.955,0,0,1,5.854-5.822h9.36a4.721,4.721,0,0,0,4.685-4.762v-8.923c0-2.539-2.142-4.447-4.685-4.871A29.264,29.264,0,0,0,202.738,231.873Zm-5.068,2.872a1.786,1.786,0,1,1-1.758,1.791A1.778,1.778,0,0,1,197.67,234.746Z" transform="translate(-183.544 -230.778)" fill="#b7b7b7"/>
  <path id="path1950" d="M232.144,260.531v4.161a6.01,6.01,0,0,1-5.854,5.941h-9.36a4.78,4.78,0,0,0-4.685,4.762v8.923c0,2.539,2.208,4.034,4.685,4.762a15.677,15.677,0,0,0,9.36,0c2.359-.683,4.685-2.058,4.685-4.762v-3.571h-9.36v-1.19H235.66c2.724,0,3.738-1.9,4.685-4.751.979-2.935.937-5.758,0-9.524-.673-2.711-1.958-4.751-4.685-4.751Zm-5.264,22.6a1.786,1.786,0,1,1-1.758,1.78A1.768,1.768,0,0,1,226.879,283.128Z" transform="translate(-202.213 -249.42)" fill="#b7b7b7"/>
  <path id="text3004" d="M639.1,245.254h.546V241.83h1.293v-.408h-3.132v.408H639.1v3.424m2.323,0h.466v-3.127l1.012,3.127h.519l1.055-3.116v3.117h.509v-3.832h-.673l-1.153,3.283-.983-3.283h-.753v3.832" transform="translate(-479.043 -236.989)" fill="#b7b7b7"/>
  <path id="path1894" d="M228.546,355.042c0,1.345-5.622,2.435-12.558,2.435s-12.558-1.09-12.558-2.435,5.622-2.435,12.558-2.435,12.558,1.09,12.558,2.435Z" transform="translate(-196.48 -309.315)" opacity="0.444" fill="url(#radial-gradient)" style="isolation: isolate"/>
</svg>
