<svg id="Ionic_logo" data-name="Ionic logo" xmlns="http://www.w3.org/2000/svg" width="164.361" height="55.509" viewBox="0 0 164.361 55.509">
  <g id="icon" transform="translate(0 0)">
    <path id="Shape" d="M93.458,279.6a12.658,12.658,0,1,0,12.658,12.658A12.663,12.663,0,0,0,93.458,279.6Z" transform="translate(-65.704 -264.449)" fill="#b7b7b7"/>
    <circle id="Oval" cx="5.781" cy="5.781" r="5.781" transform="translate(40.111 4.712)" fill="#b7b7b7"/>
    <path id="Shape_1_" d="M78.688,240.575l-.219-.521-.384.466a8.706,8.706,0,0,1-3.48,2.384l-.384.164.164.384a22.038,22.038,0,0,1,1.726,8.685,22.689,22.689,0,1,1-12.959-20.494l.329.164.164-.384a8.618,8.618,0,0,1,2.575-3.37l.466-.384-.521-.274a27.746,27.746,0,1,0,15.042,24.658A28.326,28.326,0,0,0,78.688,240.575Z" transform="translate(-25.7 -224.3)" fill="#b7b7b7"/>
  </g>
  <g id="logotype" transform="translate(69.783 15.096)">
    <rect id="Rectangle-path" width="5.863" height="24.165" transform="translate(0 0.603)" fill="#b7b7b7"/>
    <rect id="Rectangle-path_1_" width="5.863" height="24.165" transform="translate(63.153 0.603)" fill="#b7b7b7"/>
    <path id="Shape_2_" d="M386.361,271.6a12.628,12.628,0,0,0-8,3.178l-.384-2.6H373.1v24.165h5.863v-14.6c0-2.877,3.891-5.206,6.767-5.206,2.795,0,4.987,2.712,4.987,5.973v13.864h5.863V283.08C396.526,276.7,393.786,271.6,386.361,271.6Z" transform="translate(-336.742 -271.545)" fill="#b7b7b7"/>
    <path id="Shape_3_" d="M514.3,291.784c-4.411,0-7.315-3.425-7.315-7.7s2.9-7.7,7.315-7.7c3.726,0,6.028,3.617,6.028,3.617l4.219-2.822a12.716,12.716,0,0,0-4.575-4.192,10.692,10.692,0,0,0-5.507-1.589,12.662,12.662,0,1,0,0,25.316,10.613,10.613,0,0,0,5.507-1.589,12.942,12.942,0,0,0,4.575-4.192l-4.219-2.822C520.323,288.14,518.049,291.784,514.3,291.784Z" transform="translate(-429.963 -271.4)" fill="#b7b7b7"/>
    <path id="path3000_1_" d="M283.858,271.6a12.645,12.645,0,1,0,12.631,12.685C296.489,275.9,289.94,271.6,283.858,271.6Zm.082,4.986c3.617,0,7.069,2.932,7.069,7.7a7.31,7.31,0,0,1-7.1,7.672c-4,0-7.178-3.233-7.178-7.7C276.734,279.82,279.858,276.587,283.94,276.587Z" transform="translate(-262.761 -271.545)" fill="#b7b7b7"/>
  </g>
</svg>
