<svg id="React_logo" data-name="React logo" xmlns="http://www.w3.org/2000/svg" width="163.898" height="145.821" viewBox="0 0 163.898 145.821">
  <path id="Trazado_4448" data-name="Trazado 4448" d="M150,61.778q-2.55-.878-5.276-1.663.447-1.825.815-3.6c3.994-19.387,1.382-35-7.535-40.147-8.55-4.931-22.533.21-36.656,12.5q-2.037,1.773-4.081,3.744-1.361-1.3-2.716-2.508c-14.8-13.141-29.636-18.679-38.544-13.522-8.542,4.945-11.072,19.627-7.477,38q.521,2.662,1.212,5.429c-2.1.6-4.127,1.231-6.066,1.907-17.352,6.05-28.434,15.531-28.434,25.365,0,10.158,11.9,20.345,29.97,26.523q2.139.731,4.431,1.386-.743,2.989-1.287,5.851c-3.428,18.054-.751,32.389,7.768,37.3,8.8,5.074,23.568-.141,37.948-12.712q1.7-1.491,3.42-3.152,2.222,2.14,4.43,4.042c13.93,11.986,27.687,16.827,36.2,11.9,8.791-5.089,11.648-20.489,7.938-39.225q-.424-2.147-.983-4.38,1.556-.46,3.048-.952c18.789-6.225,31.014-16.289,31.014-26.583,0-9.87-11.439-19.415-29.14-25.509Z" transform="translate(-15.243 -14.514)" fill="#b7b7b7"/>
  <path id="Trazado_4449" data-name="Trazado 4449" d="M148.575,109.869c-.9.3-1.816.583-2.753.861a164.225,164.225,0,0,0-8.3-20.763,164.283,164.283,0,0,0,7.977-20.46c1.676.485,3.3,1,4.872,1.537,15.166,5.221,24.418,12.941,24.418,18.889,0,6.336-9.992,14.561-26.215,19.937Zm-6.731,13.338c1.64,8.285,1.874,15.776.788,21.631-.976,5.262-2.939,8.769-5.366,10.174-5.165,2.99-16.211-.9-28.123-11.147q-2.049-1.763-4.121-3.758a164.469,164.469,0,0,0,13.739-17.444,163.45,163.45,0,0,0,22.2-3.421q.5,2.023.887,3.965ZM73.77,154.5c-5.046,1.782-9.066,1.833-11.5.432-5.17-2.982-7.319-14.492-4.387-29.932q.5-2.653,1.2-5.442a164.67,164.67,0,0,0,22.087,3.2,170.477,170.477,0,0,0,14.07,17.382q-1.568,1.513-3.123,2.875c-6.359,5.559-12.731,9.5-18.347,11.486ZM50.128,109.83c-7.992-2.732-14.592-6.282-19.116-10.156-4.065-3.481-6.117-6.937-6.117-9.742,0-5.967,8.9-13.58,23.737-18.754,1.8-.628,3.686-1.219,5.642-1.775a167.828,167.828,0,0,0,7.988,20.7A170.618,170.618,0,0,0,54.174,111.1q-2.092-.6-4.045-1.266Zm7.925-53.945c-3.08-15.741-1.034-27.616,4.113-30.6,5.483-3.174,17.608,1.352,30.387,12.7q1.225,1.088,2.46,2.27A167.775,167.775,0,0,0,81.051,57.535a171.122,171.122,0,0,0-21.871,3.4q-.64-2.574-1.127-5.049Zm70.7,17.457q-2.433-4.2-4.984-8.2c5.229.661,10.24,1.539,14.944,2.612a149.32,149.32,0,0,1-5.246,14.113q-2.229-4.234-4.715-8.529ZM99.921,45.261A149.806,149.806,0,0,1,109.566,56.9q-4.809-.227-9.723-.23-4.861,0-9.648.226c3.184-4.2,6.446-8.1,9.726-11.639ZM70.906,73.391q-2.43,4.214-4.627,8.476C64.24,77.03,62.5,72.275,61.071,67.684c4.676-1.046,9.663-1.9,14.859-2.551q-2.582,4.027-5.024,8.257Zm5.174,41.84A149.058,149.058,0,0,1,60.975,112.8c1.448-4.673,3.23-9.53,5.312-14.469q2.2,4.251,4.646,8.481h0q2.49,4.3,5.146,8.417ZM100.115,135.1c-3.318-3.581-6.628-7.541-9.861-11.8q4.707.185,9.589.186,5.011,0,9.894-.22a149.017,149.017,0,0,1-9.622,11.835Zm33.418-37.016a148.512,148.512,0,0,1,5.5,14.418,148.6,148.6,0,0,1-15.289,2.606q2.553-4.044,5.032-8.34,2.5-4.342,4.753-8.684Zm-10.819,5.186c-2.562,4.442-5.192,8.683-7.862,12.686-4.864.348-9.889.527-15.01.527-5.1,0-10.061-.159-14.839-.469-2.777-4.055-5.465-8.309-8.011-12.706h0C74.454,98.921,72.117,94.5,70,90.1c2.117-4.408,4.447-8.835,6.972-13.213h0c2.531-4.389,5.2-8.622,7.947-12.652,4.874-.368,9.873-.561,14.924-.561h0c5.075,0,10.079.194,14.952.565,2.711,4,5.356,8.219,7.9,12.609,2.57,4.439,4.931,8.837,7.066,13.15-2.128,4.388-4.483,8.83-7.042,13.267Zm14.444-78.187c5.488,3.165,7.623,15.93,4.174,32.668-.22,1.068-.468,2.156-.737,3.258a167.7,167.7,0,0,0-21.914-3.462,164.414,164.414,0,0,0-13.855-17.291q1.89-1.817,3.77-3.457c12.1-10.53,23.409-14.688,28.562-11.716Z" transform="translate(-17.894 -17.159)" fill="#ebebeb"/>
  <path id="Trazado_4450" data-name="Trazado 4450" d="M122.679,94.665A14.636,14.636,0,1,1,108.044,109.3a14.635,14.635,0,0,1,14.635-14.635" transform="translate(-40.731 -36.528)" fill="#b7b7b7"/>
</svg>
