<svg id="Xd_logo" data-name="Xd logo" xmlns="http://www.w3.org/2000/svg" width="163.113" height="163.114" viewBox="0 0 163.113 163.114">
  <path id="Trazado_4491" data-name="Trazado 4491" d="M28.885,0H134.229c15.972,0,28.885,13.244,28.885,29.625V133.489c0,16.381-12.913,29.625-28.885,29.625H28.885C12.913,163.114,0,149.87,0,133.489V29.625C0,13.244,12.913,0,28.885,0Z" fill="#b7b7b7"/>
  <g id="Grupo_1551" data-name="Grupo 1551" transform="translate(23.761 36.623)">
    <path id="Trazado_4492" data-name="Trazado 4492" d="M96.971,61.019,76.581,94.662,98.33,130.343a1.17,1.17,0,0,1,.136.816c-.068.272-.34.068-.748.136H82.155c-1.087,0-1.835-.068-2.311-.748-1.427-2.854-2.922-5.641-4.35-8.5-1.427-2.787-2.99-5.641-4.622-8.563s-3.262-5.845-4.893-8.835h-.136c-1.427,2.922-2.99,5.845-4.554,8.767s-3.126,5.845-4.622,8.7c-1.563,2.855-3.126,5.777-4.69,8.563-.272.68-.816.748-1.563.748H35.463c-.272,0-.476.136-.476-.2a.944.944,0,0,1,.136-.748L56.26,95.817,35.667,60.951c-.2-.272-.272-.544-.136-.68a.788.788,0,0,1,.68-.272H51.639a4.011,4.011,0,0,1,.951.136,1.928,1.928,0,0,1,.68.612c1.291,2.922,2.787,5.845,4.35,8.767,1.631,2.922,3.194,5.777,4.893,8.631,1.631,2.854,3.126,5.709,4.554,8.631H67.2c1.427-2.99,2.922-5.913,4.418-8.767s3.058-5.709,4.622-8.563S79.3,63.67,80.8,60.884a1.156,1.156,0,0,1,.408-.68,1.3,1.3,0,0,1,.884-.136h14.34a.626.626,0,0,1,.748.476c.068.068-.068.34-.2.476Z" transform="translate(-34.961 -54.077)" fill="#ebebeb"/>
    <path id="Trazado_4493" data-name="Trazado 4493" d="M158.912,129.93a33.788,33.788,0,0,1-14.612-3.058,23.694,23.694,0,0,1-10.263-9.243c-2.515-4.146-3.738-9.311-3.738-15.5a27.914,27.914,0,0,1,3.738-14.34,28.224,28.224,0,0,1,10.806-10.534c4.758-2.651,10.467-3.942,17.195-3.942a12.135,12.135,0,0,1,1.427.068c.612.068,1.291.068,2.107.136V52.043c0-.476.2-.748.68-.748h13.8a.609.609,0,0,1,.68.476v64.838c0,1.223.068,2.583.136,4.078.136,1.427.2,2.787.272,3.942a1.1,1.1,0,0,1-.68,1.087,51.907,51.907,0,0,1-11.078,3.262A59.952,59.952,0,0,1,158.912,129.93Zm6.66-13.593v-29.9a17.386,17.386,0,0,0-1.835-.34c-.748-.068-1.5-.136-2.243-.136a16.754,16.754,0,0,0-7.68,1.767,15.236,15.236,0,0,0-5.777,5.029,15.066,15.066,0,0,0-2.243,8.631,18.938,18.938,0,0,0,1.155,7,13.283,13.283,0,0,0,3.058,4.825,11.741,11.741,0,0,0,4.622,2.719,17.791,17.791,0,0,0,5.641.884c1.019,0,1.971-.068,2.854-.136a5.945,5.945,0,0,0,2.447-.34Z" transform="translate(-65.502 -51.284)" fill="#ebebeb"/>
  </g>
</svg>
