<svg id="Grupo_1498" data-name="Grupo 1498" xmlns="http://www.w3.org/2000/svg" width="145.863" height="165.426" viewBox="0 0 145.863 165.426">
  <path id="Trazado_4370" data-name="Trazado 4370" d="M1874.288,1462.8l-59.568-16.536-13.275-148.889h145.864l-13.288,148.866-59.733,16.56Z" transform="translate(-1801.445 -1297.373)" fill="#b7b7b7"/>
  <path id="Trazado_4371" data-name="Trazado 4371" d="M2023.473,1453.59l11.355-127.213h-59.623v140.594l48.268-13.381Z" transform="translate(-1902.274 -1314.203)" fill="#ececec"/>
  <path id="Trazado_4372" data-name="Trazado 4372" d="M1873.948,1457.941l1.637,18.261h40.865v-18.261Z" transform="translate(-1843.517 -1390.546)" fill="#ebebeb"/>
  <path id="Trazado_4373" data-name="Trazado 4373" d="M1866.113,1369.884l1.66,18.261h44.13v-18.261Z" transform="translate(-1838.97 -1339.449)" fill="#ebebeb"/>
  <path id="Trazado_4374" data-name="Trazado 4374" d="M1919.84,1543.234l-.08.021-20.337-5.492-1.3-14.564h-18.331l2.558,28.672,37.405,10.384.085-.024v-19Z" transform="translate(-1846.908 -1428.414)" fill="#ebebeb"/>
  <path id="Trazado_4375" data-name="Trazado 4375" d="M2017.5,1406.844l3.3-36.96h-45.743v18.261h25.731l-1.661,18.7h-24.07V1425.1h22.486l-2.12,23.683-20.367,5.5v19l37.436-10.375.274-3.085,4.291-48.074.445-4.9Z" transform="translate(-1902.186 -1339.449)" fill="#fff"/>
</svg>
