<svg id="Photoshop_logo" data-name="Photoshop logo" xmlns="http://www.w3.org/2000/svg" width="164.164" height="158.778" viewBox="0 0 164.164 158.778">
  <path id="Trazado_4451" data-name="Trazado 4451" d="M-341.6,493.3h150.511V638.393H-341.6Z" transform="translate(348.443 -486.457)" fill="#b7b7b7"/>
  <path id="Trazado_4452" data-name="Trazado 4452" d="M-355.557,479.287h150.511v145.2H-355.557ZM-362.4,631.279h164.164V472.5H-362.4Zm110.7-93.616c-5.4,0-7.238,2.708-7.238,4.96,0,2.447,1.217,4.144,8.488,7.864,10.725,5.156,14.081,10.115,14.081,17.359,0,10.866-8.356,16.707-19.64,16.707-5.955,0-11.087-1.207-14.015-2.9-.493-.2-.559-.555-.559-1.077V570.554c0-.685.329-.881.822-.555a25.656,25.656,0,0,0,13.752,4.014c5.4,0,7.665-2.252,7.665-5.286,0-2.447-1.579-4.6-8.488-8.157-9.705-4.6-13.752-9.267-13.752-17.1,0-8.745,6.909-16.021,18.884-16.021,5.889,0,10,.881,12.238,1.893a1.475,1.475,0,0,1,.691,1.37v9.3c0,.555-.329.881-1.02.685a23.4,23.4,0,0,0-11.909-3.035Zm-58.823,8.06c1.579.13,2.8.13,5.527.13,7.994,0,15.528-2.773,15.528-13.574,0-8.614-5.4-12.954-14.508-12.954-2.731,0-5.33.131-6.58.2l.033,26.2ZM-322.724,509.7c0-.489.954-.816,1.513-.816,4.375-.2,10.889-.326,17.634-.326,18.95,0,26.352,10.311,26.352,23.461,0,17.229-12.6,24.636-28.063,24.636-2.6,0-3.487-.13-5.33-.13v26.039c0,.555-.2.816-.823.816H-321.9c-.559,0-.822-.2-.822-.816V509.7Z" transform="translate(362.4 -472.5)" fill="#ebebeb"/>
</svg>
