<svg id="Illustrator_logo" data-name="Illustrator logo" xmlns="http://www.w3.org/2000/svg" width="164.164" height="158.778" viewBox="0 0 164.164 158.778">
  <path id="Trazado_4453" data-name="Trazado 4453" d="M-341.6,493h150.457V638.1H-341.6Z" transform="translate(348.437 -486.162)" fill="#b7b7b7"/>
  <path id="Trazado_4454" data-name="Trazado 4454" d="M-355.563,478.983h150.457V624.2H-355.563Zm-6.837,152h164.164V472.2H-362.4Zm107.525-102.168c0-.555.2-.815.822-.815H-243.3c.559,0,.822.2.822.815v53.546c0,.554-.131.815-.822.815h-10.618c-.69,0-.888-.326-.888-.88V528.811Zm-.756-15.425a6.615,6.615,0,0,1,6.969-6.913,6.565,6.565,0,0,1,6.969,6.913c0,4.468-2.926,6.913-7.1,6.913C-252.738,520.333-255.631,517.887-255.631,513.387Zm-30.769,37.73c-1.907-7.533-6.443-23.936-8.152-31.893h-.132c-1.446,7.924-5.062,21.359-7.922,31.893Zm-19,10.99-5.391,20.349c-.131.554-.329.685-1.019.685h-10.059c-.69,0-.822-.2-.69-1.011l19.428-67.438a22.065,22.065,0,0,0,.69-5.642c0-.489.2-.685.559-.685h14.365c.493,0,.69.131.822.685l21.762,73.21c.131.554,0,.88-.559.88h-11.341c-.559,0-.888-.13-1.019-.62l-5.621-20.414H-305.4Z" transform="translate(362.4 -472.2)" fill="#ebebeb"/>
</svg>
