<svg id="Grupo_1521" data-name="Grupo 1521" xmlns="http://www.w3.org/2000/svg" width="164.164" height="160.061" viewBox="0 0 164.164 160.061">
  <path id="Trazado_4455" data-name="Trazado 4455" d="M20.806,33.927H171.291V180.308H20.806Z" transform="translate(-13.966 -27.087)" fill="#b7b7b7"/>
  <g id="Grupo_1520" data-name="Grupo 1520" transform="translate(0 0)">
    <path id="Trazado_4456" data-name="Trazado 4456" d="M6.84,19.961H157.325V166.342H6.84ZM0,173.182H164.165V13.121H0Zm116.146-82.9a30.2,30.2,0,0,0,5.062-.137c0-.479.137-.821.137-1.163,0-3.694-1.779-10.534-8.892-10.534-6.567,0-9.371,5.746-10.055,11.834Zm-13.885,9.371c.137,9.235,4.514,15.459,14.912,15.459a26.768,26.768,0,0,0,11.149-2.12c.479-.205.821-.137.821.479v8.55a1.449,1.449,0,0,1-.684,1.368c-3.625,1.778-8.14,2.6-13.749,2.6-18.058,0-24.83-13.338-24.83-28.181,0-16.143,8.345-29.344,23.052-29.344,14.912,0,20.11,12.518,20.11,22.71a34.6,34.6,0,0,1-.547,7.251,1.017,1.017,0,0,1-.889.89,99.055,99.055,0,0,1-11.423.478H102.261v-.137ZM65.6,92.673c-1.915-7.593-6.567-24.146-8.277-32.149h-.137c-1.436,8-5.2,21.547-8,32.149ZM46.376,103.754l-5.4,20.452c-.137.547-.342.753-1.026.753H29.891c-.684,0-.821-.205-.684-1.026L48.633,56.009a20.948,20.948,0,0,0,.684-5.608c0-.479.205-.684.547-.684H64.229c.479,0,.684.137.821.684L86.8,124.069c.137.547,0,.889-.547.889H74.968a.926.926,0,0,1-1.026-.684l-5.609-20.521H46.376Z" transform="translate(0 -13.121)" fill="#ebebeb"/>
  </g>
</svg>
