<svg id="Grupo_1522" data-name="Grupo 1522" xmlns="http://www.w3.org/2000/svg" width="162.848" height="158.777" viewBox="0 0 162.848 158.777">
  <rect id="Rectángulo_399" data-name="Rectángulo 399" width="150.675" height="145.619" transform="translate(6.068 6.337)" fill="#b7b7b7"/>
  <path id="Trazado_4457" data-name="Trazado 4457" d="M52.761,132.195c-.814,0-1.018-.339-1.018-1.018V58.234c0-.543.2-.882.815-.882h10.72c.543,0,.678.2.678.815V121H91.912c.543,0,.747.2.611.814l-1.7,9.635a.962.962,0,0,1-1.018.814H52.761v-.067Zm50.212-43.969c0-.814,0-2.782-.339-6.582a.778.778,0,0,1,.543-.882,71.367,71.367,0,0,1,24.97-4.682c.543,0,.814.136.814.678v9.771c0,.543-.2.679-.814.679-4.275-.2-10.585.339-12.96,1.357V131.38c0,.543-.2.814-.814.814H103.719c-.543,0-.814-.2-.814-.814V88.226ZM7.638,180.167H170.487V21.39H7.638V180.167ZM14.423,28.175H163.7V173.382H14.423V28.175Z" transform="translate(-7.638 -21.39)" fill="#ebebeb"/>
</svg>
