<svg id="Grupo_1525" data-name="Grupo 1525" xmlns="http://www.w3.org/2000/svg" xmlns:xlink="http://www.w3.org/1999/xlink" width="165.531" height="26.702" viewBox="0 0 165.531 26.702">
  <defs>
    <clipPath id="clip-path">
      <rect id="Rectángulo_400" data-name="Rectángulo 400" width="165.531" height="26.702" fill="#b7b7b7"/>
    </clipPath>
  </defs>
  <g id="Grupo_1524" data-name="Grupo 1524" transform="translate(0 0)">
    <g id="Grupo_1523" data-name="Grupo 1523" transform="translate(0 0)" clip-path="url(#clip-path)">
      <path id="Trazado_4458" data-name="Trazado 4458" d="M-390.575,468.659a1.42,1.42,0,0,1,1.918.06c1.343,1.329,2.673,2.673,4.011,4.006q-1,1-2.007,2.007c-.828-.825-1.65-1.658-2.48-2.48a.7.7,0,0,0-1.045,0q-4.429,4.415-8.846,8.84a.71.71,0,0,0-.043,1.084q4.2,4.214,8.416,8.42a4.17,4.17,0,0,0,.736.664.726.726,0,0,0,.829-.226c.813-.813,1.625-1.63,2.44-2.441l2,2q-1.843,1.849-3.689,3.694a2.219,2.219,0,0,1-.874.657,1.435,1.435,0,0,1-1.494-.389q-5.946-5.947-11.891-11.894a1.429,1.429,0,0,1,.041-2.037c3.994-3.986,7.976-7.989,11.977-11.966" transform="translate(403 -468.315)" fill="#b7b7b7"/>
      <path id="Trazado_4459" data-name="Trazado 4459" d="M-334.959,468.73a1.44,1.44,0,0,1,2.066.068q5.916,5.917,11.833,11.834a1.434,1.434,0,0,1,.381,1.48,2.59,2.59,0,0,1-.759.973q-5.569,5.566-11.134,11.134a2.5,2.5,0,0,1-.946.734,1.416,1.416,0,0,1-1.482-.382q-1.982-1.986-3.966-3.969-1-1-2-2-2.968-2.971-5.937-5.939a1.421,1.421,0,0,1,.033-2.028q2.947-2.951,5.9-5.9,1-1,2.006-2.006c1.338-1.333,2.668-2.673,4.007-4" transform="translate(357.32 -468.324)" fill="#b7b7b7"/>
      <path id="Trazado_4460" data-name="Trazado 4460" d="M-85,490.2a1.734,1.734,0,0,1,1.856.59,3.1,3.1,0,0,1,.3,1.817c-.006,3.476.008,6.951-.006,10.43a1.592,1.592,0,0,1-.976,1.539,1.818,1.818,0,0,1-1.958-.416,2.008,2.008,0,0,1-.391-1.4c.008-3.669-.008-7.336.008-11A1.566,1.566,0,0,1-85,490.2m-43.3.008a1.824,1.824,0,0,1,1.7.359,1.764,1.764,0,0,1,.489,1.348c0,3.7,0,7.41,0,11.115a1.574,1.574,0,0,1-1.191,1.612,1.634,1.634,0,0,1-2.117-1.47c-.017-3.8-.006-7.594-.006-11.391a1.566,1.566,0,0,1,1.126-1.573m65.38,8.688a1.738,1.738,0,0,0-.063,2.913,4.329,4.329,0,0,0,2.471.318,2.712,2.712,0,0,0,2.161-1.2,5.779,5.779,0,0,0,.2-2.432c-.815-.037-1.632-.013-2.447-.017a5.1,5.1,0,0,0-2.323.413m-2.03-8.15A8.7,8.7,0,0,1-61,489.98a6.843,6.843,0,0,1,4.017.971,5.283,5.283,0,0,1,2,4.564c.01,1.625-.01,3.25.01,4.872-.007,1.084,1.12,1.813.974,2.921a1.647,1.647,0,0,1-2.218,1.3c-.65-.163-.944-.812-1.3-1.31a5.275,5.275,0,0,1-4.053,1.55,6.13,6.13,0,0,1-3.786-.937,3.774,3.774,0,0,1-1.515-2.7,4.562,4.562,0,0,1,1.023-3.7A5.955,5.955,0,0,1-61.83,496c1.217-.035,2.436-.021,3.653-.01a2.641,2.641,0,0,0-.775-2.526,3.581,3.581,0,0,0-2.193-.627,6.055,6.055,0,0,0-2.687.553,1.783,1.783,0,0,1-1.8-.056,1.421,1.421,0,0,1-.315-1.8,2.092,2.092,0,0,1,1-.8M-74.886,490a6.494,6.494,0,0,1,4.875,1.313,2.372,2.372,0,0,1,1.053,1.851,1.432,1.432,0,0,1-1.661,1.347c-.876-.129-1.28-1.065-2.079-1.353a3.106,3.106,0,0,0-3.468.695,5.534,5.534,0,0,0-.8,3.477,5.857,5.857,0,0,0,.778,3.62,3.1,3.1,0,0,0,3.431.742c.9-.306,1.373-1.477,2.434-1.389a1.451,1.451,0,0,1,1.29,1.93,4.141,4.141,0,0,1-2.077,1.986,7.15,7.15,0,0,1-4.514.5,5.485,5.485,0,0,1-3.68-2.459,9.321,9.321,0,0,1-1.048-4.935,8.824,8.824,0,0,1,1.17-4.947A5.71,5.71,0,0,1-74.886,490m-20.193-.019a8.971,8.971,0,0,1,5.354,1.263,1.44,1.44,0,0,1,.224,2.225,1.5,1.5,0,0,1-1.752.171,6.649,6.649,0,0,0-4.285-.786,1.447,1.447,0,0,0-1.193,1.414,1.289,1.289,0,0,0,.989,1.188c1.555.477,3.251.228,4.777.833a3.662,3.662,0,0,1,2.317,2.4,4.973,4.973,0,0,1-.3,3.547,4.866,4.866,0,0,1-3.374,2.417,10.155,10.155,0,0,1-6.731-.868,2.751,2.751,0,0,1-1.278-1.064,1.547,1.547,0,0,1,.683-2,1.8,1.8,0,0,1,1.712.164,7.029,7.029,0,0,0,3.113,1.145,3.758,3.758,0,0,0,2.709-.606,1.367,1.367,0,0,0-.353-2.266c-1.506-.572-3.186-.293-4.707-.824a3.706,3.706,0,0,1-2.5-2.246,4.563,4.563,0,0,1,.894-4.651,5.483,5.483,0,0,1,3.7-1.452m-24.88,1.629a4.489,4.489,0,0,1,3.713-1.648,4.652,4.652,0,0,1,3.983,1.888,5.787,5.787,0,0,1,3.518-1.827,5.931,5.931,0,0,1,4.136.81,5.212,5.212,0,0,1,2.089,4.541c-.007,2.585.016,5.174-.01,7.759a1.558,1.558,0,0,1-1.454,1.546,1.592,1.592,0,0,1-1.85-1.515c-.036-2.458,0-4.92-.019-7.378a2.829,2.829,0,0,0-1.592-2.677,2.839,2.839,0,0,0-2.988.565,3.286,3.286,0,0,0-.806,2.263q0,3.48,0,6.96a1.919,1.919,0,0,1-.331,1.187,1.779,1.779,0,0,1-2.391.273,1.737,1.737,0,0,1-.6-1.46c-.01-2.365,0-4.731-.006-7.1a2.847,2.847,0,0,0-1.521-2.662,2.833,2.833,0,0,0-3.089.569,3.43,3.43,0,0,0-.779,2.372q0,3.41,0,6.823a1.924,1.924,0,0,1-.291,1.128,1.732,1.732,0,0,1-2.778-.061,1.955,1.955,0,0,1-.249-1.067q0-5.5,0-11a1.763,1.763,0,0,1,.443-1.3,1.832,1.832,0,0,1,1.851-.374,1.709,1.709,0,0,1,1.024,1.378m69.188-7.255a1.777,1.777,0,0,1,1.764.422,1.927,1.927,0,0,1,.446,1.419q0,7.1,0,14.2a1.316,1.316,0,0,0,.394,1.084c.479.362,1.162.2,1.635.584a1.542,1.542,0,0,1-.2,2.444,3.532,3.532,0,0,1-1.754.2,3.441,3.441,0,0,1-2.56-1.061,4.859,4.859,0,0,1-.846-2.971q-.007-7.031,0-14.062a3.83,3.83,0,0,1,.128-1.347,1.491,1.491,0,0,1,.992-.906m-34.543-.029a2.01,2.01,0,0,1,2.763,1.452,1.986,1.986,0,0,1-1.825,2.358,1.956,1.956,0,0,1-2.105-1.944,1.948,1.948,0,0,1,1.167-1.866m-43.145-.045a1.984,1.984,0,0,1,2.665,1.777,1.954,1.954,0,0,1-2,2.082,1.969,1.969,0,0,1-1.955-1.953,1.978,1.978,0,0,1,1.291-1.906m-15.677,1.64a1.576,1.576,0,0,1,1.577-1.636,1.578,1.578,0,0,1,1.726,1.507c.022,1.944.009,3.888,0,5.832a4.367,4.367,0,0,1,3-1.622,5.344,5.344,0,0,1,3.2.53,4.763,4.763,0,0,1,2.322,3.048,11.947,11.947,0,0,1,.2,3.06c0,2.133.008,4.266,0,6.4a1.576,1.576,0,0,1-1.532,1.646,1.581,1.581,0,0,1-1.773-1.514c-.025-2.456.012-4.913-.018-7.369a2.836,2.836,0,0,0-1.54-2.678,2.917,2.917,0,0,0-3.02.505,3.434,3.434,0,0,0-.832,2.456q0,3.4,0,6.808a1.992,1.992,0,0,1-.25,1.072,1.726,1.726,0,0,1-2.823,0,3.009,3.009,0,0,1-.246-1.628q.006-8.2,0-16.411m-25.271-.836a1.713,1.713,0,0,1,2.857-.082,3.7,3.7,0,0,1,.4,1.044q1.339,5.441,2.687,10.882a12.985,12.985,0,0,0,.375,1.39q1.709-6.2,3.417-12.4a2.165,2.165,0,0,1,1.026-1.484,1.672,1.672,0,0,1,1.77.232,2.33,2.33,0,0,1,.612,1.027c1.216,4.208,2.355,8.44,3.6,12.639q1.514-6.211,3.013-12.428a2.3,2.3,0,0,1,.659-1.276,1.731,1.731,0,0,1,2.578.554,2.616,2.616,0,0,1-.037,1.842q-2.165,8-4.317,16a2.091,2.091,0,0,1-1.21,1.572,1.9,1.9,0,0,1-1.647-.236,2.8,2.8,0,0,1-.814-1.455q-1.744-6.226-3.486-12.455c-1.232,4.224-2.369,8.475-3.582,12.7a2.035,2.035,0,0,1-1.194,1.447,1.839,1.839,0,0,1-1.7-.312,3.289,3.289,0,0,1-.749-1.457q-2.154-7.969-4.3-15.945a2.424,2.424,0,0,1,.048-1.806" transform="translate(211.552 -481.312)" fill="#b7b7b7"/>
    </g>
  </g>
</svg>
