<svg id="Grupo_1526" data-name="Grupo 1526" xmlns="http://www.w3.org/2000/svg" width="165.943" height="55.631" viewBox="0 0 165.943 55.631">
  <path id="Trazado_4461" data-name="Trazado 4461" d="M-113.412,541.526h-45.545A5.043,5.043,0,0,0-164,546.569v45.545a5.043,5.043,0,0,0,5.043,5.043h45.545a5.043,5.043,0,0,0,5.043-5.043V546.569a5.043,5.043,0,0,0-5.043-5.043Z" transform="translate(164 -541.526)" fill="#b7b7b7"/>
  <path id="Trazado_4462" data-name="Trazado 4462" d="M6.23,608.069h5.325V584.837H6.23v23.233ZM55.6,584.352a8.362,8.362,0,0,0-7.261,4.092v-3.607H43.016v23.233h5.324V594.956c0-3.608,2.156-5.764,5.236-5.764,3.169,0,4.972,2.068,4.972,5.676v13.2h5.324V593.284c0-5.412-3.037-8.932-8.273-8.932ZM27.439,603.977c-4.137,0-7.085-3.389-7.085-7.525,0-4.091,2.728-7.436,7-7.436,4.18,0,7.129,3.388,7.129,7.525,0,4.092-2.729,7.436-7.04,7.436Zm0-19.625A12.155,12.155,0,0,0,15.03,596.541,12.025,12.025,0,0,0,27.351,608.6a12.126,12.126,0,1,0,.088-24.245Zm-65.913,17.556-6.248-17.072h-5.721l9.549,23.408h4.8l9.5-23.408h-5.588l-6.293,17.072ZM-4.5,594.341c-2.729-.881-5.237-1.585-5.237-3.257V591c0-1.364,1.188-2.332,3.256-2.332a10.194,10.194,0,0,1,3.3.641v0l.034.016c.1.036.2.076.3.114.842.266,3.114.622,5.028-2.35a16.1,16.1,0,0,0-8.538-2.642c-4.62,0-8.272,2.684-8.272,7.085v.088c0,4.444,3.828,5.852,7.26,6.821,2.729.836,5.193,1.452,5.193,3.256v.087c0,1.541-1.321,2.509-3.609,2.509a11.525,11.525,0,0,1-4.847-1.184c-.478-.2-2.963-1.052-5.088,1.971a16.322,16.322,0,0,0,9.8,3.438c4.839,0,8.624-2.419,8.624-7.3v-.088c0-4.179-3.828-5.72-7.216-6.776Zm-19.449,13.729h5.324V584.837h-5.324v23.233Z" transform="translate(102.07 -564.882)" fill="#b7b7b7"/>
  <path id="Trazado_4463" data-name="Trazado 4463" d="M-127.182,571.992a3.359,3.359,0,0,0,3.4-3.349,3.359,3.359,0,0,0-3.4-3.348,3.359,3.359,0,0,0-3.4,3.348,3.359,3.359,0,0,0,3.4,3.349Z" transform="translate(145.774 -554.489)" fill="#ebebeb"/>
  <path id="Trazado_4464" data-name="Trazado 4464" d="M-140.284,601.149a11.509,11.509,0,0,0-.3,2.516c0,2.949,1.6,4.907,5,4.907,2.819,0,5.1-1.674,6.749-4.376l-1,4.032h5.6l3.2-12.83c.8-3.248,2.349-4.935,4.7-4.935a2.8,2.8,0,0,1,3,3.048,6,6,0,0,1-.25,1.8l-1.65,5.9a8.875,8.875,0,0,0-.349,2.5c0,2.8,1.648,4.847,5.1,4.847,2.949,0,5.3-1.9,6.6-6.446l-2.2-.849c-1.1,3.047-2.049,3.6-2.8,3.6s-1.15-.5-1.15-1.5a6.627,6.627,0,0,1,.25-1.55l1.6-5.746a12.655,12.655,0,0,0,.55-3.644c0-4.3-2.6-6.541-5.747-6.541-2.949,0-5.948,2.66-7.446,5.458l1.1-5.024h-8.546l-1.2,4.425h4l-2.462,9.858c-1.934,4.3-5.485,4.368-5.931,4.268-.732-.165-1.2-.443-1.2-1.394a9.411,9.411,0,0,1,.35-2.287l3.748-14.869h-9.5l-1.2,4.425h3.948l-2.549,10.413Z" transform="translate(151.829 -565.713)" fill="#ebebeb"/>
</svg>
