<svg id="Grupo_1545" data-name="Grupo 1545" xmlns="http://www.w3.org/2000/svg" xmlns:xlink="http://www.w3.org/1999/xlink" width="165.943" height="37.758" viewBox="0 0 165.943 37.758">
  <defs>
    <clipPath id="clip-path">
      <path id="Trazado_4465" data-name="Trazado 4465" d="M446.762,447.571v-.461h-3.54v28.581h3.54V464.13c0-3.382,2.059-5.366,5.181-5.366,2.983,0,4.481,1.727,4.481,5v11.93h3.54V463.245c0-4.62-2.861-7.69-7.579-7.69a7.753,7.753,0,0,0-5.624,2.166v-10.15ZM430.9,476.134a9.03,9.03,0,0,0,9.23-7.489l.109-.551h-3.571l-.091.343a5.532,5.532,0,0,1-5.677,4.415c-3.633,0-6.14-2.866-6.14-6.989,0-4.154,2.5-7.026,6.14-7.026a5.533,5.533,0,0,1,5.677,4.415l.091.343h3.571l-.109-.551a9.03,9.03,0,0,0-9.23-7.489c-5.692,0-9.717,4.57-9.717,10.308C421.185,471.569,425.216,476.134,430.9,476.134Zm-11.008-17h.461V456h-4.315V450.65H412.5V456h-3.577v3.135H412.5v11.046c0,3.624,1.879,5.587,5.329,5.587a11.427,11.427,0,0,0,1.557-.1,4.759,4.759,0,0,0,.558-.1l.338-.094v-3.282l-.559.121-.132.026c-.109.02-.232.041-.363.06a7.826,7.826,0,0,1-.973.087h-.094c-1.511,0-2.121-.71-2.121-2.49V459.132ZM392.794,464a5.97,5.97,0,0,1,5.987-5.163,5.686,5.686,0,0,1,5.9,5.163Zm14.986,3.061h.433l.027-.432c0-.076.011-.2.019-.354.005-.12.01-.236.013-.347s.005-.229.005-.324c0-5.786-3.832-10.05-9.5-10.05s-9.681,4.538-9.681,10.271c0,5.9,3.845,10.308,9.717,10.308a9.224,9.224,0,0,0,9.107-6.631l.185-.6h-3.68l-.109.307a5.613,5.613,0,0,1-5.466,3.639c-3.384,0-5.743-2.324-6.168-5.79ZM374.7,447.571v-.461h-3.54v28.581h3.54V470.3l3.727-3.629,6.656,8.838.138.184h4.4l-.561-.739-8.128-10.706,7.5-7.461.792-.788H384.41l-.136.136-9.575,9.643V447.571Zm-24.4,19.7-.032-.427h-3.563l.02.48c.219,5.347,3.824,8.888,10.234,8.888,6.114,0,10.271-3.176,10.271-7.984a6.552,6.552,0,0,0-2.621-5.7,13.886,13.886,0,0,0-5.524-2.08l-.577-.123-.571-.119c-4.761-1-6.27-1.865-6.27-4.447,0-2.67,2.183-4.37,5.845-4.37,3.563,0,5.815,2.176,5.919,5.6l.014.447h3.537l-.011-.472c-.124-5.339-3.706-8.933-9.5-8.933-5.675,0-9.423,3.415-9.423,7.837a6.326,6.326,0,0,0,2.623,5.6,13.863,13.863,0,0,0,5.51,1.947l.412.083.41.081a14.55,14.55,0,0,1,4.675,1.4,3.594,3.594,0,0,1,1.9,3.42c0,2.83-2.38,4.444-6.546,4.444C353.045,472.852,350.57,470.852,350.3,467.267Z" transform="translate(-346.707 -447.11)" fill="#b7b7b7"/>
    </clipPath>
    <clipPath id="clip-path-2">
      <path id="Trazado_4466" data-name="Trazado 4466" d="M27.877,418.422l11.854-1.243,11.854,1.243,9.177,12.22L39.731,454.937,18.7,430.642Z" transform="translate(-18.7 -417.179)" fill="#b7b7b7"/>
    </clipPath>
    <clipPath id="clip-path-3">
      <path id="Trazado_4467" data-name="Trazado 4467" d="M27.219,501l12.513,24.294L18.7,501Z" transform="translate(-18.7 -501)" fill="#b7b7b7"/>
    </clipPath>
    <clipPath id="clip-path-4">
      <path id="Trazado_4468" data-name="Trazado 4468" d="M162.151,501l-12.513,24.294L170.669,501Z" transform="translate(-149.638 -501)" fill="#b7b7b7"/>
    </clipPath>
    <clipPath id="clip-path-5">
      <path id="Trazado_4469" data-name="Trazado 4469" d="M71.736,501H96.762L84.249,525.294Z" transform="translate(-71.736 -501)" fill="#b7b7b7"/>
    </clipPath>
    <clipPath id="clip-path-6">
      <path id="Trazado_4470" data-name="Trazado 4470" d="M84.249,417.179l-11.854,1.243-.659,12.22Z" transform="translate(-71.736 -417.179)" fill="#b7b7b7"/>
    </clipPath>
    <clipPath id="clip-path-7">
      <path id="Trazado_4471" data-name="Trazado 4471" d="M149.638,417.179l11.854,1.243.659,12.22Z" transform="translate(-149.638 -417.179)" fill="#b7b7b7"/>
    </clipPath>
    <clipPath id="clip-path-8">
      <path id="Trazado_4472" data-name="Trazado 4472" d="M232.616,437.139l-9.177-12.22.659,12.22Z" transform="translate(-223.439 -424.919)" fill="#b7b7b7"/>
    </clipPath>
    <clipPath id="clip-path-9">
      <path id="Trazado_4473" data-name="Trazado 4473" d="M84.249,417.179,71.736,430.642H96.762Z" transform="translate(-71.736 -417.179)" fill="#b7b7b7"/>
    </clipPath>
  </defs>
  <g id="Grupo_1528" data-name="Grupo 1528" transform="translate(52.685 4.808)">
    <g id="Grupo_1527" data-name="Grupo 1527" transform="translate(0 0)" clip-path="url(#clip-path)">
      <rect id="Rectángulo_401" data-name="Rectángulo 401" width="117.647" height="33.488" transform="translate(-2.195 -2.195)" fill="#b7b7b7"/>
    </g>
  </g>
  <g id="Grupo_1530" data-name="Grupo 1530" transform="translate(0)">
    <g id="Grupo_1529" data-name="Grupo 1529" clip-path="url(#clip-path-2)">
      <rect id="Rectángulo_402" data-name="Rectángulo 402" width="46.453" height="42.148" transform="translate(-2.195 -2.195)" fill="#b7b7b7"/>
    </g>
  </g>
  <g id="Grupo_1532" data-name="Grupo 1532" transform="translate(0 13.464)">
    <g id="Grupo_1531" data-name="Grupo 1531" clip-path="url(#clip-path-3)">
      <rect id="Rectángulo_403" data-name="Rectángulo 403" width="25.422" height="28.684" transform="translate(-2.195 -2.195)" fill="#b7b7b7"/>
    </g>
  </g>
  <g id="Grupo_1534" data-name="Grupo 1534" transform="translate(21.031 13.464)">
    <g id="Grupo_1533" data-name="Grupo 1533" transform="translate(0)" clip-path="url(#clip-path-4)">
      <rect id="Rectángulo_404" data-name="Rectángulo 404" width="25.422" height="28.684" transform="translate(-2.195 -2.195)" fill="#b7b7b7"/>
    </g>
  </g>
  <g id="Grupo_1536" data-name="Grupo 1536" transform="translate(8.518 13.464)">
    <g id="Grupo_1535" data-name="Grupo 1535" clip-path="url(#clip-path-5)">
      <rect id="Rectángulo_405" data-name="Rectángulo 405" width="29.416" height="28.684" transform="translate(-2.195 -2.195)" fill="#b7b7b7"/>
    </g>
  </g>
  <g id="Grupo_1538" data-name="Grupo 1538" transform="translate(8.518)">
    <g id="Grupo_1537" data-name="Grupo 1537" clip-path="url(#clip-path-6)">
      <rect id="Rectángulo_406" data-name="Rectángulo 406" width="16.903" height="17.854" transform="translate(-2.195 -2.195)" fill="#b7b7b7"/>
    </g>
  </g>
  <g id="Grupo_1540" data-name="Grupo 1540" transform="translate(21.031)">
    <g id="Grupo_1539" data-name="Grupo 1539" transform="translate(0)" clip-path="url(#clip-path-7)">
      <rect id="Rectángulo_407" data-name="Rectángulo 407" width="16.903" height="17.854" transform="translate(-2.195 -2.195)" fill="#b7b7b7"/>
    </g>
  </g>
  <g id="Grupo_1542" data-name="Grupo 1542" transform="translate(32.885 1.243)">
    <g id="Grupo_1541" data-name="Grupo 1541" clip-path="url(#clip-path-8)">
      <rect id="Rectángulo_408" data-name="Rectángulo 408" width="13.568" height="16.611" transform="translate(-2.195 -2.195)" fill="#b7b7b7"/>
    </g>
  </g>
  <g id="Grupo_1544" data-name="Grupo 1544" transform="translate(8.518)">
    <g id="Grupo_1543" data-name="Grupo 1543" clip-path="url(#clip-path-9)">
      <rect id="Rectángulo_409" data-name="Rectángulo 409" width="29.416" height="17.854" transform="translate(-2.195 -2.195)" fill="#b7b7b7"/>
    </g>
  </g>
</svg>
