<svg id="Cordova_logo" data-name="Cordova logo" xmlns="http://www.w3.org/2000/svg" width="171.26" height="163.475" viewBox="0 0 171.26 163.475">
  <path id="Trazado_4384" data-name="Trazado 4384" d="M155.69,163.475H127.958l1.946-23.353H116.281l-1.946,23.353H56.924l-1.946-23.353H41.355L43.3,163.475H15.569L0,62.276,38.922,0h93.414l38.923,62.276ZM124.552,31.138H99.53L101.2,42.815H70.06l1.668-11.677H46.707L31.138,62.276l7.784,62.276h93.414l7.785-62.276Zm-13.623,72.746c-2.149,0-3.892-6.482-3.892-14.479s1.743-14.479,3.892-14.479,3.892,6.482,3.892,14.479S113.078,103.884,110.929,103.884Zm-49.139,1.207c-2.15,0-3.892-6.482-3.892-14.479s1.743-14.479,3.892-14.479,3.892,6.482,3.892,14.479S63.939,105.091,61.789,105.091Z" fill="#b7b7b7"/>
</svg>
