<svg id="Guides_to_delete" data-name="Guides to delete" xmlns="http://www.w3.org/2000/svg" width="144.063" height="163.475" viewBox="0 0 144.063 163.475">
  <g id="Grupo_1501" data-name="Grupo 1501" transform="translate(0 0)">
    <path id="Trazado_4379" data-name="Trazado 4379" d="M574.558,1444.232l-13.117-147.126H705.5l-13.132,147.138-58.934,16.337Z" transform="translate(-561.441 -1297.105)" fill="#b7b7b7"/>
    <path id="Trazado_4380" data-name="Trazado 4380" d="M735.22,1326.119V1465.07l47.655-13.21L794.1,1326.119Z" transform="translate(-663.189 -1314.093)" fill="#ececec"/>
    <path id="Trazado_4381" data-name="Trazado 4381" d="M626.186,1369.657l4.864,54.568h62.544l-2.1,23.405-20.138,5.445-20.1-5.437-1.344-15.028H631.8l2.59,28.971,36.962,10.265,37.009-10.265,4.962-55.4H647.554L645.9,1387.7h69.056l1.616-18.046Z" transform="translate(-599.349 -1339.585)" fill="#fff"/>
    <g id="Grupo_1500" data-name="Grupo 1500" transform="translate(26.837 30.072)">
      <path id="Trazado_4382" data-name="Trazado 4382" d="M671.38,1369.657H626.186l4.864,54.568H671.38v-18.043H647.554L645.9,1387.7H671.38Z" transform="translate(-626.186 -1369.657)" fill="#ebebeb"/>
      <path id="Trazado_4383" data-name="Trazado 4383" d="M679.312,1541.993l-.023.007-20.1-5.436-1.344-15.028H639.732l2.59,28.97,36.962,10.266.028-.008Z" transform="translate(-634.117 -1458.583)" fill="#ebebeb"/>
    </g>
  </g>
</svg>
