<svg id="Codeigniter_logo" data-name="Codeigniter logo" xmlns="http://www.w3.org/2000/svg" width="138" height="163.475" viewBox="0 0 138 163.475">
  <path id="Trazado_4385" data-name="Trazado 4385" d="M7.064,154.876c-2.805,0-3.621-1.633-3.621-4.081a21.763,21.763,0,0,1,.229-2.705c.614-4.232,2.114-6.654,5.735-6.654,2.449,0,3.643,1.1,3.643,3.085v.969H15.48c.027,0,.027-.893.027-1.1,0-2.907-1.76-5.663-6.1-5.663-5.892,0-8.314,3.2-9.207,9.475a16.128,16.128,0,0,0-.2,2.467c0,3.7,1.455,7.062,6.657,7.062a8.32,8.32,0,0,0,7.677-4.3l-2.321-1.563c-1.5,2.372-3.137,3-4.948,3ZM23,143.2c-4.719,0-6.758,2.421-7.446,7.241a12.58,12.58,0,0,0-.129,1.684c0,3.111,1.453,5.586,5.482,5.586,4.719,0,6.785-2.525,7.474-7.27a13.826,13.826,0,0,0,.127-1.733c0-3.162-1.5-5.508-5.508-5.508Zm1.963,7.242c-.51,3.495-1.606,4.565-3.673,4.565-1.656,0-2.472-.688-2.472-2.755a12.743,12.743,0,0,1,.154-1.811c.51-3.468,1.53-4.538,3.621-4.538,1.684,0,2.524.688,2.524,2.779a11.8,11.8,0,0,1-.154,1.76Zm15.407-11.453-.79,4.682c-.051.407-.025.272.129.654a5.626,5.626,0,0,0-2.959-.932c-4.234,0-6.6,1.916-7.37,7.272a10.461,10.461,0,0,0-.127,1.709c0,3.9,2.3,5.358,5.38,5.358,1.3,0,2.576.027,3.57-.813l.254,1.586H40.91l2.856-19.517Zm-2.423,15.278A5.853,5.853,0,0,1,35,155.1c-1.862,0-2.372-.97-2.372-2.524a15.356,15.356,0,0,1,.18-2.016c.586-4.054,1.887-4.77,3.57-4.77a5.393,5.393,0,0,1,2.729.614l-1.15,7.854ZM51.214,143.2c-4.668,0-6.86,2.217-7.6,7.241a14.038,14.038,0,0,0-.129,1.761c0,3.443,1.76,5.509,5.635,5.509,3.01,0,5.255-1.251,6.454-3.546L53,153.114A3.831,3.831,0,0,1,49.5,155c-1.887,0-2.652-.507-2.652-2.191a2.507,2.507,0,0,1,.077-.815h9.205c.129-1.3.28-2.221.28-2.984,0-2.549-.968-5.816-5.2-5.816Zm1.759,6.2H47.363c.562-1.3,1.5-3.315,3.443-3.315a2.079,2.079,0,0,1,2.244,2.384,3.923,3.923,0,0,1-.077.931Zm13.256-6.506.306-2.6H59.342l-.3,2.6h1.887L58.886,155.9H57l-.3,2.6h7.191l.307-2.6H62.3l2.039-13.011Zm14.615,3.9.919-2.6H79.289l-1.784.368a7.061,7.061,0,0,0-3.621-1.114c-3.648,0-6.758,1.762-6.758,5.766a4.259,4.259,0,0,0,.891,2.643,2.374,2.374,0,0,0-1.427,2.009,1.924,1.924,0,0,0,.459,1.206,4.876,4.876,0,0,0-2.472,4.227c0,3.444,3.6,4.179,6.349,4.179,3.468,0,7.6-.792,7.6-5.2,0-1.5-.943-2.679-3.672-3.189l-4.922-.92c-.561-.1-.688-.281-.688-.536a.545.545,0,0,1,.612-.585l.332.051a10.08,10.08,0,0,0,2.218.23c3.546,0,6.708-1.531,6.708-5.509a3.613,3.613,0,0,0-.356-1.555,5.57,5.57,0,0,0,1.223.536h.863Zm-7.012,10.556c.968.18,1.3.536,1.3,1.174,0,2.066-2.218,2.321-3.824,2.321-2.448,0-3.366-.585-3.366-1.888a3.132,3.132,0,0,1,1.1-2.5l4.794.893Zm-1.047-6.68c-1.479,0-2.3-.535-2.3-1.811a2.732,2.732,0,0,1,3.01-2.984c1.53,0,2.271.638,2.271,1.886a2.659,2.659,0,0,1-2.985,2.909ZM89.9,143.2c-1.429,0-2.7.7-4.284,1.949l-.229-.955H82.583L80.62,158.5h3.392l1.48-10.854c1-.612,2.218-1.5,3.264-1.5,1.274,0,1.735.615,1.735,1.788a13.663,13.663,0,0,1-.078,1.418L89.164,158.5h3.392l1.248-9.223c.052-.432.1-1.142.1-1.549,0-2.425-1.148-4.535-4-4.535Zm10.447,11.721.026-.35,1.478-10.376H96.218l-.355,2.6h2.472c-.2,0-.332.228-.356.433l-1.02,6.91a11.978,11.978,0,0,0-.075,1.3,2.762,2.762,0,0,0,2.956,3.063h1.735l.383-2.6h-1.1c-.384,0-.51-.678-.51-.983Zm2.192-15.931H99.227c-.2,0-.2-.751-.229-.5l-.46,3.666c-.026.231-.026.733.178.733h3.317c.2,0,.2-.891.229-1.123l.46-2.83c.026-.255.026.05-.18.05ZM109.459,155c-.84,0-1.249-.357-1.249-1.121l.026-.052,1.071-7.038h3.876l1.172-2.6h-4.692l.79-5.726-3.569,1.141-.639,4.585h-2.065l-.356,2.6h2.4c-.229,1.3-.459.457-.484.713l-.919,6.171a3.766,3.766,0,0,0-.051.739c0,2.423,1.785,3.33,3.929,3.33a7.306,7.306,0,0,0,4.846-1.628l-1.582-1.946a4.094,4.094,0,0,1-2.5.832ZM121.9,143.2c-4.667,0-6.86,2.217-7.6,7.241a14.314,14.314,0,0,0-.128,1.761c0,3.443,1.759,5.509,5.635,5.509,3.01,0,5.255-1.251,6.453-3.546l-2.575-1.046A3.833,3.833,0,0,1,120.2,155c-1.886,0-2.652-.507-2.652-2.191a2.477,2.477,0,0,1,.078-.815h9.206c.127-1.3.281-2.221.281-2.984,0-2.549-.969-5.816-5.2-5.816Zm1.761,6.2h-5.611c.561-1.3,1.5-3.315,3.443-3.315a2.079,2.079,0,0,1,2.245,2.384,4.011,4.011,0,0,1-.077.931Zm12.828-6.2a5.312,5.312,0,0,0-3.52,1.8l-.2-.8h-2.8L128,158.5h3.418l1.5-11.083a5.931,5.931,0,0,1,2.882-.991,13.6,13.6,0,0,1,1.759-.021l.436-2.957a8.144,8.144,0,0,0-1.507-.254ZM49.886,128.734c-7.72-3.336-14.944-11.817-14.96-20.495C34.9,98.778,40.9,90.746,48.357,85.468c-.9,3.387-1.386,6.485.835,9.514a8.994,8.994,0,0,0,9.1,3.443C66.266,96.679,66.631,87.908,61.9,82.8c-4.676-5.06-9.2-10.776-7.42-18.114A18.871,18.871,0,0,1,60.493,55.1c-2.2,5.78,4.051,11.48,8.168,14.319,7.143,4.926,14.98,8.649,21.548,14.423,6.909,6.069,12.011,14.275,10.98,23.792-1.116,10.316-9.313,17.49-18.508,21.112,19.429-4.288,39.5-19.367,39.915-40.915.341-17.727-11.82-31.369-26.884-39.18l-.788-.429a6.407,6.407,0,0,1,.534,2.62,9.122,9.122,0,0,0,.252-1.74,8.462,8.462,0,0,1-.276,2.1l.024-.363A8.83,8.83,0,0,1,94.344,53.5l.222-.238c-3.006,4.985-11.142,6.067-15.161.906-6.461-8.3.135-17.255,1.058-26.046C81.618,17.1,74.708,6.4,66.139,0c4.719,7.634-1.5,17.733-6.471,23.379C54.844,28.853,48.979,33.422,43.654,38.4A133.46,133.46,0,0,0,27.735,55.631c-9.4,12.547-15.158,28.327-10.928,43.981s17.777,25.6,33.079,29.121Z" transform="translate(0 0)" fill="#b7b7b7"/>
</svg>
