<svg id="Grupo_1502" data-name="Grupo 1502" xmlns="http://www.w3.org/2000/svg" width="165.943" height="112.698" viewBox="0 0 165.943 112.698">
  <path id="Trazado_4386" data-name="Trazado 4386" d="M3200.006,1531.269h-6.4q-.339-16.21-1.87-30.49h-.056l-9.749,30.49h-4.875l-9.689-30.49h-.057q-1.078,13.715-1.359,30.49h-5.838q.565-20.4,2.833-38.255h7.936l9.238,28.109h.057l9.295-28.109h7.593q2.495,20.91,2.946,38.255" transform="translate(-3160.11 -1428.601)" fill="#b7b7b7"/>
  <path id="Trazado_4387" data-name="Trazado 4387" d="M3278.734,1515.072q-3.911,21.22-10.315,30.841-4.99,7.413-10.937,7.413a10.772,10.772,0,0,1-3.909-.952v-3.41a18.515,18.515,0,0,0,2.664.17,6.44,6.44,0,0,0,4.478-1.533,5.588,5.588,0,0,0,2.039-4.192,27.957,27.957,0,0,0-1.587-6.516l-7.027-21.82h6.291l5.043,16.319q1.7,5.558,1.417,7.767a106.524,106.524,0,0,0,5.781-24.086Z" transform="translate(-3211.068 -1440.628)" fill="#b7b7b7"/>
  <path id="Trazado_4388" data-name="Trazado 4388" d="M3474.511,1531.269H3456.32v-38.255h6.121v33.549h12.07Z" transform="translate(-3321.612 -1428.601)" fill="#b7b7b7"/>
  <path id="Trazado_4389" data-name="Trazado 4389" d="M3408.009,1531.511l-7.032-3.467a13.224,13.224,0,0,0,1.76-1.71q4.476-5.264,4.478-15.582,0-18.983-14.9-18.987-7.311,0-11.392,4.82-4.478,5.27-4.477,15.527,0,10.088,3.966,14.792,3.627,4.249,10.94,4.251a17.645,17.645,0,0,0,5.008-.672l9.157,5.329Zm-22.782-8.576q-2.325-3.739-2.325-12.012,0-14.45,8.784-14.453a7.375,7.375,0,0,1,6.745,3.456q2.321,3.743,2.324,11.9,0,14.565-8.785,14.567a7.363,7.363,0,0,1-6.743-3.459" transform="translate(-3278.059 -1427.92)" fill="#b7b7b7" fill-rule="evenodd"/>
  <path id="Trazado_4390" data-name="Trazado 4390" d="M3341.773,1520.052a10.154,10.154,0,0,1-3.569,7.992q-3.566,3.112-9.573,3.115a19.2,19.2,0,0,1-10.881-3.572l1.643-3.286a18.65,18.65,0,0,0,8.215,2.265,8.619,8.619,0,0,0,5.411-1.526,5.21,5.21,0,0,0,2.083-4.249c0-2.272-1.585-4.214-4.491-5.842-2.684-1.473-8.046-4.547-8.046-4.547-2.906-2.119-4.362-4.394-4.362-8.141a9.518,9.518,0,0,1,3.255-7.509,12.29,12.29,0,0,1,8.417-2.865,17.424,17.424,0,0,1,9.689,2.837l-1.478,3.283a18.769,18.769,0,0,0-7.362-1.584,6.562,6.562,0,0,0-4.531,1.419,4.737,4.737,0,0,0-1.716,3.625c0,2.266,1.618,4.231,4.606,5.891,2.718,1.473,8.211,4.607,8.211,4.607,2.989,2.116,4.478,4.371,4.478,8.087" transform="translate(-3246.06 -1427.987)" fill="#b7b7b7"/>
  <path id="Trazado_4391" data-name="Trazado 4391" d="M3438.162,1402.974a21.389,21.389,0,0,0-8.969,1.294c-.693.277-1.8.277-1.9,1.156.373.369.417.969.742,1.48a10.788,10.788,0,0,0,2.4,2.819c.97.74,1.942,1.477,2.959,2.124,1.8,1.114,3.836,1.758,5.589,2.868,1.021.646,2.034,1.478,3.055,2.173.506.369.828.971,1.477,1.2v-.14c-.326-.415-.417-1.016-.738-1.481-.462-.459-.925-.878-1.388-1.338a22.037,22.037,0,0,0-4.806-4.667c-1.481-1.02-4.718-2.407-5.316-4.112l-.094-.095a18.579,18.579,0,0,0,3.19-.745c1.57-.414,3-.321,4.619-.735.741-.186,1.48-.419,2.223-.647v-.418c-.836-.83-1.434-1.942-2.312-2.727a61.918,61.918,0,0,0-7.627-5.685c-1.435-.925-3.284-1.523-4.81-2.311-.551-.277-1.475-.415-1.8-.88a18.52,18.52,0,0,1-1.9-3.559c-1.339-2.54-2.636-5.358-3.79-8.043a49.359,49.359,0,0,0-2.356-5.268c-4.764-7.859-9.939-12.618-17.89-17.287a22.135,22.135,0,0,0-5.914-1.9c-1.157-.049-2.312-.138-3.467-.184a18.373,18.373,0,0,1-2.128-1.619c-2.635-1.663-9.427-5.268-11.369-.508-1.249,3.006,1.849,5.963,2.912,7.489a21.621,21.621,0,0,1,2.355,3.466c.324.786.416,1.619.742,2.45a55.063,55.063,0,0,0,2.4,6.2,21.749,21.749,0,0,0,1.708,2.863c.373.512,1.018.74,1.157,1.574-.645.923-.7,2.31-1.065,3.467-1.663,5.223-1.016,11.694,1.342,15.53.737,1.155,2.5,3.7,4.855,2.725,2.079-.83,1.617-3.465,2.218-5.775.138-.559.046-.925.323-1.295v.094c.646,1.292,1.3,2.537,1.9,3.836a26.387,26.387,0,0,0,6.01,6.191c1.106.835,1.985,2.265,3.372,2.775v-.14h-.092a5.122,5.122,0,0,0-1.063-.923,22.752,22.752,0,0,1-2.4-2.774,59.267,59.267,0,0,1-5.176-8.412c-.741-1.436-1.387-3.006-1.988-4.439-.277-.552-.277-1.386-.74-1.663a17.349,17.349,0,0,0-2.217,3.14c-.879,1.99-.971,4.44-1.3,6.982-.184.048-.092,0-.184.092-1.478-.37-1.986-1.894-2.542-3.185a20,20,0,0,1-.416-12.345c.323-.969,1.713-4.019,1.156-4.944-.278-.882-1.2-1.385-1.71-2.082a18.3,18.3,0,0,1-1.663-2.958c-1.11-2.588-1.667-5.454-2.865-8.042a24.791,24.791,0,0,0-2.311-3.559,22.811,22.811,0,0,1-2.544-3.6c-.229-.51-.554-1.342-.185-1.9a.741.741,0,0,1,.649-.6c.6-.508,2.31.138,2.91.416a23.528,23.528,0,0,1,4.576,2.311c.648.464,1.341,1.341,2.171,1.574h.973c1.479.322,3.145.09,4.531.508a29.576,29.576,0,0,1,6.656,3.189,41.02,41.02,0,0,1,14.418,15.809c.555,1.061.79,2.033,1.3,3.14.971,2.27,2.175,4.58,3.143,6.8a30.366,30.366,0,0,0,3.284,6.194c.691.97,3.467,1.478,4.714,1.987a33.031,33.031,0,0,1,3.19,1.292c1.572.969,3.14,2.08,4.622,3.145.738.555,3.049,1.709,3.189,2.635" transform="translate(-3277.581 -1351.376)" fill="#b7b7b7" fill-rule="evenodd"/>
  <path id="Trazado_4392" data-name="Trazado 4392" d="M3407.267,1376.509a7.391,7.391,0,0,0-1.9.232v.093h.09a15.6,15.6,0,0,0,1.48,1.9c.373.74.7,1.476,1.065,2.217.046-.045.09-.093.09-.093a2.6,2.6,0,0,0,.974-2.311,10.724,10.724,0,0,1-.555-.971c-.277-.462-.879-.693-1.249-1.063" transform="translate(-3293.834 -1365.079)" fill="#b7b7b7" fill-rule="evenodd"/>
  <path id="Trazado_4393" data-name="Trazado 4393" d="M3511.992,1571.5h.956v-4.687h-1.437l-1.17,3.195-1.274-3.195h-1.386v4.687h.9v-3.567h.052l1.334,3.567h.69l1.331-3.567Zm-7.718,0h1.014v-3.892h1.328v-.8h-3.72v.8h1.379Z" transform="translate(-3347.006 -1468.841)" fill="#b7b7b7"/>
</svg>
