<svg id="Grupo_1548" data-name="Grupo 1548" xmlns="http://www.w3.org/2000/svg" width="165.941" height="87.249" viewBox="0 0 165.941 87.249">
  <path id="Trazado_4474" data-name="Trazado 4474" d="M82.971,0c45.824,0,82.971,19.531,82.971,43.624S128.795,87.249,82.971,87.249,0,67.718,0,43.624,37.147,0,82.971,0Z" transform="translate(0 0)" fill="#ebebeb"/>
  <path id="Trazado_4475" data-name="Trazado 4475" d="M79.73,0c44.034,0,79.73,18.08,79.73,40.383s-35.7,40.383-79.73,40.383S0,62.687,0,40.383,35.7,0,79.73,0Z" transform="translate(3.241 3.241)" fill="#b7b7b7"/>
  <g id="Grupo_1546" data-name="Grupo 1546" transform="translate(23.96 11.408)">
    <path id="Trazado_4476" data-name="Trazado 4476" d="M2786.923,1440.626l3.954-20.354c.907-4.6.129-8.038-2.2-10.176-2.269-2.075-6.157-3.112-11.862-3.112h-6.871l1.945-10.112a1.357,1.357,0,0,0-.259-1.1,1.168,1.168,0,0,0-.973-.454h-9.464a1.325,1.325,0,0,0-1.3,1.037l-4.213,21.586a11.537,11.537,0,0,0-2.853-6.223c-2.788-3.177-7.13-4.8-13.029-4.8h-18.215a1.324,1.324,0,0,0-1.3,1.037l-8.491,43.819a1.355,1.355,0,0,0,.259,1.1,1.166,1.166,0,0,0,.972.453h9.529a1.324,1.324,0,0,0,1.3-1.037l2.075-10.566h7.064a31.062,31.062,0,0,0,9.27-1.167,18.386,18.386,0,0,0,6.806-4.084,20.941,20.941,0,0,0,4.019-4.991l-1.685,8.751a1.354,1.354,0,0,0,.26,1.1,1.167,1.167,0,0,0,.973.454h9.463a1.325,1.325,0,0,0,1.3-1.037l4.667-23.984h6.482c2.787,0,3.565.518,3.824.778.194.195.583.972.13,3.371l-3.76,19.381a1.355,1.355,0,0,0,.259,1.1,1.166,1.166,0,0,0,.973.454h9.723A1.809,1.809,0,0,0,2786.923,1440.626Zm-43.82-16.854c-.583,3.047-1.685,5.25-3.305,6.482s-4.278,1.88-7.779,1.88h-4.213l3.047-15.687h5.445c4.019,0,5.639.843,6.288,1.556C2743.427,1419.041,2743.623,1421.05,2743.1,1423.772Z" transform="translate(-2711.772 -1395.316)" fill="#fff"/>
    <path id="Trazado_4477" data-name="Trazado 4477" d="M2957.225,1431.964c-2.787-3.176-7.131-4.8-13.029-4.8h-18.344a1.325,1.325,0,0,0-1.3,1.037l-8.491,43.754a1.357,1.357,0,0,0,.259,1.1,1.166,1.166,0,0,0,.972.454h9.529a1.325,1.325,0,0,0,1.3-1.037l2.074-10.566h7.065a31.065,31.065,0,0,0,9.269-1.167,18.374,18.374,0,0,0,6.806-4.084,20.869,20.869,0,0,0,4.149-5.186,21.57,21.57,0,0,0,2.269-6.223C2960.855,1439.612,2960.012,1435.2,2957.225,1431.964Zm-9.918,12.057c-.583,3.047-1.685,5.25-3.306,6.482s-4.278,1.88-7.779,1.88h-4.213l3.046-15.687h5.445c4.019,0,5.639.843,6.287,1.556C2947.7,1439.289,2947.891,1441.3,2947.307,1444.02Z" transform="translate(-2841.626 -1415.564)" fill="#fff"/>
  </g>
  <g id="Grupo_1547" data-name="Grupo 1547" transform="translate(25.28 12.705)">
    <path id="Trazado_4478" data-name="Trazado 4478" d="M2738.6,1437.661c3.63,0,6.028.649,7.26,2.01s1.491,3.63.843,6.871c-.648,3.37-1.945,5.834-3.824,7.26s-4.732,2.139-8.556,2.139h-5.77l3.566-18.28Zm-23.206,36.818h9.529l2.269-11.6h8.168a28.353,28.353,0,0,0,8.88-1.167,17.023,17.023,0,0,0,6.352-3.824,19.425,19.425,0,0,0,3.889-4.862,18.908,18.908,0,0,0,2.074-5.834c1.037-5.186.259-9.2-2.269-12.121s-6.547-4.343-12.057-4.343h-18.344Z" transform="translate(-2715.395 -1419.122)" fill="#ebebeb"/>
    <path id="Trazado_4479" data-name="Trazado 4479" d="M2832.782,1398.875h9.464l-2.269,11.6h8.427c5.315,0,8.945.908,10.954,2.787s2.593,4.862,1.815,9.01l-3.954,20.354h-9.594l3.76-19.381c.453-2.2.259-3.7-.454-4.473s-2.333-1.231-4.732-1.231h-7.584l-4.862,25.086h-9.463Z" transform="translate(-2784.62 -1398.875)" fill="#ebebeb"/>
    <path id="Trazado_4480" data-name="Trazado 4480" d="M2942.692,1437.661c3.63,0,6.028.649,7.26,2.01s1.491,3.63.842,6.871c-.647,3.37-1.944,5.834-3.824,7.26s-4.732,2.139-8.557,2.139h-5.768l3.565-18.28Zm-23.206,36.818h9.529l2.269-11.6h8.167a28.355,28.355,0,0,0,8.881-1.167,17.029,17.029,0,0,0,6.353-3.824,19.444,19.444,0,0,0,3.888-4.862,18.9,18.9,0,0,0,2.075-5.834c1.037-5.186.26-9.2-2.269-12.121s-6.547-4.343-12.057-4.343h-18.344Z" transform="translate(-2845.136 -1419.122)" fill="#ebebeb"/>
  </g>
</svg>
