<svg id="Flutter_logo" data-name="Flutter logo" xmlns="http://www.w3.org/2000/svg" xmlns:xlink="http://www.w3.org/1999/xlink" width="165.414" height="60.018" viewBox="0 0 165.414 60.018">
  <defs>
    <clipPath id="clip-path">
      <path id="Trazado_4395" data-name="Trazado 4395" d="M53.149,28.5,36.993,44.66,53.149,60.822H34.688L27.76,53.894,18.526,44.66,34.688,28.5ZM34.688.8,4.682,30.81l9.234,9.234L53.149.8H34.688Z" transform="translate(-4.682 -0.804)" fill="#b7b7b7"/>
    </clipPath>
  </defs>
  <g id="Grupo_1513" data-name="Grupo 1513" transform="translate(0 0)">
    <g id="Grupo_1504" data-name="Grupo 1504" transform="translate(0 0)">
      <g id="Grupo_1503" data-name="Grupo 1503" clip-path="url(#clip-path)">
        <path id="Trazado_4394" data-name="Trazado 4394" d="M23.215,44.805,48.6,19.41H30.143L13.987,35.572Z" transform="translate(-0.137 8.285)" fill="#b7b7b7"/>
      </g>
    </g>
    <g id="Grupo_1506" data-name="Grupo 1506" transform="translate(0 0)">
      <g id="Grupo_1505" data-name="Grupo 1505" clip-path="url(#clip-path)">
        <path id="Trazado_4396" data-name="Trazado 4396" d="M4.682,30.81,34.688.8H53.149L13.915,40.043Z" transform="translate(-4.682 -0.804)" fill="#b7b7b7"/>
      </g>
    </g>
    <g id="Grupo_1508" data-name="Grupo 1508" transform="translate(0 0)">
      <g id="Grupo_1507" data-name="Grupo 1507" clip-path="url(#clip-path)">
        <path id="Trazado_4398" data-name="Trazado 4398" d="M27.114,46.424H45.576L29.42,30.268,20.186,39.5Z" transform="translate(2.892 13.589)" fill="#b7b7b7"/>
      </g>
    </g>
    <g id="Grupo_1510" data-name="Grupo 1510" transform="translate(0 0)">
      <g id="Grupo_1509" data-name="Grupo 1509" clip-path="url(#clip-path)">
        <path id="Trazado_4400" data-name="Trazado 4400" d="M29.42,30.268,20.186,39.5l13.694-4.744Z" transform="translate(2.892 13.589)" fill="#b7b7b7"/>
      </g>
    </g>
    <g id="Grupo_1512" data-name="Grupo 1512" transform="translate(0 0)">
      <g id="Grupo_1511" data-name="Grupo 1511" clip-path="url(#clip-path)">
        <path id="Trazado_4402" data-name="Trazado 4402" d="M13.987,33.294l9.234-9.234,9.234,9.234L23.22,42.534Z" transform="translate(-0.137 10.557)" fill="#b7b7b7"/>
      </g>
    </g>
    <path id="Trazado_4404" data-name="Trazado 4404" d="M53.149,28.5,36.993,44.66,53.149,60.822H34.688L27.76,53.894,18.526,44.66,34.688,28.5ZM34.688.8,4.682,30.81l9.234,9.234L53.149.8H34.688Z" transform="translate(-4.682 -0.804)" fill="#b7b7b7"/>
  </g>
  <g id="Grupo_1514" data-name="Grupo 1514" transform="translate(54.312 16.087)">
    <path id="Trazado_4405" data-name="Trazado 4405" d="M42.549,20.809h16.18v3.082H45.939v9.554H57.5v3.082H45.939V48.546H42.7V20.809Z" transform="translate(-42.549 -20.809)" fill="#b7b7b7"/>
    <path id="Trazado_4406" data-name="Trazado 4406" d="M56.008,20.809h3.236V48.7H56.008Z" transform="translate(-35.975 -20.809)" fill="#b7b7b7"/>
    <path id="Trazado_4407" data-name="Trazado 4407" d="M68.787,46.687a7.3,7.3,0,0,1-5.547-2.157,8.608,8.608,0,0,1-1.849-5.856V26.192h3.236V38.211a6.377,6.377,0,0,0,1.233,4.161A4.642,4.642,0,0,0,69.4,43.759a4.742,4.742,0,0,0,2.928-.925,5.76,5.76,0,0,0,2-2.311,7.014,7.014,0,0,0,.77-3.082V26.192h3.236V46.07H75.259V43.142h-.154a6.774,6.774,0,0,1-2.62,2.466A6.143,6.143,0,0,1,68.787,46.687Z" transform="translate(-33.346 -18.179)" fill="#b7b7b7"/>
    <path id="Trazado_4408" data-name="Trazado 4408" d="M84.509,48.2a6.183,6.183,0,0,1-2.311-.462,6.363,6.363,0,0,1-1.7-1.079,6.842,6.842,0,0,1-1.233-1.7,5.146,5.146,0,0,1-.462-2.311V30.94H75.263V28.013h3.544V22.465h3.236v5.547H86.82V30.94H82.044V41.727a3.91,3.91,0,0,0,.616,2.466,2.586,2.586,0,0,0,2.157.925,3.538,3.538,0,0,0,2.157-.616v3.236c-.462.154-.77.308-1.233.462Z" transform="translate(-26.57 -20)" fill="#b7b7b7"/>
    <path id="Trazado_4409" data-name="Trazado 4409" d="M93.829,48.2a6.183,6.183,0,0,1-2.311-.462,6.362,6.362,0,0,1-1.7-1.079,6.841,6.841,0,0,1-1.233-1.7,5.146,5.146,0,0,1-.462-2.311V30.94H84.891V28.013h3.544V22.465h3.236v5.547h4.777V30.94H91.671V41.727a3.91,3.91,0,0,0,.616,2.466,2.586,2.586,0,0,0,2.157.925A3.538,3.538,0,0,0,96.6,44.5v3.236c-.462.154-.77.308-1.233.462Z" transform="translate(-21.867 -20)" fill="#b7b7b7"/>
    <path id="Trazado_4410" data-name="Trazado 4410" d="M103.967,46.838a9.7,9.7,0,0,1-5.085-1.387,10.2,10.2,0,0,1-3.544-3.7,12.089,12.089,0,0,1-1.233-5.393,11.918,11.918,0,0,1,1.233-5.239,10.253,10.253,0,0,1,3.39-3.852,9.389,9.389,0,0,1,13.406,3.544,11.427,11.427,0,0,1,1.233,5.239,2.285,2.285,0,0,1-.154,1.079H97.341a9.436,9.436,0,0,0,1.079,3.852,5.878,5.878,0,0,0,2.466,2.311,7.58,7.58,0,0,0,3.082.77,6.459,6.459,0,0,0,5.856-3.544l2.774,1.387a10.65,10.65,0,0,1-3.544,3.852,11.343,11.343,0,0,1-5.085,1.079Zm5.7-12.636a5.115,5.115,0,0,0-.77-2.466,6.578,6.578,0,0,0-2-2.157,5.86,5.86,0,0,0-3.39-.925A5.457,5.457,0,0,0,99.5,30.2,7.743,7.743,0,0,0,97.341,34.2Z" transform="translate(-17.366 -18.331)" fill="#b7b7b7"/>
    <path id="Trazado_4411" data-name="Trazado 4411" d="M109.531,26.344h3.082V29.58h.154a4.765,4.765,0,0,1,2.311-2.62,6,6,0,0,1,3.544-1.079,5.146,5.146,0,0,1,2.311.462v3.544a5.277,5.277,0,0,0-2.774-.616,5.2,5.2,0,0,0-2.62.77,9.006,9.006,0,0,0-2,2.157,6.373,6.373,0,0,0-.77,2.928V46.222h-3.236Z" transform="translate(-9.832 -18.331)" fill="#b7b7b7"/>
  </g>
</svg>
